<?xml version="1.0" encoding="utf-8"?>
<!-- Generator: Adobe Illustrator 16.0.0, SVG Export Plug-In . SVG Version: 6.00 Build 0)  -->
<!DOCTYPE svg PUBLIC "-//W3C//DTD SVG 1.1//EN" "http://www.w3.org/Graphics/SVG/1.1/DTD/svg11.dtd">
<svg version="1.1" id="Layer_1" xmlns="http://www.w3.org/2000/svg" xmlns:xlink="http://www.w3.org/1999/xlink" x="0px" y="0px"
	 width="1842.52px" height="566.929px" viewBox="0 0 1842.52 566.929" enable-background="new 0 0 1842.52 566.929"
	 xml:space="preserve">
<g>
	<g>
		<path fill-rule="evenodd" clip-rule="evenodd" d="M154.04,176.758c0-48.737,0-97.475,0.001-146.211
			c0-2.786-0.063-5.574,0.044-8.354C154.5,11.23,162.023,3.485,173.03,2.991c6.254-0.28,12.53-0.097,18.796-0.097
			c61.733-0.003,123.468,0,185.201,0.002c2.088,0,4.182-0.058,6.265,0.057c11.021,0.607,18.591,8.126,19.061,19.143
			c0.227,5.328,0.064,10.672,0.064,16.01c0.002,96.546,0.015,193.093-0.012,289.64c-0.003,11.013,1.224,10.204-9.984,10.207
			c-76.123,0.019-152.246,0.011-228.368,0.008c-1.393,0-2.786,0.034-4.177-0.013c-5.662-0.191-5.811-0.199-5.808-5.978
			c0.007-19.72,0.174-39.439,0.197-59.162c0.037-32.018,0.01-64.035,0.01-96.05C154.196,176.758,154.119,176.758,154.04,176.758z
			 M277.813,268.332c0.001-0.107,0.001-0.218,0.001-0.326c17.644,0,35.288,0.002,52.932,0c13.233-0.003,26.467,0.06,39.699-0.046
			c9.444-0.079,12.076-2.756,12.17-11.972c0.037-3.482,0.129-6.975-0.093-10.445c-0.324-5.079-3.053-8.115-8.066-8.951
			c-2.267-0.377-4.625-0.291-6.939-0.293c-59.658-0.014-119.315-0.016-178.973-0.009c-2.086,0-4.203-0.081-6.252,0.231
			c-4.982,0.763-8.193,3.732-8.524,8.654c-0.339,5.074-0.241,10.23,0.256,15.291c0.469,4.772,3.531,7.16,8.501,7.422
			c4.401,0.231,8.81,0.42,13.215,0.425C223.098,268.352,250.456,268.332,277.813,268.332z M278.198,27.8c0,0.062,0,0.122,0,0.183
			c-27.125,0-54.25,0-81.375,0.001c-4.174,0-8.35-0.102-12.52,0.033c-7.183,0.231-10.175,3.153-10.412,10.129
			c-0.125,3.706-0.14,7.423-0.002,11.127c0.248,6.625,3.097,9.579,9.777,10.245c1.839,0.185,3.706,0.119,5.56,0.119
			c59.352,0.006,118.702,0.01,178.054-0.014c2.54-0.001,5.132,0.004,7.609-0.475c4.716-0.91,7.329-3.795,7.611-8.598
			c0.27-4.621,0.288-9.284-0.001-13.902c-0.314-4.979-3.444-7.994-8.409-8.578c-2.065-0.244-4.164-0.257-6.247-0.259
			C337.961,27.796,308.08,27.8,278.198,27.8z M278.986,184.295c-27.832,0-55.663,0-83.496,0c-3.015,0-6.031-0.015-9.044,0.015
			c-9.749,0.097-12.489,2.769-12.597,12.261c-0.023,2.087-0.026,4.177-0.019,6.263c0.033,10.426,2.706,13.13,13.167,13.133
			c60.767,0.019,121.531,0.014,182.298,0.019c0.928,0,1.857,0.036,2.781-0.002c6.885-0.284,10.207-3.474,10.511-10.227
			c0.125-2.778,0.047-5.566,0.031-8.351c-0.06-10.508-2.59-13.075-13.179-13.086C339.289,184.289,309.138,184.309,278.986,184.295z
			 M278.68,288.676c-30.146,0-60.292,0-90.437,0.005c-2.085,0.002-4.195-0.105-6.252,0.163c-4.818,0.623-7.566,3.262-7.913,8.179
			c-0.341,4.844-0.299,9.74-0.051,14.593c0.236,4.635,3.078,7.63,7.77,8.448c2.258,0.395,4.618,0.283,6.932,0.283
			c47.072,0.014,94.146,0.007,141.219,0.007c13.45,0,26.902,0.151,40.347-0.112c3.064-0.06,6.617-0.814,9.042-2.528
			c4.877-3.45,5.08-22.958,0.192-26.435c-2.56-1.823-6.432-2.473-9.718-2.491C339.435,288.607,309.057,288.681,278.68,288.676z
			 M277.509,111.574c0,0.014,0,0.026,0,0.041c26.432,0,52.863,0.001,79.296-0.002c5.333,0,10.669,0.122,15.996-0.069
			c6.086-0.218,9.486-3.512,9.77-9.451c0.2-4.163,0.156-8.351-0.031-12.516c-0.243-5.402-3.182-8.732-8.302-9.481
			c-2.048-0.299-4.165-0.169-6.25-0.169c-59.587-0.008-119.174-0.008-178.761-0.005c-2.086,0-4.189-0.109-6.255,0.107
			c-5.662,0.593-8.728,3.778-9.065,9.49c-0.191,3.236-0.11,6.49-0.077,9.735c0.095,9.487,2.904,12.298,12.563,12.31
			C216.763,111.597,247.136,111.574,277.509,111.574z M278.789,132.135c-30.836,0-61.673-0.038-92.51,0.023
			c-9.711,0.019-12.358,2.783-12.442,12.428c-0.017,1.854-0.001,3.709,0.002,5.564c0.033,11.173,2.422,13.613,13.367,13.614
			c39.417,0.007,78.833,0.008,118.247,0.01c21.795,0.002,43.59,0.062,65.384-0.027c8.764-0.036,11.645-3.063,11.767-11.746
			c0.03-2.086,0.007-4.173-0.001-6.259c-0.042-11.173-2.38-13.589-13.39-13.597C339.071,132.121,308.93,132.136,278.789,132.135z"/>
		<path fill-rule="evenodd" clip-rule="evenodd" d="M20.488,191.657c0.003-33.193-0.153-66.389,0.177-99.58
			c0.048-4.843,1.589-10.12,3.926-14.381c3.067-5.591,8.877-7.993,15.33-8.004c32.032-0.05,64.066,0,96.099-0.102
			c3.83-0.012,5.544,1.322,5.42,5.218c-0.145,4.638-0.163,9.287-0.014,13.924c0.125,3.884-1.515,5.277-5.384,5.236
			c-13.229-0.141-26.46-0.027-39.692-0.022c-14.623,0.006-29.248-0.057-43.872,0.019c-9.013,0.047-12.046,3.166-12.186,12.181
			c-0.04,2.553-0.058,5.107-0.012,7.659c0.156,8.659,3.15,11.75,11.773,11.782c18.801,0.067,37.604,0.017,56.406,0.016
			c8.821,0,17.642-0.05,26.462,0.026c6.12,0.053,6.501,0.281,6.46,6.186c-0.118,16.913,1.924,14.197-13.666,14.302
			c-23.908,0.161-47.818,0.044-71.727,0.054c-2.088,0.001-4.19-0.072-6.262,0.131c-5.881,0.578-8.971,3.466-9.36,9.232
			c-0.297,4.387-0.268,8.832,0.052,13.219c0.388,5.313,3.451,8.283,8.878,8.988c2.288,0.298,4.632,0.232,6.951,0.232
			c25.998,0.003,51.996-0.034,77.994-0.013c7.036,0.007,7.186,0.082,7.148,6.831c-0.091,16.371,1.567,13.365-12.969,13.458
			c-25.069,0.157-50.14,0.024-75.209,0.059c-9.901,0.014-12.838,2.975-12.937,12.823c-0.028,2.787-0.083,5.575,0.043,8.356
			c0.313,6.902,3.288,10.238,10.299,10.529c8.799,0.368,17.623,0.229,26.435,0.207c19.028-0.043,38.055-0.18,57.082-0.223
			c7.171-0.016,7.173,0.055,7.295,7.392c0.011,0.697,0.018,1.393,0.014,2.09c-0.076,11.974,1.404,10.997-11.445,10.975
			c-24.573-0.045-49.146-0.288-73.718-0.414c-2.082-0.01-4.187,0.094-6.244,0.393c-7.03,1.021-9.545,3.91-9.731,11.112
			c-0.078,3.014-0.046,6.036,0.02,9.051c0.178,8.192,3.146,11.356,11.413,11.431c16.479,0.149,32.959,0.072,49.439,0.064
			c11.142-0.006,22.285-0.146,33.424-0.052c6.489,0.058,6.682,0.349,6.813,6.673c0.262,12.547-0.174,11.254-10.595,11.229
			c-34.096-0.084-68.192,0.024-102.289,0.032c-8.005,0.003-8.037-0.038-8.04-8.04C20.479,258.511,20.486,225.084,20.488,191.657z"/>
		<path fill-rule="evenodd" clip-rule="evenodd" d="M535.936,191.301c0,32.719,0,65.441,0,98.164c0,1.623-0.045,3.25,0.016,4.875
			c0.146,3.969-1.25,5.684-5.689,5.607c-14.155-0.251-28.317,0.017-42.476,0.029c-21.822,0.021-43.646,0.024-65.468-0.013
			c-7.217-0.012-7.304-0.083-7.279-7.457c0.035-11.159-0.892-10.355,9.981-10.382c25.073-0.059,50.146-0.013,75.219-0.025
			c2.318,0,4.658,0.058,6.953-0.211c5.458-0.636,8.448-3.52,8.846-8.972c0.321-4.386,0.29-8.829,0.033-13.224
			c-0.298-5.082-3.08-8.084-8.067-9.013c-2.031-0.379-4.153-0.343-6.234-0.346c-26.233-0.019-52.465,0.005-78.7-0.017
			c-7.992-0.007-8.074-0.059-8.048-8.141c0.048-14.556-1.165-12.077,12.246-12.15c25.303-0.139,50.608-0.017,75.914-0.054
			c9.969-0.014,12.909-2.96,12.998-12.763c0.019-2.089,0.011-4.179-0.023-6.269c-0.152-9.552-3.084-12.577-12.438-12.619
			c-12.768-0.057-25.536-0.03-38.306-0.027c-14.161,0.003-28.322,0.024-42.483,0.027c-7.834,0.003-7.96-0.008-7.901-7.46
			c0.119-15.225-1.695-12.784,12.924-12.856c24.375-0.121,48.751-0.016,73.127-0.021c2.087,0,4.202,0.086,6.254-0.211
			c5.241-0.761,8.331-3.899,8.705-9.248c0.306-4.389,0.33-8.836-0.002-13.22c-0.417-5.479-3.39-8.299-8.879-8.942
			c-2.066-0.242-4.172-0.183-6.259-0.184c-26.001-0.014-52.003,0.007-78.003-0.029c-7.762-0.01-7.872-0.08-7.859-7.621
			c0.029-15.509-1.2-12.795,12.985-12.884c25.071-0.158,50.145-0.023,75.217-0.061c10.034-0.016,12.832-2.832,12.937-12.762
			c0.027-2.553,0.06-5.11-0.021-7.661c-0.244-7.71-3.437-11.028-11.092-11.178c-7.659-0.15-15.321-0.034-22.983-0.038
			c-19.965-0.008-39.93,0.012-59.895-0.04c-7.007-0.018-7.053-0.096-7.159-6.876c-0.069-4.409,0.024-8.82,0.038-13.23
			c0.01-2.839,1.325-4.289,4.264-4.149c1.389,0.066,2.784-0.02,4.177-0.02c29.715,0.005,59.439,0.421,89.144-0.16
			c14.53-0.285,23.671,8.811,23.444,23.629C535.589,125.828,535.936,158.567,535.936,191.301z"/>
		<path fill-rule="evenodd" clip-rule="evenodd" d="M278.167,350.905c41.98-0.002,83.959-0.03,125.939,0.052
			c3.182,0.008,6.592,0.21,9.491,1.35c5.23,2.055,7.704,6.605,7.917,12.093c0.244,6.253,0.328,12.532,0.018,18.778
			c-0.421,8.524-5.589,13.5-14.225,14.116c-2.77,0.198-5.564,0.04-8.346,0.04c-81.872,0.008-163.743,0.014-245.615,0.033
			c-13.648,0.002-18.529-4.765-18.58-18.276c-0.016-4.173-0.112-8.353,0.017-12.522c0.332-10.687,5.307-15.622,16.054-15.637
			C193.28,350.875,235.725,350.909,278.167,350.905z"/>
		<path fill-rule="evenodd" clip-rule="evenodd" d="M480.277,312.439c18.572,0,37.143-0.045,55.712,0.047
			c3.219,0.017,6.572,0.164,9.621,1.063c6.062,1.794,8.918,6.495,9.177,12.586c0.267,6.256,0.321,12.539,0.044,18.795
			c-0.392,8.842-5.25,13.727-14.077,13.952c-10.671,0.272-21.355,0.108-32.032,0.11c-22.75,0.01-45.501-0.098-68.249,0.085
			c-4.479,0.036-7.227-0.958-8.909-5.555c-2.144-5.863-6.633-10.135-12.317-12.677c-3.333-1.494-4.377-3.621-4.27-7.017
			c0.16-5.104-0.061-10.216,0.063-15.32c0.133-5.513,0.5-5.938,6.041-5.978c14.393-0.098,28.785-0.044,43.177-0.049
			c5.34-0.002,10.679,0,16.018,0C480.277,312.471,480.277,312.456,480.277,312.439z"/>
		<path fill-rule="evenodd" clip-rule="evenodd" d="M76.254,312.467c19.495,0,38.99-0.04,58.486,0.025
			c6.284,0.021,6.531,0.375,6.671,6.788c0.061,2.786-0.168,5.586,0.05,8.354c0.538,6.819-0.26,12.146-7.801,15.677
			c-4.084,1.913-6.922,7.261-9.389,11.594c-1.623,2.851-3.136,4.118-6.323,4.113c-34.119-0.074-68.24,0.038-102.358-0.149
			c-8.828-0.05-13.602-5.138-13.958-14.012c-0.223-5.563-0.185-11.144-0.032-16.711c0.286-10.39,5.154-15.48,15.476-15.584
			c18.103-0.182,36.207-0.021,54.312-0.005c1.623,0.003,3.245,0,4.868,0C76.254,312.527,76.254,312.498,76.254,312.467z"/>
		<path fill-rule="evenodd" clip-rule="evenodd" d="M72.264,214.465c-0.142,4.103-3.634,7.438-7.666,7.324
			c-3.998-0.114-7.469-3.654-7.488-7.634c-0.021-4.288,3.843-7.923,8.134-7.651C69.297,206.76,72.409,210.289,72.264,214.465z"/>
		<path d="M470.711,102.173v2.09l0.148,0.002c2.854,0.081,5.339,2.694,5.319,5.59c-0.023,2.936-2.48,5.46-5.367,5.511l-0.104,0
			c-1.486,0-2.857-0.577-3.86-1.625c-1.049-1.098-1.59-2.587-1.519-4.191c0.13-2.915,2.544-5.287,5.381-5.287L470.711,102.173
			 M470.71,102.173c-3.967,0-7.286,3.216-7.469,7.284c-0.196,4.442,3.139,8,7.466,8c0.047,0,0.093,0,0.141-0.001
			c4.032-0.073,7.388-3.504,7.419-7.584c0.028-4.039-3.355-7.582-7.349-7.695C470.849,102.174,470.779,102.173,470.71,102.173
			L470.71,102.173z"/>
		<path fill-rule="evenodd" clip-rule="evenodd" d="M72.278,109.624c0.161,4.14-2.986,7.582-7.142,7.808
			c-4.027,0.219-7.649-2.971-8.001-7.047c-0.361-4.173,3.343-8.202,7.564-8.228C68.738,102.133,72.116,105.46,72.278,109.624z"/>
		<path d="M491.688,104.253L491.688,104.253c0.121,0,0.244,0.005,0.366,0.014c2.846,0.207,5.302,2.965,5.152,5.79
			c-0.15,2.871-2.693,5.297-5.551,5.297l-0.112-0.001c-2.959-0.068-5.352-2.542-5.334-5.518
			C486.226,106.811,488.737,104.254,491.688,104.253 M491.688,102.165c-4.055,0-7.544,3.466-7.569,7.659
			c-0.024,4.111,3.281,7.525,7.376,7.619c0.054,0.001,0.107,0.001,0.16,0.001c3.945,0,7.429-3.302,7.639-7.278
			c0.208-3.935-3.132-7.696-7.089-7.983C492.032,102.171,491.859,102.165,491.688,102.165L491.688,102.165z"/>
		<g>
			<path fill-rule="evenodd" clip-rule="evenodd" d="M470.723,220.751c-1.775,0-3.427-0.703-4.647-1.979
				c-1.26-1.316-1.907-3.074-1.823-4.949c0.158-3.521,2.988-6.279,6.445-6.279l0.169,0.002c3.494,0.088,6.33,3.054,6.323,6.609
				c-0.008,3.517-2.916,6.537-6.349,6.595L470.723,220.751z"/>
			<path d="M470.698,208.588L470.698,208.588l0.143,0.002c2.93,0.075,5.31,2.57,5.304,5.561c-0.007,2.91-2.494,5.506-5.323,5.553
				l-0.099,0.001c-1.489,0-2.871-0.589-3.893-1.657c-1.06-1.109-1.605-2.593-1.534-4.179
				C465.43,210.909,467.802,208.588,470.698,208.588 M470.698,206.499c-3.999,0-7.305,3.19-7.488,7.278
				c-0.197,4.416,3.192,8.02,7.514,8.02c0.044,0,0.09,0,0.136-0.002c3.991-0.068,7.366-3.564,7.375-7.637
				c0.008-4.103-3.299-7.553-7.341-7.656C470.829,206.5,470.763,206.499,470.698,206.499L470.698,206.499z"/>
		</g>
		<g>
			<path fill-rule="evenodd" clip-rule="evenodd" d="M449.712,116.416c-1.776-0.009-3.416-0.721-4.614-2.004
				c-1.258-1.347-1.885-3.147-1.765-5.069c0.217-3.399,3.061-6.164,6.343-6.164c0.12,0,0.242,0.003,0.363,0.011
				c3.422,0.208,6.238,3.328,6.148,6.815c-0.091,3.596-2.922,6.411-6.442,6.411H449.712z"/>
			<path d="M449.676,104.224L449.676,104.224c0.099,0,0.2,0.002,0.3,0.009c2.876,0.174,5.244,2.806,5.168,5.746
				c-0.077,3.024-2.449,5.393-5.426,5.393c-1.487-0.008-2.855-0.602-3.857-1.673c-1.06-1.135-1.587-2.659-1.484-4.29
				C444.557,106.549,446.936,104.224,449.676,104.224 M449.676,102.133c-3.833,0-7.131,3.146-7.384,7.143
				c-0.284,4.482,3.052,8.163,7.415,8.185c0.013,0,0.025,0,0.039,0c4.063,0,7.381-3.288,7.487-7.429
				c0.104-4.06-3.135-7.642-7.129-7.885C449.959,102.138,449.817,102.133,449.676,102.133L449.676,102.133z"/>
		</g>
		<g>
			<path fill-rule="evenodd" clip-rule="evenodd" d="M491.718,220.758c-1.722,0-3.421-0.758-4.664-2.077
				c-1.277-1.359-1.947-3.168-1.836-4.965c0.204-3.369,3.149-6.215,6.431-6.215l0.28,0.006c3.345,0.162,6.33,3.375,6.262,6.741
				c-0.068,3.407-3.152,6.51-6.47,6.51H491.718z"/>
			<path d="M491.65,208.545L491.65,208.545c0.076,0,0.151,0.001,0.228,0.005c2.815,0.136,5.326,2.842,5.268,5.676
				c-0.057,2.872-2.644,5.487-5.429,5.487c-1.434,0-2.855-0.638-3.9-1.75c-1.082-1.148-1.649-2.674-1.556-4.186
				C486.433,210.941,488.901,208.545,491.65,208.545 M491.649,206.455c-3.829,0-7.233,3.239-7.474,7.196
				c-0.264,4.321,3.28,8.151,7.542,8.151c0.001,0,0.002,0,0.004,0c3.9,0,7.434-3.543,7.515-7.534
				c0.081-3.955-3.32-7.615-7.256-7.805C491.869,206.458,491.759,206.455,491.649,206.455L491.649,206.455z"/>
		</g>
		<path fill-rule="evenodd" clip-rule="evenodd" d="M65.067,154.558c4.246,0.163,7.272,3.353,7.199,7.589
			c-0.076,4.419-3.68,7.586-8.232,7.233c-4.178-0.323-7.222-3.803-6.917-7.905C57.425,157.353,60.823,154.395,65.067,154.558z"/>
		<g>
			<path fill-rule="evenodd" clip-rule="evenodd" d="M449.704,220.731c-1.766-0.001-3.403-0.715-4.613-2.008
				c-1.268-1.357-1.896-3.155-1.77-5.062c0.23-3.443,3.05-6.141,6.418-6.141c0.107,0,0.213,0.003,0.321,0.008
				c3.475,0.181,6.229,3.222,6.141,6.777c-0.09,3.543-3.002,6.425-6.493,6.425H449.704z"/>
			<path d="M449.739,208.565L449.739,208.565c0.088,0,0.178,0.002,0.267,0.006c2.916,0.151,5.225,2.713,5.152,5.707
				c-0.076,2.981-2.521,5.407-5.454,5.407c-1.472-0.001-2.839-0.595-3.849-1.677c-1.07-1.144-1.599-2.662-1.49-4.278
				C444.554,210.882,446.965,208.565,449.739,208.565 M449.739,206.476c-3.877,0-7.193,3.125-7.46,7.116
				c-0.298,4.454,3.083,8.181,7.423,8.184c0.001,0,0.002,0,0.005,0c4.042,0,7.434-3.35,7.538-7.444
				c0.102-4.108-3.105-7.637-7.131-7.846C449.99,206.478,449.865,206.476,449.739,206.476L449.739,206.476z"/>
		</g>
		<g>
			<path fill-rule="evenodd" clip-rule="evenodd" d="M491.475,272.675c-3.649-0.088-6.29-2.801-6.279-6.448
				c0.009-3.637,2.685-6.318,6.364-6.374c0.001,0,0.003,0,0.004,0c1.998,0,3.707,0.711,4.928,2.003
				c1.191,1.26,1.792,2.944,1.691,4.743c-0.196,3.522-2.938,6.078-6.52,6.078L491.475,272.675z"/>
			<path d="M491.677,260.896c1.591,0,3.033,0.595,4.055,1.679c0.992,1.047,1.491,2.456,1.407,3.965
				c-0.167,3.001-2.419,5.094-5.479,5.094l-0.16-0.003c-3.107-0.075-5.27-2.297-5.26-5.401c0.008-3.092,2.203-5.284,5.335-5.332
				L491.677,260.896 M491.676,258.807c-0.044,0-0.089,0-0.133,0.001c-4.25,0.064-7.382,3.207-7.393,7.416
				c-0.013,4.233,3.065,7.392,7.298,7.496c0.071,0.001,0.142,0.002,0.212,0.002c4.146,0,7.337-2.963,7.565-7.065
				C499.469,262.281,496.11,258.807,491.676,258.807L491.676,258.807z"/>
		</g>
		<path d="M470.728,156.601l0.167,0.002c3.108,0.079,5.264,2.31,5.245,5.423c-0.021,3.132-2.171,5.265-5.351,5.307l-0.094,0.001
			c-3.087,0-5.311-2.111-5.409-5.132c-0.048-1.548,0.471-2.967,1.467-3.996C467.756,157.172,469.166,156.601,470.728,156.601
			 M470.728,154.512c-4.39,0-7.671,3.358-7.529,7.757c0.134,4.177,3.264,7.154,7.497,7.154c0.041,0,0.082,0,0.121,0
			c4.292-0.057,7.384-3.135,7.413-7.382c0.028-4.256-3.029-7.417-7.28-7.526C470.875,154.513,470.801,154.512,470.728,154.512
			L470.728,154.512z"/>
		<g>
			<path fill-rule="evenodd" clip-rule="evenodd" d="M470.63,272.704c-3.762-0.042-6.318-2.589-6.361-6.337
				c-0.043-3.76,2.446-6.355,6.196-6.461l0.216-0.003c1.883,0,3.593,0.696,4.814,1.963c1.179,1.223,1.794,2.875,1.73,4.651
				c-0.13,3.586-2.864,6.187-6.503,6.187H470.63z"/>
			<path d="M470.684,260.947c1.595,0,3.037,0.585,4.06,1.645c0.98,1.017,1.491,2.398,1.438,3.889
				c-0.109,3.001-2.405,5.179-5.458,5.179h-0.083c-3.198-0.036-5.291-2.117-5.327-5.305c-0.037-3.192,1.998-5.313,5.181-5.405
				L470.684,260.947 M470.682,258.857c-0.082,0-0.163,0.002-0.246,0.004c-4.33,0.123-7.261,3.179-7.211,7.518
				c0.05,4.299,3.078,7.321,7.394,7.369c0.035,0,0.069,0,0.105,0c4.178,0,7.397-3.059,7.547-7.192
				C478.426,262.215,475.089,258.857,470.682,258.857L470.682,258.857z"/>
		</g>
		<path d="M449.743,260.881l0.118,0.002c3.065,0.051,5.31,2.319,5.337,5.392c0.026,3.006-2.246,5.32-5.286,5.383l-0.146,0.001
			c-3.073,0-5.227-2.052-5.358-5.108c-0.072-1.637,0.427-3.099,1.402-4.119C446.782,261.418,448.141,260.881,449.743,260.881
			 M449.743,258.792c-4.481,0-7.621,3.305-7.423,7.848c0.182,4.19,3.252,7.107,7.447,7.107c0.063,0,0.126,0,0.19-0.001
			c4.185-0.087,7.366-3.338,7.331-7.489c-0.037-4.188-3.21-7.392-7.391-7.464C449.845,258.792,449.795,258.792,449.743,258.792
			L449.743,258.792z"/>
		<g>
			<path fill-rule="evenodd" clip-rule="evenodd" d="M491.618,168.374c-3.703,0-6.406-2.665-6.428-6.335
				c-0.023-3.671,2.559-6.316,6.28-6.432l0.238-0.003c3.583,0,6.32,2.529,6.508,6.013c0.19,3.525-2.467,6.483-6.047,6.737
				C491.983,168.366,491.798,168.374,491.618,168.374z"/>
			<path d="M491.708,156.647c3.008,0,5.308,2.113,5.464,5.025c0.159,2.95-2.071,5.426-5.077,5.639
				c-0.161,0.011-0.321,0.017-0.478,0.017c-3.101,0-5.364-2.228-5.383-5.297c-0.021-3.12,2.096-5.283,5.267-5.381L491.708,156.647
				 M491.708,154.558c-0.09,0-0.181,0.001-0.271,0.004c-4.29,0.134-7.319,3.241-7.292,7.482c0.026,4.267,3.232,7.373,7.473,7.373
				c0.205,0,0.413-0.008,0.624-0.022c4.135-0.293,7.238-3.755,7.017-7.835C499.04,157.518,495.823,154.558,491.708,154.558
				L491.708,154.558z"/>
		</g>
		<path fill-rule="evenodd" clip-rule="evenodd" d="M72.055,266.539c-0.449,4.106-4.125,7.475-7.879,7.221
			c-3.888-0.261-7.027-4.232-6.561-8.3c0.481-4.192,4.158-7.136,8.194-6.563C69.915,259.479,72.482,262.622,72.055,266.539z"/>
		<path d="M449.709,154.52v2.089c3.127,0,5.41,2.24,5.429,5.326c0.01,1.508-0.518,2.879-1.487,3.858
			c-0.971,0.983-2.344,1.529-3.896,1.537c-3.159,0-5.375-2.181-5.39-5.303c-0.015-3.225,2.12-5.402,5.313-5.417L449.709,154.52
			 M449.709,154.52c-0.014,0-0.028,0-0.041,0c-4.327,0.021-7.412,3.158-7.393,7.516c0.021,4.285,3.165,7.383,7.479,7.383
			c0.015,0,0.03,0,0.045,0c4.289-0.022,7.454-3.217,7.427-7.498C457.202,157.689,453.977,154.52,449.709,154.52L449.709,154.52z"/>
		<g>
			<path fill-rule="evenodd" clip-rule="evenodd" d="M358.246,258.695c-0.172,0-0.344-0.006-0.517-0.02
				c-3.577-0.26-6.3-3.291-6.072-6.759c0.227-3.438,3.134-6.131,6.617-6.131l0.204,0.005c3.585,0.109,6.382,2.985,6.367,6.553
				C364.829,255.846,361.868,258.695,358.246,258.695z"/>
			<path d="M358.276,246.831h-0.001l0.17,0.004c3.016,0.092,5.369,2.51,5.355,5.504c-0.014,2.979-2.453,5.313-5.554,5.313
				c-0.147,0-0.294-0.005-0.442-0.017c-3.005-0.217-5.295-2.752-5.103-5.649C352.891,249.096,355.34,246.834,358.276,246.831
				 M358.273,244.742c-4,0.001-7.396,3.126-7.659,7.105c-0.268,4.057,2.872,7.569,7.038,7.872c0.199,0.014,0.396,0.021,0.593,0.021
				c4.192,0,7.625-3.254,7.643-7.392c0.018-4.105-3.254-7.478-7.379-7.603C358.43,244.743,358.353,244.742,358.273,244.742
				L358.273,244.742z"/>
		</g>
		<g>
			<path fill-rule="evenodd" clip-rule="evenodd" d="M316.323,258.671c-3.625,0-6.368-2.544-6.523-6.048
				c-0.159-3.63,2.434-6.557,6.034-6.805c0.152-0.011,0.306-0.016,0.458-0.016c3.638,0,6.629,2.882,6.668,6.422
				c0.04,3.454-2.846,6.346-6.432,6.444L316.323,258.671z"/>
			<path d="M316.293,246.848L316.293,246.848c3.014,0,5.589,2.467,5.623,5.39c0.034,2.887-2.397,5.304-5.415,5.388l-0.178,0.001
				c-3.045,0-5.35-2.124-5.478-5.05c-0.134-3.049,2.041-5.507,5.059-5.716C316.034,246.852,316.165,246.848,316.293,246.848
				 M316.292,244.758c-0.175,0-0.353,0.006-0.53,0.018c-4.138,0.286-7.188,3.724-7.004,7.895c0.179,4.06,3.409,7.045,7.566,7.045
				c0.077,0,0.157,0,0.234-0.002c4.144-0.114,7.495-3.485,7.448-7.5C323.959,248.093,320.445,244.757,316.292,244.758
				L316.292,244.758z"/>
		</g>
		<path d="M337.299,246.823L337.299,246.823c0.08,0,0.16,0.002,0.242,0.006c2.9,0.121,5.384,2.714,5.316,5.548
			c-0.07,2.907-2.545,5.271-5.544,5.271c-3.015-0.017-5.511-2.371-5.564-5.252c-0.027-1.46,0.53-2.846,1.565-3.899
			C334.373,247.419,335.787,246.823,337.299,246.823 M337.299,244.734c-4.242,0-7.718,3.462-7.64,7.701
			c0.073,3.999,3.507,7.279,7.643,7.303c0.012,0,0.024,0,0.037,0c4.126,0,7.51-3.248,7.608-7.312
			c0.096-3.975-3.277-7.517-7.319-7.686C337.518,244.737,337.407,244.734,337.299,244.734L337.299,244.734z"/>
		<g>
			<path fill-rule="evenodd" clip-rule="evenodd" d="M198.61,258.695c-1.775,0-3.564-0.81-4.908-2.218
				c-1.224-1.285-1.884-2.9-1.812-4.432c0.156-3.266,2.896-5.835,6.236-5.847c1.763,0,3.516,0.763,4.826,2.093
				c1.167,1.184,1.822,2.692,1.801,4.135c-0.05,3.218-2.82,6.146-5.927,6.265L198.61,258.695z"/>
			<path d="M198.142,245.154v2.09c1.469,0,2.952,0.649,4.066,1.781c0.972,0.985,1.519,2.219,1.5,3.385
				c-0.041,2.691-2.341,5.138-4.921,5.237l-0.178,0.004c-1.469,0-3.021-0.709-4.152-1.896c-1.028-1.077-1.583-2.412-1.524-3.659
				c0.129-2.712,2.412-4.843,5.194-4.853L198.142,245.154 M198.142,245.154c-0.006,0-0.013,0-0.019,0
				c-3.886,0.013-7.095,3.031-7.277,6.843c-0.189,3.98,3.625,7.743,7.763,7.743c0.086,0,0.172-0.002,0.257-0.005
				c3.67-0.142,6.873-3.51,6.931-7.292C205.856,248.643,202.188,245.154,198.142,245.154L198.142,245.154z"/>
		</g>
		<g>
			<path fill-rule="evenodd" clip-rule="evenodd" d="M316.303,50.17c-1.807,0-3.483-0.719-4.719-2.025
				c-1.25-1.323-1.882-3.066-1.778-4.909c0.192-3.429,3.003-6.015,6.541-6.015l0.263,0.005c3.508,0.13,6.419,3.141,6.355,6.576
				c-0.062,3.426-3.09,6.344-6.613,6.369H316.303z"/>
			<path d="M316.347,38.266L316.347,38.266c0.075,0,0.148,0.001,0.223,0.003c2.903,0.108,5.403,2.684,5.35,5.512
				c-0.051,2.826-2.656,5.323-5.616,5.345c-1.517,0-2.924-0.603-3.96-1.7c-1.05-1.112-1.582-2.579-1.494-4.132
				C311.01,40.428,313.373,38.266,316.347,38.266 M316.347,36.176c-4.049,0-7.361,3.029-7.584,7.001
				c-0.246,4.389,3.185,8.039,7.541,8.039c0.019,0,0.038,0,0.057,0c4.068-0.031,7.576-3.422,7.65-7.396
				c0.073-3.979-3.31-7.489-7.363-7.639C316.546,36.178,316.446,36.176,316.347,36.176L316.347,36.176z"/>
		</g>
		<g>
			<path fill-rule="evenodd" clip-rule="evenodd" d="M358.267,50.071c-3.654-0.005-6.555-2.743-6.604-6.233
				c-0.024-1.737,0.638-3.379,1.867-4.625c1.265-1.284,2.964-1.99,4.784-1.99l0.254,0.004c3.463,0.126,6.423,3.196,6.333,6.569
				c-0.094,3.519-3.004,6.274-6.624,6.274H358.267z"/>
			<path d="M358.314,38.268L358.314,38.268c0.072,0,0.143,0.001,0.215,0.004c2.913,0.106,5.402,2.674,5.327,5.498
				c-0.08,2.947-2.53,5.257-5.588,5.257c-3.078-0.004-5.521-2.289-5.562-5.204c-0.02-1.455,0.534-2.831,1.565-3.876
				C355.34,38.864,356.776,38.268,358.314,38.268 M358.313,36.178c-4.278,0-7.755,3.434-7.696,7.674
				c0.058,4.06,3.424,7.258,7.648,7.264c0.005,0,0.007,0,0.011,0c4.157,0,7.56-3.233,7.668-7.292
				c0.106-3.971-3.277-7.494-7.339-7.641C358.508,36.18,358.411,36.178,358.313,36.178L358.313,36.178z"/>
		</g>
		<g>
			<path fill-rule="evenodd" clip-rule="evenodd" d="M198.101,50.146c-3.469,0-6.468-2.91-6.547-6.355
				c-0.08-3.487,2.75-6.423,6.311-6.548l0.256-0.004c3.53,0,6.376,2.583,6.623,6.006c0.125,1.75-0.479,3.438-1.7,4.755
				c-1.263,1.359-3.057,2.141-4.924,2.146H198.101z"/>
			<path d="M198.122,38.283c2.974,0,5.374,2.166,5.581,5.037c0.104,1.458-0.402,2.868-1.423,3.97
				c-1.065,1.147-2.583,1.808-4.178,1.813c-2.916,0-5.436-2.443-5.502-5.335c-0.067-2.917,2.312-5.375,5.304-5.479
				C197.975,38.284,198.048,38.283,198.122,38.283 M198.121,36.193c-0.097,0-0.195,0.002-0.293,0.005
				c-4.111,0.144-7.411,3.578-7.319,7.616c0.092,4.028,3.542,7.377,7.591,7.377c0.008,0,0.015,0,0.023,0
				c4.436-0.013,7.971-3.715,7.662-8.022C205.499,39.183,202.187,36.193,198.121,36.193L198.121,36.193z"/>
		</g>
		<path d="M337.287,38.303c2.976,0,5.36,2.2,5.547,5.117c0.087,1.366-0.451,2.777-1.475,3.87c-1.087,1.157-2.573,1.822-4.076,1.822
			l-0.088-0.001c-2.989-0.05-5.432-2.469-5.445-5.391c-0.015-2.904,2.394-5.333,5.37-5.415L337.287,38.303 M337.287,36.213
			c-0.075,0-0.149,0.001-0.225,0.003c-4.123,0.114-7.421,3.462-7.402,7.514c0.02,4.054,3.379,7.4,7.5,7.47
			c0.041,0,0.083,0.001,0.124,0.001c4.267,0,7.902-3.751,7.636-7.915C344.661,39.265,341.346,36.213,337.287,36.213L337.287,36.213z
			"/>
		<g>
			<path fill-rule="evenodd" clip-rule="evenodd" d="M198.173,206.79c-3.246,0-6.532-3.216-6.636-6.492
				c-0.104-3.35,2.902-6.572,6.307-6.76c0.111-0.007,0.223-0.009,0.333-0.009c3.348,0,6.287,2.749,6.551,6.13
				c0.134,1.747-0.526,3.549-1.813,4.945c-1.276,1.381-2.998,2.179-4.725,2.186H198.173z"/>
			<path d="M198.177,194.574c2.816,0,5.287,2.317,5.508,5.164c0.113,1.459-0.448,2.975-1.538,4.157
				c-1.079,1.17-2.523,1.845-3.974,1.85c-2.685,0-5.506-2.765-5.592-5.479c-0.087-2.768,2.499-5.529,5.321-5.684
				C197.994,194.577,198.085,194.574,198.177,194.574 M198.177,192.484c-0.129,0-0.259,0.005-0.389,0.011
				c-3.954,0.218-7.417,3.937-7.294,7.836c0.121,3.837,3.876,7.503,7.68,7.503c0.006,0,0.014,0,0.021,0
				c4.249-0.016,7.904-4.001,7.575-8.257C205.461,195.634,202.048,192.484,198.177,192.484L198.177,192.484z"/>
		</g>
		<g>
			<path fill-rule="evenodd" clip-rule="evenodd" d="M316.341,206.771c-3.335,0-6.398-2.965-6.552-6.346
				c-0.081-1.8,0.571-3.521,1.838-4.846c1.257-1.317,2.928-2.042,4.703-2.042l0.154,0.003c3.451,0.082,6.479,3.159,6.479,6.587
				c0,3.329-3.145,6.555-6.473,6.642L316.341,206.771z"/>
			<path d="M316.332,194.583L316.332,194.583l0.128,0.002c2.908,0.068,5.458,2.658,5.458,5.542c0,2.805-2.651,5.524-5.455,5.598
				l-0.122,0.001c-2.804,0-5.377-2.5-5.508-5.349c-0.068-1.512,0.481-2.959,1.55-4.077
				C313.441,195.193,314.844,194.583,316.332,194.583 M316.331,192.493c-4.271,0.001-7.78,3.667-7.584,7.98
				c0.181,3.972,3.689,7.343,7.595,7.343c0.058,0,0.119-0.001,0.177-0.002c3.912-0.101,7.489-3.771,7.489-7.687
				c0-4.002-3.472-7.536-7.499-7.632C316.448,192.494,316.39,192.493,316.331,192.493L316.331,192.493z"/>
		</g>
		<path d="M337.292,194.583L337.292,194.583c0.096,0,0.19,0.002,0.288,0.008c2.894,0.158,5.353,2.811,5.264,5.677
			c-0.087,2.785-2.797,5.418-5.598,5.418c-2.875-0.01-5.426-2.568-5.46-5.475c-0.018-1.478,0.562-2.888,1.632-3.969
			C334.475,195.171,335.85,194.583,337.292,194.583 M337.292,192.493c-4.141,0-7.645,3.521-7.596,7.743
			c0.048,4.046,3.531,7.525,7.543,7.539c0.01,0,0.018,0,0.027,0c3.898,0,7.544-3.535,7.665-7.443
			c0.124-4.005-3.206-7.607-7.238-7.828C337.559,192.497,337.426,192.493,337.292,192.493L337.292,192.493z"/>
		<path d="M358.216,194.563L358.216,194.563l0.13,0.001c2.813,0.076,5.549,2.805,5.523,5.511c-0.026,2.788-2.892,5.628-5.679,5.628
			c-0.099,0-0.198-0.002-0.299-0.011c-2.937-0.218-5.309-2.88-5.176-5.812C352.848,197,355.367,194.563,358.216,194.563
			 M358.216,192.474c-3.942,0-7.405,3.317-7.588,7.313c-0.182,4.038,3.069,7.691,7.109,7.99c0.151,0.011,0.302,0.017,0.453,0.017
			c3.917,0,7.731-3.712,7.768-7.7c0.037-3.855-3.591-7.512-7.557-7.618C358.339,192.476,358.278,192.474,358.216,192.474
			L358.216,192.474z"/>
		<g>
			<path fill-rule="evenodd" clip-rule="evenodd" d="M198.106,311.102c-3.219-0.014-6.544-3.32-6.589-6.553
				c-0.024-1.676,0.654-3.301,1.909-4.573c1.291-1.309,3.043-2.061,4.808-2.061l0.269,0.006c3.386,0.144,6.376,3.337,6.274,6.701
				c-0.095,3.149-3.514,6.479-6.653,6.479H198.106z"/>
			<path d="M198.236,298.961L198.236,298.961c0.074,0,0.148,0.001,0.225,0.005c2.794,0.117,5.356,2.851,5.272,5.625
				c-0.078,2.605-3.012,5.466-5.622,5.466c-2.659-0.011-5.511-2.85-5.548-5.522c-0.021-1.395,0.551-2.752,1.607-3.824
				C195.266,299.599,196.748,298.961,198.236,298.961 M198.235,296.871c-4.194,0-7.821,3.555-7.762,7.693
				c0.053,3.806,3.836,7.565,7.628,7.583c0.008,0,0.016,0,0.024,0c3.709,0,7.584-3.769,7.697-7.493
				c0.119-3.94-3.314-7.609-7.274-7.776C198.442,296.874,198.339,296.871,198.235,296.871L198.235,296.871z"/>
		</g>
		<path d="M337.287,298.922L337.287,298.922c0.07,0,0.143,0.001,0.215,0.004c2.895,0.115,5.397,2.727,5.357,5.59
			c-0.04,2.763-2.772,5.486-5.541,5.501c-1.413,0-2.847-0.664-3.933-1.821c-1.104-1.175-1.686-2.681-1.596-4.127
			C331.966,301.23,334.433,298.922,337.287,298.922 M337.286,296.832c-3.955,0-7.334,3.134-7.582,7.106
			c-0.263,4.22,3.422,8.167,7.613,8.167c0.011,0,0.023,0,0.035,0c3.889-0.02,7.54-3.654,7.596-7.562
			c0.057-3.99-3.338-7.546-7.363-7.707C337.484,296.833,337.384,296.832,337.286,296.832L337.286,296.832z"/>
		<g>
			<path fill-rule="evenodd" clip-rule="evenodd" d="M358.199,311.039c-3.344-0.06-6.527-3.245-6.554-6.552
				c-0.012-1.681,0.675-3.307,1.935-4.576c1.274-1.285,2.992-2.022,4.711-2.022c0.118,0,0.234,0.004,0.351,0.011
				c3.536,0.201,6.402,3.275,6.261,6.711c-0.133,3.246-3.412,6.43-6.618,6.43L358.199,311.039z"/>
			<path d="M358.291,298.933L358.291,298.933c0.098,0,0.195,0.004,0.292,0.01c2.979,0.17,5.396,2.746,5.275,5.626
				c-0.11,2.688-2.922,5.426-5.641,5.426l0,0c-2.769-0.049-5.507-2.781-5.528-5.515c-0.011-1.4,0.569-2.761,1.631-3.831
				C355.401,299.559,356.848,298.933,358.291,298.933 M358.291,296.844c-4.122,0.001-7.722,3.53-7.691,7.651
				c0.03,3.884,3.663,7.518,7.58,7.589c0.035,0,0.069,0.001,0.105,0.001c3.751,0,7.504-3.626,7.661-7.431
				c0.165-3.995-3.151-7.564-7.244-7.799C358.565,296.849,358.427,296.844,358.291,296.844L358.291,296.844z"/>
		</g>
		<path d="M316.371,298.954L316.371,298.954c0.105,0,0.209,0.003,0.314,0.008c2.851,0.148,5.336,2.839,5.213,5.645
			c-0.12,2.761-2.828,5.373-5.57,5.373l-0.075-0.002c-1.467-0.027-2.899-0.695-3.929-1.83c-1.051-1.159-1.585-2.692-1.465-4.208
			C311.084,301.098,313.455,298.954,316.371,298.954 M316.371,296.865c-3.988,0-7.282,2.96-7.595,6.91
			c-0.344,4.345,3.124,8.211,7.438,8.293c0.038,0,0.076,0.001,0.115,0.001c3.835,0,7.488-3.498,7.658-7.372
			c0.174-3.964-3.182-7.612-7.192-7.822C316.652,296.869,316.511,296.865,316.371,296.865L316.371,296.865z"/>
		<path d="M316.381,90.213L316.381,90.213l0.132,0.001c2.703,0.078,5.434,2.92,5.412,5.632c-0.025,2.788-2.7,5.479-5.505,5.536
			l-0.101,0c-1.42,0-2.838-0.634-3.892-1.739c-1.081-1.136-1.66-2.639-1.587-4.126C310.973,92.742,313.615,90.213,316.381,90.213
			 M316.381,88.123c-3.871,0-7.44,3.389-7.629,7.294c-0.208,4.276,3.361,8.056,7.566,8.056c0.048,0,0.095,0,0.143-0.001
			c3.912-0.081,7.519-3.712,7.552-7.607c0.033-3.87-3.58-7.628-7.441-7.739C316.509,88.124,316.445,88.123,316.381,88.123
			L316.381,88.123z"/>
		<g>
			<path fill-rule="evenodd" clip-rule="evenodd" d="M198.151,102.389c-3.317,0-6.328-2.817-6.574-6.151
				c-0.124-1.67,0.547-3.427,1.839-4.819c1.31-1.411,3.04-2.219,4.747-2.219c3.335,0.017,6.524,3.175,6.589,6.5
				c0.068,3.402-2.888,6.524-6.324,6.684L198.151,102.389z"/>
			<path d="M198.163,88.154l0.022,2.089c2.784,0.015,5.468,2.675,5.522,5.477c0.056,2.809-2.483,5.487-5.328,5.618
				c-0.077,0.004-0.153,0.005-0.229,0.005c-2.791,0-5.324-2.373-5.532-5.184c-0.102-1.381,0.468-2.85,1.564-4.031
				c1.112-1.198,2.563-1.885,3.98-1.885V88.154 M198.163,88.154c-4.165,0-7.935,4.028-7.628,8.16
				c0.29,3.926,3.745,7.119,7.616,7.119c0.108,0,0.217-0.002,0.326-0.007c3.998-0.185,7.398-3.785,7.32-7.748
				c-0.076-3.919-3.699-7.505-7.6-7.524C198.186,88.154,198.174,88.154,198.163,88.154L198.163,88.154z"/>
		</g>
		<path d="M337.28,88.142l0.036,2.09c2.804,0.022,5.499,2.677,5.547,5.46c0.047,2.8-2.542,5.556-5.33,5.672
			c-0.065,0.002-0.129,0.003-0.194,0.003c-2.747,0-5.396-2.472-5.559-5.186c-0.087-1.463,0.497-2.976,1.604-4.151
			c1.076-1.143,2.497-1.798,3.896-1.798V88.142 M337.28,88.142c-4.178,0-7.839,3.932-7.585,8.165
			c0.231,3.858,3.787,7.151,7.644,7.151c0.093,0,0.188-0.002,0.281-0.006c3.923-0.163,7.399-3.859,7.333-7.794
			c-0.066-3.906-3.693-7.483-7.62-7.515C337.315,88.142,337.297,88.142,337.28,88.142L337.28,88.142z"/>
		<g>
			<path fill-rule="evenodd" clip-rule="evenodd" d="M358.203,102.406c-1.727-0.015-3.443-0.817-4.712-2.2
				c-1.273-1.389-1.925-3.179-1.789-4.912c0.257-3.297,3.259-6.082,6.556-6.082c0.12,0,0.24,0.004,0.36,0.012
				c3.412,0.213,6.391,3.449,6.251,6.789c-0.147,3.466-3.176,6.393-6.615,6.393H358.203z"/>
			<path d="M358.257,90.257L358.257,90.257c0.098,0,0.196,0.003,0.295,0.01c2.826,0.177,5.388,2.948,5.271,5.702
				c-0.121,2.873-2.724,5.392-5.612,5.392c-1.437-0.013-2.877-0.69-3.949-1.861c-1.08-1.177-1.633-2.679-1.52-4.125
				C352.957,92.649,355.533,90.258,358.257,90.257 M358.257,88.168c-3.813,0-7.295,3.181-7.597,7.045
				c-0.332,4.23,3.3,8.201,7.534,8.237c0.02,0,0.039,0,0.06,0c3.976,0,7.49-3.385,7.659-7.393c0.165-3.912-3.245-7.626-7.229-7.876
				C358.541,88.173,358.399,88.168,358.257,88.168L358.257,88.168z"/>
		</g>
		<g>
			<path fill-rule="evenodd" clip-rule="evenodd" d="M316.363,154.391c-3.628,0-6.387-2.58-6.558-6.134
				c-0.085-1.787,0.527-3.464,1.725-4.722c1.231-1.291,2.936-2.002,4.802-2.002l0.148,0.001c3.576,0.071,6.471,2.948,6.454,6.412
				c-0.018,3.55-2.846,6.38-6.438,6.444L316.363,154.391z"/>
			<path d="M316.332,142.578L316.332,142.578l0.126,0c3.009,0.061,5.445,2.466,5.431,5.363c-0.015,2.977-2.392,5.35-5.412,5.403
				l-0.114,0.001c-3.051,0-5.371-2.162-5.515-5.14c-0.072-1.499,0.438-2.902,1.438-3.952
				C313.317,143.173,314.755,142.578,316.332,142.578 M316.332,140.489c-4.398,0-7.78,3.471-7.57,7.818
				c0.198,4.094,3.449,7.129,7.602,7.129c0.05,0,0.101-0.001,0.151-0.001c4.139-0.074,7.444-3.386,7.465-7.483
				c0.02-4.018-3.348-7.379-7.478-7.462C316.445,140.489,316.389,140.489,316.332,140.489L316.332,140.489z"/>
		</g>
		<g>
			<path fill-rule="evenodd" clip-rule="evenodd" d="M337.087,154.326c-3.711-0.104-6.378-2.801-6.34-6.414
				c0.038-3.628,2.859-6.364,6.564-6.364c0.163,0,0.328,0.006,0.494,0.016c3.505,0.231,6.301,3.318,6.103,6.741
				c-0.199,3.434-3.043,6.024-6.614,6.024L337.087,154.326z"/>
			<path d="M337.311,142.592L337.311,142.592c0.14,0,0.282,0.005,0.424,0.014c2.946,0.194,5.294,2.775,5.129,5.638
				c-0.167,2.873-2.563,5.04-5.571,5.04l-0.176-0.002c-3.118-0.087-5.357-2.341-5.325-5.359
				C331.823,144.884,334.197,142.592,337.311,142.592 M337.311,140.503c-4.233,0-7.564,3.184-7.608,7.398
				c-0.044,4.176,3.082,7.349,7.356,7.469c0.078,0.002,0.156,0.003,0.234,0.003c4.094,0,7.426-3.028,7.657-7.009
				c0.232-4.021-2.973-7.574-7.078-7.844C337.684,140.509,337.496,140.503,337.311,140.503L337.311,140.503z"/>
		</g>
		<path d="M358.217,142.488c1.479,0,2.947,0.635,4.028,1.743c1.06,1.084,1.626,2.464,1.592,3.884
			c-0.066,2.834-2.644,5.231-5.632,5.233c-2.97,0-5.434-2.389-5.491-5.324c-0.057-2.896,2.376-5.428,5.314-5.533L358.217,142.488
			 M358.217,140.399c-0.086,0-0.175,0.001-0.262,0.004c-4.062,0.144-7.408,3.642-7.33,7.662c0.081,4.062,3.485,7.373,7.581,7.373
			c0.001,0,0.003,0,0.005,0c4.125-0.002,7.623-3.3,7.716-7.274C366.025,143.987,362.425,140.399,358.217,140.399L358.217,140.399z"
			/>
		<g>
			<path fill-rule="evenodd" clip-rule="evenodd" d="M198.227,154.361c-3.7,0-6.619-2.806-6.645-6.388
				c-0.023-3.488,2.799-6.295,6.429-6.393l0.193-0.002c3.557,0,6.368,2.61,6.541,6.073c0.17,3.433-2.623,6.501-6.1,6.7
				C198.504,154.358,198.365,154.361,198.227,154.361z"/>
			<path d="M198.205,142.623c2.989,0,5.352,2.184,5.496,5.08c0.143,2.871-2.2,5.438-5.116,5.604c-0.12,0.007-0.239,0.01-0.357,0.01
				c-3.119,0-5.578-2.351-5.599-5.351c-0.021-2.914,2.356-5.26,5.411-5.342L198.205,142.623 M198.204,140.533
				c-0.073,0-0.147,0-0.22,0.002c-4.209,0.113-7.474,3.379-7.446,7.445c0.03,4.17,3.454,7.425,7.689,7.425
				c0.158,0,0.317-0.004,0.477-0.014c4.063-0.232,7.283-3.776,7.083-7.793C205.588,143.584,202.29,140.532,198.204,140.533
				L198.204,140.533z"/>
		</g>
	</g>
	<g>
		<g>
			<g>
				<path d="M683.258,148.685c-1.565,0-2.834-1.269-2.834-2.834V94.262h-53.688v51.589c0,1.565-1.269,2.834-2.834,2.834h-15.527
					c-1.565,0-2.834-1.269-2.834-2.834V28.108c0-1.565,1.269-2.834,2.834-2.834h15.527c1.565,0,2.834,1.269,2.834,2.834v47.789
					h53.688V28.108c0-1.565,1.269-2.834,2.834-2.834h15.607c1.565,0,2.834,1.269,2.834,2.834v117.743
					c0,1.565-1.269,2.834-2.834,2.834H683.258z"/>
			</g>
			<g>
				<path d="M725.39,148.685c-1.565,0-2.834-1.269-2.834-2.834V58.353c0-1.565,1.269-2.834,2.834-2.834h14.96
					c1.565,0,2.834,1.269,2.834,2.834v87.498c0,1.565-1.269,2.834-2.834,2.834H725.39z M732.992,46.469
					c-3.725,0-6.646-1.125-8.68-3.346c-1.97-2.148-2.969-4.833-2.969-7.98c0-3.129,0.988-5.83,2.938-8.027
					c2.038-2.296,4.968-3.46,8.71-3.46c3.73,0,6.669,1.157,8.734,3.439c1.989,2.205,2.996,4.912,2.996,8.048
					c0,3.154-1.018,5.845-3.025,7.998C739.633,45.351,736.705,46.469,732.992,46.469z"/>
			</g>
			<g>
				<path d="M797.524,183.135c-6.68,0-13.299-1.443-19.675-4.29c-6.499-2.902-11.552-6.965-15.018-12.076
					c-0.72-1.062-0.638-2.475,0.202-3.446l7.763-8.976c0.539-0.624,1.322-0.98,2.144-0.98c0.015,0,0.031,0,0.046,0
					c0.839,0.014,1.629,0.398,2.157,1.051c5.903,7.292,12.88,10.836,21.329,10.836c6.552,0,11.462-1.737,15.013-5.309
					c3.553-3.578,5.281-8.585,5.281-15.308v-0.995c-5.859,4.424-13.119,6.66-21.668,6.66c-11.124,0-20.246-4.535-27.115-13.48
					c-6.694-8.715-10.088-20.642-10.088-35.449c0-14.224,3.386-25.763,10.063-34.296c6.844-8.744,16.029-13.177,27.301-13.177
					c9.05,0,16.636,2.568,22.633,7.647l0.256-3.407c0.111-1.479,1.343-2.623,2.827-2.623h13.667c1.565,0,2.834,1.269,2.834,2.834
					v85.396c0,12.063-3.677,21.753-10.928,28.799C819.322,179.573,809.556,183.135,797.524,183.135z M798.98,72.266
					c-6.373,0-11.204,2.394-14.767,7.318c-3.721,5.14-5.608,13.043-5.608,23.488c0,9.215,1.862,16.48,5.534,21.596
					c3.51,4.891,8.312,7.269,14.679,7.269c8.14,0,14.018-3.511,17.949-10.729V82.708C812.697,75.684,806.872,72.266,798.98,72.266z"
					/>
			</g>
			<g>
				<path d="M911.062,148.685c-1.565,0-2.834-1.269-2.834-2.834V87.95c-0.046-5.518-1.244-9.581-3.56-12.051
					c-2.26-2.41-6.013-3.632-11.154-3.632c-4.293,0-7.937,1.1-11.141,3.362c-3.088,2.179-5.566,5.051-7.373,8.545v61.677
					c0,1.565-1.269,2.834-2.834,2.834h-14.961c-1.565,0-2.834-1.269-2.834-2.834V21.639c0-1.565,1.269-2.834,2.834-2.834h14.961
					c1.565,0,2.834,1.269,2.834,2.834v40.364c6.367-5.381,14.09-8.102,23.043-8.102c13.937,0,30.596,5.917,30.815,34.108v57.842
					c0,1.565-1.27,2.834-2.835,2.834H911.062z"/>
			</g>
			<g>
				<path d="M991.768,148.685c-1.565,0-2.835-1.269-2.835-2.834V28.108c0-1.565,1.27-2.834,2.835-2.834h43.426
					c13.547,0,24.375,3.564,32.182,10.594c7.895,7.108,11.897,16.605,11.897,28.227c0,12.235-3.936,21.84-11.696,28.548
					c-7.643,6.602-18.592,9.949-32.545,9.949h-24.902v43.26c0,1.565-1.27,2.834-2.835,2.834H991.768z M1035.194,84.226
					c7.55,0,13.338-1.736,17.204-5.161c3.821-3.381,5.678-8.238,5.678-14.85c0-6.27-1.882-11.109-5.753-14.796
					c-3.928-3.741-9.259-5.632-16.299-5.781l-25.895,0v40.588H1035.194z"/>
			</g>
			<g>
				<path d="M1129.163,150.303c-12.61,0-23.04-4.226-31-12.562c-7.926-8.3-11.945-19.475-11.945-33.213v-2.749
					c0-9.069,1.77-17.309,5.26-24.489c3.529-7.259,8.549-13.03,14.918-17.152c6.396-4.138,13.43-6.236,20.908-6.236
					c12.199,0,21.853,4.121,28.692,12.25c6.722,7.984,10.13,19.428,10.13,34.011v6.227c0,1.565-1.27,2.834-2.835,2.834h-56.27
					c0.632,6.569,2.864,11.996,6.652,16.162c4.301,4.736,9.633,7.038,16.3,7.038c4.745,0,8.778-0.957,11.985-2.843
					c3.337-1.961,6.303-4.606,8.816-7.861c0.461-0.596,1.14-0.985,1.888-1.079c0.118-0.015,0.237-0.022,0.355-0.022
					c0.628,0,1.241,0.208,1.741,0.598l9.139,7.116c1.162,0.904,1.438,2.548,0.635,3.782
					C1156.68,144.183,1144.78,150.303,1129.163,150.303z M1145.355,91.261c-0.597-6.027-2.377-10.764-5.303-14.097
					c-3.131-3.568-7.302-5.303-12.749-5.303c-5.266,0-9.56,1.861-13.128,5.689c-3.11,3.335-5.245,7.938-6.364,13.711H1145.355z"/>
			</g>
			<g>
				<path d="M1180.595,148.685c-1.565,0-2.835-1.269-2.835-2.834V58.353c0-1.565,1.27-2.834,2.835-2.834h14.557
					c1.539,0,2.797,1.228,2.834,2.767l0.059,2.467c4.878-4.553,10.976-6.852,18.212-6.852c3.391,0,5.974,0.468,7.899,1.431
					c0.96,0.48,1.566,1.462,1.566,2.535v13.909c0,0.833-0.367,1.624-1.002,2.163c-0.517,0.437-1.167,0.672-1.833,0.672
					c-0.154,0-0.311-0.013-0.465-0.038c-2.104-0.35-4.424-0.528-6.893-0.528c-8.43,0-14.043,3.367-17.14,10.287v61.519
					c0,1.565-1.27,2.834-2.835,2.834H1180.595z"/>
			</g>
			<g>
				<path d="M1245.209,148.685c-1.565,0-2.835-1.269-2.835-2.834v-73.1h-10.995c-1.565,0-2.835-1.269-2.835-2.834V58.353
					c0-1.565,1.27-2.834,2.835-2.834h10.995v-6.142c0-10.104,2.803-18.09,8.329-23.736c5.543-5.663,13.381-8.534,23.293-8.534
					c3.681,0,7.383,0.492,11.004,1.462c1.308,0.351,2.186,1.577,2.095,2.928l-0.809,12.058c-0.054,0.81-0.453,1.558-1.096,2.054
					c-0.5,0.386-1.11,0.591-1.732,0.591c-0.178,0-0.355-0.017-0.532-0.05c-2.348-0.449-4.89-0.677-7.555-0.677
					c-4.065,0-7.063,1.098-9.163,3.355c-2.127,2.284-3.204,5.742-3.204,10.277v6.414h15.846c1.565,0,2.835,1.269,2.835,2.834v11.564
					c0,1.565-1.27,2.834-2.835,2.834h-15.846v73.1c0,1.565-1.27,2.834-2.835,2.834H1245.209z"/>
			</g>
			<g>
				<path d="M1331.251,150.303c-12.647,0-23.059-4.481-30.944-13.319c-7.803-8.746-11.759-20.4-11.759-34.639v-1.052
					c0-8.969,1.799-17.171,5.348-24.38c3.591-7.299,8.679-13.022,15.122-17.009c6.437-3.983,13.862-6.003,22.07-6.003
					c12.703,0,23.142,4.481,31.027,13.32c7.802,8.744,11.758,20.452,11.758,34.8v1.052c0,8.905-1.74,17.033-5.173,24.156
					c-3.483,7.227-8.546,12.942-15.048,16.986C1347.163,148.254,1339.625,150.303,1331.251,150.303z M1331.088,71.861
					c-6.516,0-11.627,2.522-15.626,7.71c-4.115,5.342-6.201,13.249-6.201,23.501c0,9.023,2.074,16.306,6.165,21.646
					c3.971,5.183,9.147,7.703,15.825,7.703c6.721,0,11.905-2.553,15.849-7.803c4.076-5.428,6.143-13.276,6.143-23.326
					c0-8.914-2.103-16.184-6.25-21.608C1342.966,74.421,1337.763,71.861,1331.088,71.861z"/>
			</g>
			<g>
				<path d="M1389.799,148.685c-1.565,0-2.835-1.269-2.835-2.834V58.353c0-1.565,1.27-2.834,2.835-2.834h14.557
					c1.539,0,2.797,1.228,2.834,2.767l0.059,2.468c4.878-4.553,10.978-6.852,18.215-6.852c3.389,0,5.972,0.468,7.897,1.431
					c0.96,0.48,1.567,1.461,1.567,2.535v13.909c0,0.833-0.367,1.624-1.002,2.163c-0.516,0.437-1.167,0.672-1.833,0.672
					c-0.154,0-0.31-0.013-0.465-0.038c-2.105-0.35-4.426-0.528-6.895-0.528c-8.431,0-14.043,3.366-17.139,10.287v61.519
					c0,1.565-1.27,2.834-2.835,2.834H1389.799z"/>
			</g>
			<g>
				<path d="M1553.474,148.685c-1.565,0-2.835-1.269-2.835-2.834V88.112c0-5.49-1.189-9.564-3.535-12.109
					c-2.286-2.479-6.428-3.736-12.31-3.736c-4.871,0-8.772,1.387-11.928,4.241c-3.128,2.831-4.913,6.573-5.453,11.434v57.91
					c0,1.565-1.27,2.834-2.835,2.834h-15.044c-1.565,0-2.835-1.269-2.835-2.834V88.517c0-11.086-5.034-16.25-15.845-16.25
					c-8.439,0-14.104,3.372-17.299,10.302v63.282c0,1.565-1.27,2.834-2.835,2.834h-14.963c-1.565,0-2.835-1.269-2.835-2.834V58.353
					c0-1.565,1.27-2.834,2.835-2.834h14.154c1.52,0,2.77,1.198,2.832,2.717l0.14,3.353c6.31-5.105,14.15-7.687,23.391-7.687
					c11.607,0,20.123,3.978,25.38,11.84c2.693-3.008,5.906-5.556,9.595-7.602c5.064-2.812,11.091-4.238,17.912-4.238
					c20.658,0,31.762,11.507,32.109,33.276l0.001,58.673c0,1.565-1.27,2.834-2.835,2.834H1553.474z"/>
			</g>
			<g>
				<path d="M1618.006,150.303c-9.3,0-17.072-2.701-23.102-8.029c-6.136-5.416-9.248-12.375-9.248-20.683
					c0-10.025,3.89-17.938,11.56-23.52c7.388-5.377,17.784-8.104,30.9-8.104h11.722v-4.039c0-4.481-1.261-7.909-3.854-10.481
					c-2.563-2.54-6.543-3.828-11.831-3.828c-4.688,0-8.635,1.171-11.729,3.48c-2.879,2.149-4.278,4.607-4.278,7.513
					c0,1.565-1.27,2.834-2.835,2.834h-15.039c-1.565,0-2.835-1.269-2.835-2.834c0-4.985,1.76-9.821,5.229-14.373
					c3.372-4.431,7.986-7.976,13.713-10.534c5.651-2.525,11.931-3.805,18.664-3.805c10.745,0,19.348,2.782,25.568,8.27
					c6.306,5.562,9.621,13.259,9.855,22.88l0.001,40.341c0,7.612,0.956,13.681,2.841,18.04c0.153,0.355,0.233,0.738,0.233,1.125
					v1.293c0,1.565-1.27,2.834-2.835,2.834h-15.69c-1.073,0-2.055-0.606-2.535-1.565c-0.588-1.174-1.096-2.777-1.533-4.845
					C1634.315,147.606,1626.62,150.303,1618.006,150.303z M1630.946,106.23c-24.66,0-24.66,9.979-24.66,13.257
					c0,3.85,1.205,6.739,3.686,8.832c2.623,2.218,5.966,3.295,10.22,3.295c4.166,0,8.178-1.097,11.926-3.26
					c3.528-2.036,6.06-4.554,7.722-7.686V106.23H1630.946z"/>
			</g>
			<g>
				<path d="M1716.182,150.303c-12.707,0-22.984-4.334-30.549-12.884c-7.475-8.448-11.265-20.059-11.265-34.509v-2.506
					c0-8.899,1.669-16.951,4.96-23.933c3.347-7.097,8.233-12.695,14.522-16.638c6.282-3.936,13.768-5.932,22.25-5.932
					c10.489,0,19.359,3.212,26.362,9.547c7.049,6.376,10.858,14.74,11.322,24.857c0.035,0.773-0.247,1.528-0.782,2.088
					s-1.275,0.876-2.05,0.876h-14.149c-1.481,0-2.714-1.141-2.826-2.619c-0.381-4.978-2.196-8.938-5.55-12.104
					c-3.342-3.152-7.374-4.685-12.327-4.685c-6.729,0-11.772,2.321-15.416,7.094c-3.773,4.941-5.687,12.348-5.687,22.015v2.83
					c0,9.401,1.899,16.659,5.646,21.571c3.617,4.745,8.699,7.052,15.538,7.052c4.711,0,8.703-1.38,12.204-4.219
					c3.399-2.756,5.229-6.086,5.595-10.18c0.13-1.462,1.355-2.583,2.823-2.583h14.149c0.778,0,1.522,0.32,2.058,0.885
					s0.814,1.325,0.772,2.102c-0.297,5.53-2.21,10.843-5.687,15.791c-3.436,4.892-8.069,8.84-13.772,11.735
					C1728.638,148.839,1722.535,150.303,1716.182,150.303z"/>
			</g>
			<g>
				<path d="M1804.083,150.303c-12.611,0-23.041-4.227-30.998-12.563c-7.927-8.297-11.946-19.472-11.946-33.213v-2.749
					c0-9.069,1.77-17.309,5.26-24.489c3.528-7.258,8.547-13.029,14.918-17.152c6.395-4.138,13.429-6.236,20.908-6.236
					c12.198,0,21.852,4.121,28.693,12.25c6.721,7.985,10.129,19.428,10.129,34.011v6.227c0,1.565-1.27,2.834-2.835,2.834h-56.271
					c0.635,6.57,2.866,11.998,6.652,16.162c4.301,4.736,9.633,7.038,16.3,7.038c4.746,0,8.779-0.957,11.989-2.844
					c3.332-1.96,6.298-4.605,8.816-7.861c0.461-0.596,1.14-0.984,1.888-1.079c0.118-0.015,0.236-0.022,0.354-0.022
					c0.628,0,1.241,0.208,1.742,0.598l9.137,7.116c1.161,0.905,1.437,2.548,0.634,3.782
					C1831.601,144.183,1819.701,150.303,1804.083,150.303z M1820.276,91.261c-0.597-6.027-2.377-10.763-5.303-14.097
					c-3.131-3.568-7.302-5.303-12.749-5.303c-5.266,0-9.561,1.861-13.129,5.689c-3.111,3.335-5.245,7.938-6.364,13.711H1820.276z"/>
			</g>
			<g>
				<path d="M650.345,349.043c-14.722,0-26.703-5.374-35.608-15.972c-8.785-10.45-13.24-24.532-13.24-41.854v-11.321
					c0-11.315,2.063-21.436,6.133-30.077c4.126-8.767,10.078-15.605,17.688-20.326c7.593-4.71,16.476-7.098,26.401-7.098
					c13.184,0,23.953,3.777,32.007,11.228c8.035,7.433,12.771,17.791,14.077,30.788c0.08,0.797-0.181,1.591-0.718,2.185
					c-0.537,0.595-1.301,0.934-2.102,0.934h-15.607c-1.41,0-2.606-1.037-2.806-2.433c-1.248-8.712-3.908-15.028-7.906-18.774
					c-3.939-3.69-9.64-5.562-16.944-5.562c-9.073,0-15.969,3.238-21.082,9.899c-5.219,6.799-7.865,16.756-7.865,29.596v11.413
					c0,12.131,2.519,21.847,7.486,28.877c4.817,6.818,11.388,10.132,20.085,10.132c7.896,0,13.958-1.746,18.02-5.19
					c4.054-3.438,6.816-9.727,8.211-18.692c0.215-1.381,1.403-2.399,2.801-2.399h15.607c0.809,0,1.58,0.346,2.118,0.95
					c0.538,0.604,0.792,1.41,0.698,2.214c-1.533,13.117-6.492,23.424-14.738,30.633
					C674.833,345.392,663.826,349.043,650.345,349.043z"/>
			</g>
			<g>
				<path d="M749.731,349.043c-12.648,0-23.059-4.481-30.945-13.32c-7.802-8.744-11.758-20.398-11.758-34.639v-1.052
					c0-8.969,1.798-17.171,5.346-24.38c3.591-7.299,8.679-13.021,15.123-17.008c6.438-3.984,13.864-6.005,22.072-6.005
					c12.702,0,23.14,4.482,31.025,13.322c7.802,8.743,11.758,20.451,11.758,34.798v1.053c0,8.907-1.741,17.035-5.174,24.157
					c-3.485,7.229-8.547,12.943-15.046,16.984C765.644,346.994,758.106,349.043,749.731,349.043z M749.569,270.602
					c-6.516,0-11.627,2.522-15.626,7.711c-4.116,5.341-6.204,13.247-6.204,23.5c0,9.022,2.075,16.306,6.168,21.647
					c3.971,5.183,9.147,7.702,15.824,7.702c6.72,0,11.904-2.552,15.848-7.803c4.077-5.429,6.145-13.277,6.145-23.327
					c0-8.913-2.103-16.184-6.251-21.608C761.446,273.16,756.244,270.602,749.569,270.602z"/>
			</g>
			<g>
				<path d="M915.915,347.427c-1.565,0-2.834-1.27-2.834-2.835v-57.739c0-5.49-1.19-9.565-3.536-12.111
					c-2.287-2.479-6.429-3.735-12.31-3.735c-4.871,0-8.772,1.387-11.927,4.241c-3.128,2.829-4.914,6.57-5.456,11.434v57.911
					c0,1.565-1.269,2.835-2.834,2.835h-15.041c-1.565,0-2.834-1.27-2.834-2.835v-57.335c0-11.087-5.035-16.251-15.846-16.251
					c-8.442,0-14.108,3.372-17.301,10.304v63.282c0,1.565-1.269,2.835-2.834,2.835h-14.961c-1.565,0-2.834-1.27-2.834-2.835v-87.5
					c0-1.565,1.269-2.835,2.834-2.835h14.151c1.52,0,2.769,1.198,2.832,2.717l0.14,3.354c6.311-5.106,14.151-7.688,23.391-7.688
					c11.607,0,20.123,3.979,25.38,11.841c2.693-3.008,5.906-5.556,9.595-7.603c5.064-2.812,11.091-4.238,17.914-4.238
					c20.658,0,31.762,11.508,32.108,33.278l0.001,58.674c0,1.565-1.27,2.835-2.835,2.835H915.915z"/>
			</g>
			<g>
				<path d="M953.438,381.066c-1.565,0-2.835-1.27-2.835-2.835v-121.14c0-1.565,1.27-2.835,2.835-2.835h13.667
					c1.483,0,2.716,1.144,2.827,2.623l0.259,3.465c6.103-5.118,13.822-7.705,23.034-7.705c11.387,0,20.535,4.371,27.19,12.99
					c6.482,8.398,9.77,20.109,9.77,34.807v1.376c0,13.88-3.265,25.279-9.702,33.883c-6.629,8.856-15.719,13.348-27.017,13.348
					c-8.798,0-16.247-2.21-22.232-6.582v35.771c0,1.565-1.27,2.835-2.835,2.835H953.438z M971.234,321.269
					c3.963,6.656,9.762,9.894,17.704,9.894c6.28,0,11.131-2.416,14.83-7.388c3.841-5.163,5.788-13.124,5.788-23.66
					c0-9.2-1.937-16.499-5.756-21.693c-3.674-4.989-8.589-7.415-15.023-7.415c-7.788,0-13.534,3.265-17.543,9.978V321.269z"/>
			</g>
			<g>
				<path d="M1074.74,349.043c-10.118,0-17.996-3.05-23.415-9.064c-5.337-5.925-8.071-14.652-8.128-25.941v-56.945
					c0-1.565,1.27-2.835,2.835-2.835h14.96c1.565,0,2.835,1.27,2.835,2.835v56.527c0,15.291,7.612,17.059,13.338,17.059
					c10.049,0,16.589-3.456,19.971-10.562v-63.024c0-1.565,1.27-2.835,2.835-2.835h14.961c1.565,0,2.835,1.27,2.835,2.835v87.5
					c0,1.565-1.27,2.835-2.835,2.835h-14.233c-1.524,0-2.775-1.206-2.833-2.729l-0.09-2.424
					C1091.816,346.77,1084.097,349.043,1074.74,349.043z"/>
			</g>
			<g>
				<path d="M1163.209,349.043c-7.531,0-13.35-2.382-17.294-7.077c-3.821-4.549-5.759-10.957-5.759-19.048v-51.427h-13.097
					c-1.565,0-2.835-1.27-2.835-2.835v-11.564c0-1.565,1.27-2.835,2.835-2.835h13.097v-18.351c0-1.565,1.27-2.834,2.835-2.834h14.96
					c1.565,0,2.835,1.269,2.835,2.834v18.351h13.501c1.565,0,2.835,1.27,2.835,2.835v11.564c0,1.565-1.27,2.835-2.835,2.835h-13.501
					v51.494c0,2.815,0.515,4.862,1.529,6.084c0.886,1.068,2.654,1.608,5.259,1.608c1.516,0,3.71-0.306,6.523-0.908
					c0.196-0.042,0.396-0.063,0.594-0.063c0.643,0,1.273,0.219,1.782,0.631c0.666,0.538,1.053,1.348,1.053,2.204v12.06
					c0,1.278-0.856,2.399-2.09,2.735C1171.279,348.469,1167.165,349.043,1163.209,349.043z"/>
			</g>
			<g>
				<path d="M1193.049,347.427c-1.565,0-2.835-1.27-2.835-2.835v-87.5c0-1.565,1.27-2.835,2.835-2.835h14.961
					c1.565,0,2.835,1.27,2.835,2.835v87.5c0,1.565-1.27,2.835-2.835,2.835H1193.049z M1200.651,245.209
					c-3.728,0-6.648-1.126-8.682-3.346c-1.969-2.145-2.968-4.83-2.968-7.979c0-3.13,0.988-5.832,2.938-8.028
					c2.038-2.297,4.969-3.461,8.712-3.461c3.729,0,6.668,1.157,8.733,3.44c1.989,2.203,2.996,4.91,2.996,8.048
					c0,3.157-1.019,5.848-3.025,7.999C1207.292,244.09,1204.365,245.209,1200.651,245.209z"/>
			</g>
			<g>
				<path d="M1285.803,347.427c-1.565,0-2.835-1.27-2.835-2.835v-57.902c-0.046-5.519-1.243-9.581-3.559-12.051
					c-2.26-2.411-6.014-3.633-11.155-3.633c-4.292,0-7.936,1.1-11.141,3.362c-3.089,2.18-5.566,5.052-7.372,8.545v61.679
					c0,1.565-1.27,2.835-2.835,2.835h-14.96c-1.565,0-2.835-1.27-2.835-2.835v-87.5c0-1.565,1.27-2.835,2.835-2.835h14.152
					c1.518,0,2.766,1.195,2.832,2.711l0.189,4.316c6.489-5.742,14.421-8.645,23.663-8.645c13.938,0,30.598,5.918,30.814,34.109
					v57.843c0,1.565-1.27,2.835-2.835,2.835H1285.803z"/>
			</g>
			<g>
				<path d="M1356.563,381.876c-6.678,0-13.297-1.443-19.673-4.29c-6.502-2.903-11.556-6.966-15.021-12.076
					c-0.721-1.062-0.638-2.475,0.201-3.445l7.764-8.978c0.539-0.623,1.322-0.98,2.145-0.98c0.016,0,0.031,0,0.046,0.001
					c0.84,0.014,1.63,0.398,2.157,1.051c5.901,7.292,12.879,10.837,21.331,10.837c6.548,0,11.458-1.736,15.01-5.31
					c3.554-3.578,5.281-8.585,5.281-15.308v-0.996c-5.858,4.425-13.118,6.661-21.666,6.661c-11.124,0-20.247-4.536-27.115-13.48
					c-6.695-8.715-10.09-20.642-10.09-35.448c0-14.226,3.387-25.765,10.064-34.297c6.844-8.744,16.03-13.178,27.303-13.178
					c9.049,0,16.634,2.568,22.633,7.648l0.255-3.408c0.111-1.479,1.344-2.623,2.827-2.623h13.666c1.565,0,2.835,1.27,2.835,2.835
					v85.397c0,12.063-3.677,21.753-10.927,28.8C1378.362,378.313,1368.595,381.876,1356.563,381.876z M1358.02,271.006
					c-6.374,0-11.204,2.394-14.767,7.317c-3.722,5.14-5.608,13.043-5.608,23.489c0,9.216,1.861,16.481,5.533,21.596
					c3.51,4.893,8.312,7.27,14.679,7.27c8.14,0,14.018-3.511,17.947-10.728v-38.501
					C1371.737,274.423,1365.912,271.006,1358.02,271.006z"/>
			</g>
		</g>
	</g>
</g>
</svg>
