<?xml version="1.0" encoding="utf-8"?>
<!-- Generator: Adobe Illustrator 16.0.0, SVG Export Plug-In . SVG Version: 6.00 Build 0)  -->
<!DOCTYPE svg PUBLIC "-//W3C//DTD SVG 1.1//EN" "http://www.w3.org/Graphics/SVG/1.1/DTD/svg11.dtd">
<svg version="1.1" id="Capa_1" xmlns="http://www.w3.org/2000/svg" xmlns:xlink="http://www.w3.org/1999/xlink" x="0px" y="0px"
	 width="1842.511px" height="566.929px" viewBox="-10.092 0.71 1842.511 566.929"
	 enable-background="new -10.092 0.71 1842.511 566.929" xml:space="preserve">
<g>
	<g>
		<g>
			<path d="M507.118,433.763c-0.194-2.165-1.321-4.426-3.401-6.791c-2.07-2.358-4.999-4.67-8.773-6.938
				c-0.57-0.37-2.124-1.269-4.663-2.677c-2.544-1.418-4.573-2.644-6.091-3.687c-1.508-1.038-3.49-2.829-5.946-5.378
				c-2.45-2.545-4.385-5.239-5.803-8.071c-1.416-2.828-2.784-6.648-4.107-11.465c-1.324-4.814-2.07-10.146-2.265-15.998
				c-2.644,2.257-4.103,6.74-4.388,13.445c-0.285,6.701,1.135,13.539,4.25,20.523c3.111,6.986,7.784,11.509,14.012,13.591
				c6.037,2.081,10.897,4.293,14.583,6.651c3.675,2.363,6.04,5.048,7.079,8.067c1.039,3.027-0.713,6.281-5.239,9.77
				c-4.534,3.496-11.8,6.938-21.802,10.347c-13.777,4.713-23.548,8.728-29.308,12.026c-5.756,3.307-14.198,9.584-25.337,18.828
				c-7.554,6.229-15.574,9.584-24.072,10.057c-8.487,0.475-15.383-2.64-20.663-9.34c-5.288-6.699-6.991-16.181-5.102-28.456
				c3.587-23.594,3.499-41.998-0.274-55.209c-3.021-10.382-3.686-19.538-1.981-27.465c1.696-7.92,4.337-12.542,7.928-13.866
				c3.575-1.327,7.452,1.508,11.605,8.488c0.369,0.942,1.225,2.783,2.541,5.521c1.32,2.735,2.403,4.678,3.261,5.804
				c0.849,1.135,2.122,2.597,3.822,4.393c1.697,1.797,3.832,3.067,6.374,3.827c2.545,0.753,5.516,1.224,8.919,1.412
				c6.417,0.186,12.169-1.134,17.271-3.964c5.094-2.831,8.921-5.993,11.467-9.484c2.545-3.496,5.097-6.842,7.643-10.053
				c2.545-3.215,4.765-5.007,6.655-5.386c2.073-0.37,3.964-2.448,5.663-6.229c1.697-3.772,2.831-9.01,3.397-15.709
				c0.57-6.703,0.096-14.678-1.412-23.922c-2.833-16.429-8.452-34.453-16.85-54.082c-8.402-19.632-17.787-35.015-28.17-46.152
				c-18.687-19.817-31.232-40.391-37.657-61.721c-6.601-22.459-9.428-42.658-8.487-60.59c0.946-12.836-1.84-26.757-8.349-41.764
				c-6.51-15.006-15.149-26.473-25.908-34.399c-6.794-5.095-15.196-9.011-25.195-11.75c-10.004-2.739-20.011-4.009-30.015-3.823
				c-12.267,0-22.085,1.98-29.443,5.946c-15.1,8.118-25.101,17.979-30.012,29.588c-4.911,11.606-7.172,25.905-6.798,42.893
				c0.759,37.374,2.265,66.63,4.532,87.769c-2.645,9.816-14.344,28.217-35.11,55.209c-3.777,3.777-7.458,8.873-11.045,15.29
				c-3.585,6.419-6.417,12.178-8.492,17.27c-2.079,5.094-4.862,12.455-8.354,22.083c-3.493,9.624-5.992,16.423-7.502,20.384
				c-1.321,3.403-3.398,7.36-6.228,11.898c-2.832,4.526-5.102,8.966-6.796,13.3c-1.695,4.34-2.641,9.247-2.83,14.722
				c-0.188,4.153,0,7.741,0.567,10.759c0.752,4.536,2.171,5.948,4.246,4.251c8.497-6.418,19.162-2.644,31.995,11.329
				c9.06,9.814,25.011,32.654,47.85,68.52c1.887,3.207,3.773,6.65,5.66,10.341c1.893,3.676,3.68,8.578,5.381,14.714
				c1.699,6.143,2.409,11.658,2.124,16.568c-0.286,4.912-2.454,9.442-6.513,13.589c-4.059,4.151-10.147,6.791-18.262,7.924
				c-4.343,0.565-9.577,0.194-15.714-1.133c-6.135-1.321-13.921-3.49-23.358-6.51c-9.438-3.018-16.42-5.098-20.951-6.231
				c-6.602-1.513-15.993-3.438-28.169-5.803c-12.176-2.362-20.153-4.105-23.927-5.241c-6.418-1.696-9.908-4.146-10.474-7.36
				c-0.568-2.644,0.753-7.17,3.963-13.585c3.212-6.417,4.814-11.046,4.814-13.872c0.186-2.082,0.093-4.15-0.286-6.23
				c-0.375-2.076-0.8-3.683-1.272-4.815c-0.473-1.131-1.275-2.83-2.408-5.098c-1.134-2.265-1.888-3.967-2.265-5.094
				c-3.396-7.932-3.869-13.318-1.415-16.145c1.697-2.454,5.755-3.397,12.172-2.827c9.626,0.943,17.459-0.475,23.5-4.252
				c10.001-6.227,13.025-16.23,9.059-30.014c0,6.417-1.133,11.226-3.398,14.439c-2.265,3.207-6.231,6.513-11.892,9.913
				c-3.207,1.888-8.873,3.018-16.986,3.401c-8.114,0.377-13.497,1.7-16.139,3.964c-1.885,1.699-2.875,4.248-2.97,7.646
				c-0.094,3.405,0.334,6.843,1.276,10.337c0.942,3.492,1.887,7.5,2.83,12.032c0.945,4.532,1.32,8.311,1.133,11.326
				c-0.188,2.075-1.891,7.223-5.099,15.426c-3.208,8.214-3.868,14.49-1.98,18.828c0.945,2.08,2.547,3.923,4.812,5.524
				c2.265,1.605,5.426,2.973,9.484,4.112c4.055,1.133,7.784,2.027,11.184,2.686c3.396,0.655,8.114,1.51,14.153,2.542
				c6.041,1.034,10.854,1.938,14.44,2.688c12.081,2.457,25.857,6.516,41.337,12.175c15.478,5.665,25.952,8.586,31.426,8.774
				c5.285,0.186,10.333-0.897,15.147-3.258c4.813-2.355,8.917-5.048,12.316-8.067c3.396-3.021,8.446-5.855,15.145-8.495
				c6.704-2.642,14.206-4.058,22.512-4.248c3.773-0.186,9.247-0.424,16.42-0.705c7.173-0.286,12.551-0.426,16.138-0.426
				c16.231,0,28.5,0.093,36.804,0.281c5.664,0.193,10.1,1.086,13.31,2.691c3.208,1.603,5.288,3.446,6.229,5.519
				c0.943,2.08,2.507,4.482,4.679,7.223c2.166,2.735,4.949,4.953,8.343,6.649c7.169,3.401,15.573,4.769,25.201,4.108
				c9.625-0.659,16.046-2.503,19.252-5.522c5.285-5.094,12.408-11.137,21.374-18.117c8.967-6.98,17.044-12.269,24.211-15.855
				c1.507-0.762,4.056-1.985,7.643-3.686c3.583-1.701,6.601-3.161,9.054-4.392c2.454-1.228,5.431-2.787,8.916-4.674
				c3.494-1.89,6.325-3.635,8.497-5.239c2.171-1.605,4.385-3.441,6.651-5.521c2.264-2.074,3.728-4.151,4.393-6.228
				C507.063,438.057,507.307,435.932,507.118,433.763z M364.979,429.948c-0.376,6.037-1.651,14.536-3.824,25.483
				c-2.171,10.943-3.541,18.213-4.109,21.798c-3.964-0.194-6.228-1.656-6.795-4.394c-0.563-2.738,0-6.273,1.7-10.617
				c4.151-12.652,6.315-21.333,6.509-26.048c0.384-8.685-0.563-13.591-2.823-14.722c-2.085-1.509-5.291,1.322-9.632,8.491
				c-8.311,13.591-25.012,21.796-50.114,24.635c-22.646,3.02-38.313-0.378-46.998-10.197c-1.888-1.321-3.775-1.556-5.661-0.703
				c-1.888,0.841-3.115,1.743-3.68,2.681c-0.187,0.38,0,0.943,0.566,1.7c0.567,0.758,1.463,1.887,2.689,3.397
				c1.227,1.517,2.218,3.02,2.971,4.536c7.365,12.832,6.706,21.513-1.98,26.043c0-8.677-0.66-15.332-1.979-19.953
				c-1.322-4.625-3.962-9.72-7.928-15.292c-3.962-5.566-6.699-9.768-8.208-12.598c5.661-0.563,9.956-2.736,12.882-6.512
				c2.926-3.774,4.246-7.832,3.964-12.173c-0.284-4.345-1.934-7.932-4.955-10.762c-1.699-1.696-10.479-8.919-26.332-21.66
				c-15.853-12.739-25.67-21.281-29.443-25.622c-0.758-0.756-3.021-2.644-6.797-5.664c-3.777-3.02-6.137-5.66-7.08-7.928
				c-8.684-19.055-9.626-34.73-2.832-46.992l1.131-1.416c0.942-0.187,1.037,1.51,0.282,5.099
				c-1.132,5.286-1.508,10.566-1.132,15.854c0.754,11.895,4.153,20.763,10.192,26.61c3.966,3.971,6.701,3.687,8.212-0.847
				c1.133-1.513,1.651-7.079,1.555-16.71c-0.09-9.621,0.05-16.134,0.428-19.534c1.511-10.758,5.995-24.068,13.449-39.916
				c7.455-15.857,13.357-24.352,17.697-25.483c-3.399-5.474-4.484-11.42-3.256-17.839c1.224-6.418,3.209-11.896,5.945-16.422
				c2.734-4.529,5.521-9.765,8.35-15.712c2.832-5.946,4.248-11.279,4.248-15.998c0-1.319,0.097-2.264,0.285-2.831
				c0.565-1.699,2.925,0.377,7.078,6.227c7.928,11.705,13.873,18.596,17.837,20.671c4.152,2.262,8.775,2.169,13.872-0.285
				c5.095-2.454,11.37-6.513,18.829-12.173c7.452-5.66,13.822-9.814,19.108-12.454c0.571-0.191,1.465-0.616,2.695-1.276
				c1.222-0.657,2.166-1.131,2.824-1.417c0.655-0.282,1.507-0.705,2.548-1.272c1.031-0.566,1.833-1.039,2.401-1.417
				c0.565-0.38,1.133-0.805,1.696-1.276c0.562-0.474,0.938-0.942,1.133-1.415c0.19-0.472,0.285-0.896,0.285-1.274
				c-0.38-1.7-1.181-2.739-2.41-3.114c-1.228-0.376-2.877-0.143-4.954,0.709c-2.077,0.85-4.392,1.983-6.937,3.397
				c-2.546,1.415-5.375,3.02-8.492,4.813c-3.112,1.794-6.275,3.443-9.481,4.956c-3.208,1.511-6.607,2.832-10.194,3.966
				c-3.586,1.13-6.983,1.794-10.19,1.982c-7.928,0.189-14.249-1.883-18.968-6.228c-3.02-2.834-4.622-4.626-4.813-5.381
				c-0.19-0.752,0.661-0.941,2.547-0.566c10.196,1.322,17.65,1.509,22.369,0.566c4.907-0.752,11.513-2.926,19.819-6.512
				c1.7-0.754,5.99-2.596,12.885-5.522c6.886-2.921,12.221-4.951,15.996-6.085c2.271-0.567,3.827-1.462,4.677-2.689
				c0.845-1.227,1.13-2.361,0.845-3.4c-0.281-1.036-0.896-1.837-1.836-2.404c-2.082-1.133-3.968-0.376-5.66,2.265
				c-0.947,1.699-2.933,3.353-5.95,4.955c-3.017,1.607-5.806,2.832-8.352,3.68c-2.548,0.848-5.804,1.839-9.77,2.971
				c-3.966,1.134-6.133,1.794-6.512,1.982c-10.381,3.207-20.008,4.625-28.88,4.246c-4.153-0.187-7.502-0.802-10.048-1.84
				c-2.549-1.036-4.297-2.262-5.238-3.68c-0.945-1.414-2.454-3.208-4.53-5.379c-2.079-2.171-4.438-4.011-7.08-5.523
				c-1.887-0.942-2.596-2.641-2.124-5.094c0.473-2.454,1.935-5.004,4.389-7.646c0.188-0.19,2.124-1.368,5.803-3.539
				c3.68-2.172,6.276-4.391,7.789-6.655c1.695-2.642,4.621-5.381,8.774-8.213c0.188-0.753,0.331-2.829,0.424-6.227
				c0.093-3.396-0.801-7.077-2.689-11.041c-1.888-3.966-4.438-5.945-7.646-5.945c-4.531-0.188-7.739,1.131-9.626,3.963
				c-1.888,2.828-2.734,6.322-2.547,10.474c0.192,3.585,1.089,6.745,2.69,9.483c1.605,2.739,3.069,4.108,4.39,4.108
				c2.074-0.191,2.735,0.562,1.98,2.262c-1.132,2.079-2.644,3.403-4.53,3.966c-1.325,0.375-2.788-0.897-4.39-3.823
				c-1.605-2.926-2.832-6.463-3.68-10.617c-0.848-4.152-1.181-7.644-0.99-10.478c0.375-5.851,1.931-11.467,4.67-16.847
				c2.739-5.379,6.655-7.975,11.749-7.789c5.286,0.192,9.536,3.403,12.744,9.629c3.211,6.228,4.72,14.726,4.531,25.483
				c0.567,1.322,2.029,1.794,4.391,1.415c2.355-0.378,5.472-0.427,9.341-0.143c3.866,0.282,6.65,1.271,8.35,2.971
				c0.191,0,0.286-1.418,0.286-4.247c-3.399-23.779,5-36.427,25.198-37.938c3.014,0.567,5.563,1.276,7.636,2.124
				c2.084,0.848,4.293,2.267,6.655,4.248c2.366,1.98,4.34,4.858,5.945,8.635c1.605,3.779,2.881,8.498,3.824,14.158v10.474
				c0,6.04-1.231,9.438-3.686,10.193c-3.96,1.32-6.788,1.274-8.484-0.143c-1.701-1.418-1.517-3.916,0.563-7.503
				c1.886-4.718,1.509-10.196-1.135-16.424c-2.641-6.227-7.456-9.059-14.437-8.492c-4.721,0.189-8.119,2.738-10.195,7.644
				c-2.076,4.908-2.829,9.722-2.263,14.441c0.566,4.718,1.602,7.172,3.116,7.359c1.13,0.191,4.484,1.7,10.052,4.532
				c5.576,2.831,9.774,4.529,12.601,5.095c7.361,1.508,11.556,3.868,12.598,7.078c1.038,3.212,0.614,7.881-1.272,14.015
				c-1.891,6.138-2.454,11.182-1.693,15.148c0.753,4.158,2.172,7.928,4.249,11.325c2.076,3.4,4.289,6.513,6.651,9.346
				c2.358,2.825,5.138,8.115,8.354,15.852c3.204,7.741,6.13,17.46,8.77,29.164c0.187,0.188,0.893,0.849,2.122,1.982
				c1.228,1.131,2.451,2.546,3.683,4.245c1.23,1.7,2.691,4.011,4.391,6.937c1.698,2.927,3.544,7.222,5.525,12.885
				c1.975,5.661,3.821,12.178,5.518,19.533c2.077,8.689,3.162,18.778,3.258,30.3c0.096,11.512,0.849,19.393,2.267,23.641
				c1.419,4.253,5.051,5.997,10.9,5.24c2.378-0.122,4.344-0.975,6.296-1.503c3.502-0.946,8.802-1.628,12.035-1.046
				c10.132,1.823,14.507,7.247,14.507,10.479c-3.96-3.21-9.628-5.331-16.992-6.359c-7.364-1.042-14.199-0.053-20.524,2.969
				c-6.326,3.021-9.584,8.02-9.773,14.999c-6.795,0-11.61,1.698-14.438,5.103c-4.151,4.903-6.318,11.555-6.509,19.959
				c-0.189,8.395,0.513,17.554,2.117,27.457C364.748,419.048,365.36,425.981,364.979,429.948z M246.353,101.796
				c-0.567-0.187-1.038-0.757-1.413-1.699c0-1.695,0.847-2.36,2.547-1.98c1.133,0.375,2.221,1.792,3.256,4.246
				c1.039,2.453,1.274,5.286,0.71,8.495c0,0.566-0.282,0.852-0.853,0.847c-2.078,0-2.833-1.886-2.265-5.66
				C248.9,103.212,248.24,101.796,246.353,101.796z M319.684,106.33l-0.563,0.848c-1.507,0.942-2.255,1.132-2.255,0.567
				c-0.762-5.099-2.459-8.024-5.1-8.78l-1.133-0.565c-1.324-1.134-0.665-1.794,1.975-1.982c0.565-0.189,1.415,0.092,2.548,0.848
				c1.135,0.757,2.173,1.937,3.117,3.542C319.212,102.412,319.684,104.25,319.684,106.33z"/>
			<path d="M253.713,122.746c0,1.133,0.476,1.605,1.42,1.418c0.753,0,1.551-0.897,2.403-2.69c0.85-1.79,2.314-2.78,4.388-2.971
				V118.5h-2.832C255.508,119.065,253.713,120.481,253.713,122.746z"/>
			<path d="M278.349,119.351c1.887-0.567,3.541-0.139,4.957,1.276c1.412,1.413,2.5,2.029,3.256,1.838
				c1.129-0.563,1.414-1.416,0.848-2.547C285.899,117.464,282.88,117.276,278.349,119.351z"/>
		</g>
	</g>
	<g>
		<path d="M571.238,376.125v-18.618h34.229V122.991h-34.229V104.37c8.029,0.793,27.359,1.188,57.999,1.188
			c33.377,0,54.715-0.395,64.017-1.188v18.621h-42.786v234.517h32.643c7.813,0,14.945-1.251,21.394-3.764
			c6.442-2.506,11.726-5.547,15.844-9.111c4.121-3.564,7.87-8.318,11.253-14.262c3.374-5.942,5.91-11.154,7.604-15.648
			c1.688-4.487,3.219-10.299,4.594-17.43c1.372-7.129,2.219-12.41,2.537-15.844c0.318-3.431,0.791-8.054,1.427-13.867h14.894
			l-9.821,108.544H571.238z"/>
		<path d="M788.326,376.125v-18.618h36.129V122.991h-36.129V104.37c8.662,0.793,28.207,1.188,58.63,1.188
			c30.425,0,49.962-0.395,58.628-1.188v18.621h-36.129v234.517h36.129v18.618c-8.666-0.793-28.203-1.188-58.628-1.188
			C816.533,374.937,796.989,375.333,788.326,376.125z"/>
		<path d="M928.4,376.125v-18.618h7.927c6.336,0,12.04-0.396,17.112-1.189c4.436-0.525,7.075-1.25,7.922-2.179
			c0.843-0.922,1.268-3.626,1.268-8.12V122.991H928.4V104.37h72.614c3.172,0,5.278,0.267,6.34,0.793
			c1.058,0.533,2.433,1.981,4.122,4.358l126.091,185.462v-160.5c0-4.494-0.426-7.199-1.268-8.128
			c-0.848-0.922-3.594-1.646-8.24-2.179c-5.705-0.791-11.305-1.187-16.799-1.187h-7.922V104.37
			c8.661,0.793,22.924,1.188,42.786,1.188c20.28,0,34.436-0.395,42.465-1.188v18.621h-7.922c-6.341,0-12.045,0.396-17.111,1.187
			c-4.441,0.533-7.085,1.257-7.927,2.179c-0.848,0.929-1.268,3.634-1.268,8.122V363.45c0,5.284-0.427,8.715-1.266,10.299
			c-0.846,1.584-3.278,2.377-7.289,2.377c-2.536,0-4.174-0.26-4.913-0.793c-0.743-0.524-1.956-1.979-3.646-4.356L979.427,138.834
			v207.185c0,4.494,0.421,7.198,1.268,8.12c0.839,0.929,3.589,1.653,8.235,2.179c5.709,0.794,11.301,1.189,16.799,1.189h7.922
			v18.618c-8.666-0.793-22.928-1.188-42.782-1.188C950.584,374.937,936.429,375.333,928.4,376.125z"/>
		<path d="M1213.623,122.991V104.37c8.029,0.793,26.938,1.188,56.73,1.188c29.789,0,48.692-0.395,56.727-1.188v18.621h-34.229
			v164.796c0,6.604,0.159,12.148,0.478,16.637c0.317,4.494,1.474,10.697,3.485,18.619c2.008,7.924,4.802,14.396,8.399,19.411
			c3.59,5.019,9.135,9.506,16.64,13.469c7.497,3.961,16.527,5.94,27.094,5.94c9.083,0,17.588-1.386,25.512-4.158
			c7.926-2.772,15.212-7.062,21.87-12.873c6.653-5.808,11.932-13.928,15.844-24.364c3.907-10.431,5.862-22.643,5.862-36.644V134.478
			c0-4.487-0.425-7.193-1.268-8.122c-0.847-0.922-3.594-1.646-8.24-2.179c-5.704-0.791-11.305-1.187-16.794-1.187h-7.927V104.37
			c8.662,0.793,22.924,1.188,42.787,1.188c20.28,0,34.435-0.395,42.464-1.188v18.621h-7.922c-6.339,0-12.043,0.396-17.112,1.187
			c-4.439,0.533-7.083,1.257-7.926,2.179c-0.846,0.929-1.264,3.634-1.264,8.122V285.41c0,26.411-7.449,48.859-22.343,67.344
			c-14.898,18.489-36.503,27.73-64.812,27.73c-31.482,0-55.988-9.044-73.526-27.135c-17.536-18.089-26.302-41.004-26.302-68.733
			V122.991H1213.623z"/>
		<path d="M1492.192,376.125v-18.618h9.191c6.546,0,12.994-0.396,19.33-1.189c4.857-0.525,7.974-1.188,9.349-1.981
			c1.372-0.79,2.799-2.377,4.282-4.751l63.84-105.338l-70.181-121.257h-31.056V104.37c7.393,0.793,24.487,1.188,51.292,1.188
			c29.536,0,48.634-0.395,57.299-1.188v18.621h-26.302l45.154,78.015l41.967-69.246c0.124-0.208,0.532-0.89,1.237-2.048
			c0.7-1.15,1.178-1.943,1.437-2.364c-7.398-2.903-17.112-4.356-29.157-4.356V104.37c7.604,0.793,23.658,1.188,48.173,1.188
			c19.434,0,33.592-0.395,42.465-1.188v18.621h-9.19c-7.183,0-13.309,0.37-18.38,1.106c-5.498,0.495-8.929,1.047-10.3,1.66
			c-1.379,0.619-2.91,2.278-4.595,4.975l-53.36,88.056l80.299,138.719h31.056v18.618c-7.397-0.793-24.496-1.188-51.297-1.188
			c-29.534,0-48.637,0.396-57.294,1.188v-18.618h26.302l-55.273-95.49l-52.316,86.33c-0.134,0.209-0.546,0.896-1.251,2.055
			c-0.705,1.156-1.113,1.837-1.237,2.048c7.393,3.374,17.111,5.058,29.155,5.058v18.618c-7.608-0.793-23.663-1.188-48.172-1.188
			C1515.22,374.937,1501.065,375.333,1492.192,376.125z"/>
	</g>
</g>
</svg>
