<?xml version="1.0" encoding="utf-8"?>
<!-- Generator: Adobe Illustrator 16.0.0, SVG Export Plug-In . SVG Version: 6.00 Build 0)  -->
<!DOCTYPE svg PUBLIC "-//W3C//DTD SVG 1.1//EN" "http://www.w3.org/Graphics/SVG/1.1/DTD/svg11.dtd">
<svg version="1.1" id="_x33_0" xmlns="http://www.w3.org/2000/svg" xmlns:xlink="http://www.w3.org/1999/xlink" x="0px" y="0px"
	 width="1842.52px" height="566.929px" viewBox="-155.247 0.882 1842.52 566.929"
	 enable-background="new -155.247 0.882 1842.52 566.929" xml:space="preserve">
<g>
	<path d="M-44.862,86.695h16v16h-16V86.695z"/>
	<path d="M195.138,198.695v-16c-19.088,0-36.36,11.304-44,28.8l14.655,6.408C170.898,206.231,182.409,198.695,195.138,198.695z"/>
	<path d="M165.793,243.495c-1.76-4.04-2.655-8.344-2.655-12.8h-16c0,6.672,1.344,13.136,4,19.2L165.793,243.495z"/>
	<path d="M427.138,310.695c13.231,0,24-10.768,24-24s-10.769-24-24-24c-1.704,0-3.393,0.24-5.057,0.6l-67.28-108.647
		c10.313-9.024,16.337-21.944,16.337-35.952c0-26.472-21.528-48-48-48c-12.696,0-24.793,5.16-33.776,14.024l-48.431-34.6
		c1.399-3.632,2.208-7.472,2.208-11.424c0-17.648-14.353-32-32-32c-17.648,0-32,14.352-32,32c0,3.408,0.576,6.72,1.584,9.856
		l-45.776,29.024c-5.544-4.424-12.464-6.88-19.808-6.88c-17.648,0-32,14.352-32,32s14.352,32,32,32c2.712,0,5.376-0.36,7.976-1.04
		l22.24,34.52c-9.624,7.64-17.376,17.448-22.552,28.52L34.449,165.52c0.384-2.216,0.688-4.48,0.688-6.824c0-22.056-17.944-40-40-40
		c-22.057,0-40,17.944-40,40s17.943,40,40,40c14.023,0,26.344-7.296,33.487-18.256l88.841,31.344
		c-1.521,6.112-2.328,12.432-2.328,18.912c0,20.288,7.735,39.68,21.376,54.328l-30.729,34.896
		c-9.023-5.961-19.632-9.225-30.647-9.225c-13.968,0-27.208,5.216-37.416,14.424l-36.08-30.048c0.976-2.64,1.496-5.448,1.496-8.376
		c0-13.232-10.769-24-24-24c-13.232,0-24,10.768-24,24s10.768,24,24,24c4.384,0,8.52-1.296,12.136-3.439l36.248,30.191
		c-5.384,8.752-8.384,18.848-8.384,29.248c0,19.72,10.328,37.72,26.848,47.808l-17.312,40.353c-0.521-0.04-1.024-0.16-1.536-0.16
		c-13.232,0-24,10.768-24,24s10.768,24,24,24c13.231,0,24-10.768,24-24c0-6.784-2.904-13.08-7.752-17.568l17.319-40.368
		c4.664,1.24,9.48,1.937,14.433,1.937c15.128,0,29.52-6.24,39.872-16.856l50.487,37.072c-1.487,3.752-2.359,7.744-2.359,11.784
		c0,17.648,14.352,32,32,32c17.647,0,32-14.352,32-32c0-2.512-0.305-4.984-0.889-7.4l59.696-31.592
		c10.456,14.344,27.136,22.992,45.192,22.992c12.312,0,23.936-3.976,33.495-11.192l27.04,27.04
		c-2.815,4.761-4.535,10.232-4.535,16.152c0,17.648,14.352,32,32,32c17.647,0,32-14.352,32-32s-14.353-32-32-32
		c-5.921,0-11.393,1.72-16.152,4.536l-27.04-27.04c7.224-9.584,11.191-21.2,11.191-33.496c0-12.313-3.976-23.936-11.191-33.496
		l40.904-40.904C420.018,309.815,423.49,310.695,427.138,310.695L427.138,310.695z M-4.862,182.695c-13.232,0-24-10.768-24-24
		s10.768-24,24-24c13.231,0,24,10.768,24,24S8.369,182.695-4.862,182.695z M331.138,326.695c-11.104,0-21.841,3.336-30.961,9.408
		l-46.023-51.48c13.4-14.64,20.984-33.872,20.984-53.928c0-16.728-5.257-32.904-14.864-46.336l32.576-28.52
		c8.472,6.936,19.119,10.856,30.288,10.856c6.296,0,12.416-1.28,18.071-3.592l67.32,108.695c-3.368,4.176-5.392,9.32-5.392,14.896
		c0,3.664,0.888,7.145,2.392,10.296l-40.896,40.896C355.049,330.663,343.434,326.695,331.138,326.695L331.138,326.695z
		 M278.457,401.56l-59.703,31.6c-5.969-6.567-14.465-10.464-23.617-10.464c-7.488,0-14.648,2.648-20.265,7.256l-50.376-36.992
		c4.328-8.008,6.641-16.936,6.641-26.264c0-13.424-4.849-26.216-13.353-36.176l30.729-34.904c13.479,9.76,29.744,15.08,46.624,15.08
		c17.048,0,33.497-5.447,47.104-15.408l46.04,51.496c-8.392,10.016-13.145,22.696-13.145,35.912
		C275.137,389.264,276.289,395.567,278.457,401.56L278.457,401.56z M158.865,159.615l-21.712-33.712
		c6.296-5.944,9.984-14.28,9.984-23.208c0-4.248-0.96-8.4-2.576-12.272l44.704-28.344c5.832,5.488,13.584,8.616,21.872,8.616
		c7.592,0,14.848-2.736,20.544-7.512l48.319,34.512c-3.176,6.536-4.864,13.664-4.864,21c0,8.92,2.545,17.584,7.169,25.096
		l-32.568,28.512c-14.68-13.808-34.153-21.608-54.6-21.608C182.394,150.695,170.041,153.871,158.865,159.615L158.865,159.615z
		 M435.138,286.695c0,4.416-3.585,8-8,8c-2.137,0-4.112-0.824-5.704-2.456c-1.473-1.433-2.296-3.407-2.296-5.544
		c0-2.792,1.415-5.328,3.783-6.784c1.305-0.792,2.761-1.216,4.217-1.216C431.553,278.695,435.138,282.279,435.138,286.695z
		 M323.138,86.695c17.647,0,32,14.352,32,32c0,10.976-5.816,21.4-15.232,27.24c-4.937,3.112-10.729,4.76-16.768,4.76
		c-9.257,0-18.017-3.984-24.064-10.952c-5.112-5.848-7.936-13.32-7.936-21.048c0-6.688,2.063-13.144,5.92-18.6
		C303.121,91.703,312.873,86.695,323.138,86.695z M211.138,22.695c8.825,0,16,7.176,16,16c0,3.328-1.032,6.536-3,9.288
		c-2.984,4.208-7.84,6.712-13,6.712c-5.513,0-10.553-2.76-13.536-7.488c-1.616-2.472-2.464-5.416-2.464-8.512
		C195.138,29.871,202.314,22.695,211.138,22.695z M99.138,102.695c0-8.824,7.176-16,16-16c4.92,0,9.456,2.176,12.487,6.048
		c2.297,2.864,3.513,6.304,3.513,9.952c0,5.944-3.265,11.352-8.513,14.112c-2.384,1.256-4.903,1.888-7.487,1.888
		C106.314,118.695,99.138,111.52,99.138,102.695z M131.138,230.695c0-7.384,1.231-14.512,3.712-21.296
		c4.632-13.32,13.735-24.84,25.688-32.48c10.296-6.688,22.256-10.224,34.601-10.224c18.512,0,36.048,7.976,48.152,21.928
		c10.225,11.608,15.848,26.552,15.848,42.072c0,18.184-7.776,35.544-21.352,47.656c-11.72,10.535-26.864,16.344-42.648,16.344
		c-15.664,0-30.681-5.695-42.328-16.096C139.033,266.52,131.138,249.055,131.138,230.695L131.138,230.695z M-20.862,294.695
		c-4.416,0-8-3.584-8-8s3.584-8,8-8s8,3.584,8,8c0,1.92-0.616,3.616-1.944,5.168C-16.262,293.639-18.526,294.695-20.862,294.695z
		 M27.138,486.695c-4.416,0-8-3.584-8-8s3.584-8,8-8c1.08,0,2.191,0.224,3.128,0.616c2.96,1.288,4.872,4.191,4.872,7.384
		C35.138,483.111,31.554,486.695,27.138,486.695z M75.138,406.695c-5.513,0-10.809-1.072-15.729-3.192
		c-14.744-6.336-24.271-20.792-24.271-36.808c0-9.368,3.288-18.456,9.264-25.592c7.624-9.16,18.832-14.408,30.736-14.408
		c9.808,0,19.184,3.561,26.504,10.111c8.576,7.473,13.496,18.377,13.496,29.889c0,8.592-2.688,16.736-7.832,23.624
		C99.873,400.567,87.85,406.695,75.138,406.695z M195.138,470.695c-8.824,0-16-7.176-16-16c0-3.368,1.096-6.712,3.136-9.488
		c2.984-4.136,7.672-6.512,12.864-6.512c5.943,0,11.352,3.264,14.12,8.504c1.248,2.392,1.88,4.912,1.88,7.496
		C211.138,463.52,203.962,470.695,195.138,470.695z M331.138,422.695c-14.824,0-28.36-8.16-35.345-21.304
		c-3.096-5.761-4.655-12.048-4.655-18.696c0-11.359,4.855-22.216,13.344-29.809c7.328-6.567,16.8-10.191,26.656-10.191
		c10.728,0,20.76,4.16,28.287,11.76c7.553,7.48,11.713,17.512,11.713,28.24s-4.16,20.76-11.761,28.288
		C351.898,418.535,341.865,422.695,331.138,422.695z M435.138,470.695c0,8.824-7.177,16-16,16c-8.824,0-16-7.176-16-16
		s7.176-16,16-16C427.961,454.695,435.138,461.871,435.138,470.695z"/>
	<path d="M-44.862,22.695h48v16h-48V22.695z"/>
	<path d="M19.138,22.695h48v16h-48V22.695z"/>
	<path d="M-44.862,54.695h112v16h-112V54.695z"/>
	<path d="M-12.862,86.695h16v16h-16V86.695z"/>
	<path d="M19.138,86.695h16v16h-16V86.695z"/>
	<path d="M259.138,486.695h16v16h-16V486.695z"/>
	<path d="M291.138,486.695h16v16h-16V486.695z"/>
	<path d="M259.138,454.695h48v16h-48V454.695z"/>
	<path d="M323.138,454.695h48v16h-48V454.695z"/>
	<path d="M323.138,486.695h48v16h-48V486.695z"/>
	<path d="M387.138,22.695h64v16h-64V22.695z"/>
	<path d="M387.138,54.695h64v16h-64V54.695z"/>
	<path d="M387.138,86.695h64v16h-64V86.695z"/>
	<path d="M387.138,118.695h64v16h-64V118.695z"/>
	<path d="M387.138,150.695h16v16h-16V150.695z"/>
	<path d="M419.138,150.695h16v16h-16V150.695z"/>
	<g>
		<g>
			<g>
				<path d="M722.669,179.713c-1.879,0-3.401-1.523-3.401-3.401c0,0,0.001-52.961,0.002-53.005l1.952-50.119l-39.989,104.342
					c-0.505,1.316-1.768,2.184-3.177,2.184h-19.938c-1.409,0-2.673-0.869-3.177-2.186L615.068,73.333l1.949,49.974
					c0.001,0.044,0.002,53.005,0.002,53.005c0,1.878-1.522,3.401-3.401,3.401H585.86c-1.879,0-3.401-1.523-3.401-3.401V15.93
					c0-1.878,1.522-3.401,3.401-3.401h36.131c1.416,0,2.685,0.877,3.184,2.203l43.075,114.461l42.973-114.459
					c0.498-1.327,1.768-2.206,3.185-2.206h36.021c1.879,0,3.401,1.523,3.401,3.401v160.382c0,1.878-1.522,3.401-3.401,3.401H722.669
					z"/>
			</g>
			<g>
				<path d="M831.279,181.917c-17.743,0-32.176-6.03-42.896-17.922c-10.631-11.787-16.021-27.619-16.021-47.055v-1.322
					c0-12.15,2.453-23.275,7.291-33.065c4.896-9.913,11.894-17.651,20.795-22.999c8.871-5.329,19.17-8.031,30.611-8.031
					c16.965,0,30.962,5.574,41.603,16.567c10.568,10.915,16.356,25.518,17.201,43.402c0.002,0.034,0.115,6.378,0.115,6.378
					c0,12.274-2.396,23.375-7.12,33.056c-4.786,9.809-11.747,17.514-20.688,22.901C853.263,179.195,842.869,181.917,831.279,181.917
					z M831.059,79.806c-7.669,0-13.585,2.955-18.085,9.032c-4.674,6.309-7.044,16.097-7.044,29.094
					c0,11.47,2.337,20.486,6.946,26.799c4.43,6.065,10.449,9.014,18.402,9.014c7.938,0,13.932-2.993,18.325-9.149
					c4.587-6.429,6.913-16.178,6.913-28.977c0-11.25-2.391-20.208-7.105-26.626C844.87,82.811,838.867,79.806,831.059,79.806z"/>
			</g>
			<g>
				<path d="M910.92,179.713c-1.879,0-3.401-1.523-3.401-3.401V7.118c0-1.878,1.522-3.401,3.401-3.401h26.766
					c1.879,0,3.401,1.523,3.401,3.401v169.194c0,1.878-1.522,3.401-3.401,3.401H910.92z"/>
			</g>
			<g>
				<path d="M1019.31,181.917c-17.83,0-32.524-5.733-43.674-17.04c-11.139-11.292-16.786-26.456-16.786-45.073V116.5
					c0-12.366,2.433-23.599,7.23-33.386c4.849-9.893,11.771-17.715,20.577-23.248c8.81-5.536,18.757-8.342,29.567-8.342
					c17.193,0,30.72,5.626,40.204,16.723c9.349,10.94,14.088,26.47,14.088,46.16v10.795c0,1.878-1.522,3.401-3.401,3.401h-74.042
					c1.174,7.257,3.998,13.145,8.421,17.538c5.147,5.117,11.479,7.604,19.357,7.604c11.26,0,20.182-4.435,27.275-13.558
					c0.591-0.759,1.475-1.233,2.435-1.304c0.084-0.006,0.168-0.009,0.251-0.009c0.871,0,1.713,0.334,2.349,0.94l14.431,13.769
					c1.197,1.142,1.398,2.98,0.477,4.355c-5.089,7.592-11.963,13.559-20.431,17.735
					C1039.231,179.816,1029.699,181.917,1019.31,181.917z M1037.154,102.193c-0.698-7.317-2.763-12.901-6.148-16.613
					c-3.543-3.885-8.414-5.774-14.89-5.774c-6.375,0-11.358,2.144-15.235,6.554c-3.408,3.88-5.815,9.195-7.178,15.833H1037.154z"/>
			</g>
			<g>
				<path d="M1137.173,181.917c-17.594,0-31.784-5.824-42.179-17.311c-10.305-11.389-15.529-27.204-15.529-47.004v-2.754
					c0-18.913,5.182-34.331,15.4-45.825c10.321-11.611,24.518-17.499,42.195-17.499c14.993,0,27.427,4.474,36.955,13.297
					c9.573,8.864,14.665,20.618,15.132,34.935c0.03,0.921-0.314,1.814-0.955,2.477s-1.522,1.036-2.444,1.036h-25.223
					c-1.821,0-3.319-1.435-3.398-3.254c-0.261-6.01-2.227-10.788-6.013-14.606c-3.738-3.77-8.407-5.602-14.272-5.602
					c-7.602,0-13.269,2.635-17.324,8.054c-4.234,5.655-6.414,14.593-6.481,26.565v4.277c0,12.128,2.131,21.179,6.334,26.902
					c4.021,5.478,9.735,8.14,17.472,8.14c5.881,0,10.585-1.631,14.382-4.986c3.724-3.29,5.655-7.233,5.904-12.056
					c0.094-1.808,1.587-3.226,3.397-3.226h25.223c0.926,0,1.811,0.377,2.452,1.044c0.642,0.667,0.983,1.567,0.946,2.492
					c-0.316,8.023-2.845,15.604-7.516,22.531c-4.643,6.884-11.005,12.398-18.912,16.391
					C1154.855,179.904,1146.26,181.917,1137.173,181.917z"/>
			</g>
			<g>
				<path d="M1244.681,181.917c-13.888,0-24.624-4.206-31.911-12.502c-7.177-8.166-10.815-19.965-10.815-35.07V57.127
					c0-1.878,1.522-3.401,3.401-3.401h26.768c1.879,0,3.401,1.523,3.401,3.401v76.887c0,17.097,8.249,19.29,15.436,19.29
					c11.358,0,18.866-3.732,22.924-11.402V57.127c0-1.878,1.522-3.401,3.401-3.401h26.768c1.879,0,3.401,1.523,3.401,3.401v119.185
					c0,1.878-1.522,3.401-3.401,3.401h-25.226c-1.804,0-3.294-1.408-3.396-3.209l-0.238-4.228
					C1267.244,178.679,1257.017,181.917,1244.681,181.917z"/>
			</g>
			<g>
				<path d="M1333.025,179.713c-1.879,0-3.401-1.523-3.401-3.401V7.118c0-1.878,1.522-3.401,3.401-3.401h26.766
					c1.879,0,3.401,1.523,3.401,3.401v169.194c0,1.878-1.522,3.401-3.401,3.401H1333.025z"/>
			</g>
			<g>
				<path d="M1425.772,181.917c-12.783,0-23.408-3.741-31.579-11.121c-8.273-7.47-12.468-16.843-12.468-27.86
					c0-13.801,5.237-24.569,15.568-32.006c9.985-7.186,24.273-10.83,42.469-10.83h13.011v-4.419c0-5.324-1.396-9.413-4.266-12.5
					c-2.767-2.97-7.229-4.478-13.261-4.478c-5.288,0-9.623,1.295-12.885,3.848c-3.051,2.389-4.534,5.313-4.534,8.943
					c0,1.878-1.522,3.401-3.401,3.401h-26.766c-1.879,0-3.401-1.523-3.401-3.401c0-7.268,2.42-14.131,7.194-20.401
					c4.668-6.132,11.071-10.992,19.03-14.443c7.849-3.402,16.699-5.127,26.306-5.127c14.71,0,26.678,3.809,35.569,11.322
					c9.042,7.642,13.747,18.447,13.984,32.115v53.813c0,10.167,1.41,18.314,4.191,24.215c0.214,0.454,0.324,0.949,0.324,1.45v1.873
					c0,1.878-1.522,3.401-3.401,3.401h-27.316c-1.272,0-2.438-0.709-3.021-1.839c-0.8-1.546-1.518-3.569-2.168-6.115
					C1446.682,178.504,1436.894,181.917,1425.772,181.917z M1441.745,123.756c-9.163,0-16.036,1.54-20.429,4.575
					c-4.051,2.801-6.021,6.677-6.021,11.852c0,4.165,1.304,7.352,3.984,9.744c2.795,2.495,6.539,3.708,11.448,3.708
					c4.683,0,9.152-1.155,13.285-3.433c3.851-2.122,6.724-4.833,8.759-8.271v-18.174H1441.745z"/>
			</g>
			<g>
				<path d="M1510.919,179.713c-1.879,0-3.401-1.523-3.401-3.401V57.127c0-1.878,1.522-3.401,3.401-3.401h25.558
					c1.813,0,3.308,1.422,3.397,3.233l0.211,4.253c6.407-6.437,14.423-9.689,23.93-9.689c4.247,0,7.869,0.605,10.767,1.798
					c1.28,0.527,2.112,1.776,2.106,3.16l-0.109,25.115c-0.004,0.998-0.446,1.942-1.208,2.585c-0.618,0.521-1.396,0.801-2.193,0.801
					c-0.186,0-0.372-0.015-0.559-0.046c-3.33-0.554-6.811-0.835-10.347-0.835c-10.612,0-17.615,3.75-21.383,11.458v80.753
					c0,1.878-1.522,3.401-3.401,3.401H1510.919z"/>
			</g>
			<g>
				<path d="M585.86,450.424c-1.879,0-3.401-1.522-3.401-3.401V286.641c0-1.879,1.522-3.401,3.401-3.401h47.364
					c14.709,0,27.973,3.339,39.424,9.926c11.501,6.616,20.525,16.124,26.823,28.259c6.247,12.042,9.415,25.985,9.415,41.442v8.041
					c0,15.688-3.188,29.711-9.479,41.678c-6.342,12.071-15.507,21.507-27.24,28.046c-11.658,6.498-25.168,9.793-40.154,9.793H585.86
					z M631.903,421.371c13.696,0,23.858-4.097,31.066-12.524c7.249-8.473,10.995-20.987,11.136-37.197v-8.893
					c0-16.51-3.557-29.198-10.571-37.713c-6.948-8.432-16.863-12.531-30.31-12.531h-16.096v108.858H631.903z"/>
			</g>
			<g>
				<path d="M740.734,498.561c-4.189,0-8.837-0.714-13.814-2.121c-1.465-0.414-2.476-1.751-2.476-3.273v-20.808
					c0-0.94,0.39-1.839,1.075-2.482c0.633-0.592,1.465-0.919,2.326-0.919c0.073,0,0.147,0.002,0.221,0.007l4.957,0.323
					c5.939-0.013,10.366-1.038,13.16-3.048c2.813-2.025,5.123-5.634,6.864-10.723c0.012-0.032,3.452-9.172,3.452-9.172
					l-41.442-117.374c-0.368-1.041-0.208-2.196,0.43-3.098s1.673-1.437,2.777-1.437h28.858c1.488,0,2.804,0.968,3.247,2.389
					l21.914,70.234l21.038-70.198c0.432-1.439,1.756-2.425,3.259-2.425h28.53c1.1,0,2.132,0.531,2.77,1.427
					c0.639,0.896,0.805,2.045,0.446,3.084l-47.364,137.25C773.167,487.689,759.638,498.561,740.734,498.561z"/>
			</g>
			<g>
				<path d="M911.912,450.424c-1.879,0-3.401-1.522-3.401-3.401v-77.217c0-6.661-1.356-11.548-4.031-14.524
					c-2.58-2.869-7.121-4.325-13.497-4.325c-9.258,0-16.045,3.971-20.724,12.133v83.934c0,1.879-1.522,3.401-3.401,3.401h-26.766
					c-1.879,0-3.401-1.522-3.401-3.401V327.838c0-1.879,1.522-3.401,3.401-3.401h25.224c1.805,0,3.295,1.409,3.396,3.211
					l0.337,6.015c8.624-7.591,19.267-11.43,31.736-11.43c18.513,0,40.703,7.977,41.294,45.979v78.812
					c0,1.879-1.522,3.401-3.401,3.401H911.912z"/>
			</g>
			<g>
				<path d="M1002.785,452.627c-12.784,0-23.409-3.741-31.58-11.121c-8.272-7.469-12.467-16.842-12.467-27.859
					c0-13.801,5.238-24.569,15.568-32.006c9.983-7.187,24.272-10.83,42.469-10.83h13.011v-4.42c0-5.323-1.396-9.412-4.266-12.499
					c-2.766-2.971-7.229-4.478-13.261-4.478c-5.289,0-9.624,1.295-12.884,3.849c-3.052,2.389-4.535,5.314-4.535,8.943
					c0,1.879-1.522,3.401-3.401,3.401h-26.766c-1.879,0-3.401-1.522-3.401-3.401c0-7.269,2.42-14.133,7.194-20.401
					c4.666-6.131,11.068-10.99,19.03-14.444c7.85-3.403,16.7-5.128,26.305-5.128c14.71,0,26.677,3.81,35.57,11.323
					c9.041,7.641,13.745,18.446,13.984,32.115v53.813c0,10.166,1.41,18.314,4.191,24.216c0.214,0.454,0.324,0.949,0.324,1.45v1.872
					c0,1.879-1.522,3.401-3.401,3.401h-27.316c-1.272,0-2.438-0.71-3.021-1.84c-0.8-1.546-1.518-3.568-2.168-6.114
					C1023.697,449.215,1013.908,452.627,1002.785,452.627z M1018.759,394.466c-9.163,0-16.036,1.539-20.429,4.575
					c-4.052,2.801-6.021,6.677-6.021,11.851c0,4.165,1.304,7.353,3.984,9.745c2.796,2.495,6.541,3.708,11.449,3.708
					c4.682,0,9.151-1.155,13.285-3.434c3.851-2.121,6.724-4.833,8.759-8.271v-18.175H1018.759z"/>
			</g>
			<g>
				<path d="M1230.031,450.424c-1.879,0-3.401-1.522-3.401-3.401v-77.548c0-6.635-1.358-11.448-4.037-14.307
					c-2.62-2.795-7.307-4.212-13.93-4.212c-5.313,0-9.477,1.34-12.728,4.095c-3.256,2.761-5.514,6.276-6.894,10.735l0.108,81.231
					c0.001,0.903-0.356,1.77-0.994,2.408c-0.639,0.64-1.504,0.998-2.407,0.998h-26.766c-1.879,0-3.401-1.522-3.401-3.401v-78.429
					c-0.321-12.17-5.897-17.638-18.079-17.638c-9.127,0-15.481,3.455-19.399,10.555v85.512c0,1.879-1.522,3.401-3.401,3.401h-26.769
					c-1.879,0-3.401-1.522-3.401-3.401V327.838c0-1.879,1.522-3.401,3.401-3.401h25.226c1.797,0,3.284,1.397,3.396,3.19l0.311,5.005
					c8.337-6.907,18.876-10.399,31.433-10.399c15.176,0,26.31,5.247,33.174,15.611c9.043-10.364,21.167-15.611,36.112-15.611
					c14.101,0,24.834,4.056,31.904,12.055c6.95,7.865,10.555,19.433,10.713,34.382v78.354c0,1.879-1.522,3.401-3.401,3.401H1230.031
					z"/>
			</g>
			<g>
				<path d="M1285.99,450.424c-1.879,0-3.401-1.522-3.401-3.401V327.838c0-1.879,1.522-3.401,3.401-3.401h26.766
					c1.879,0,3.401,1.522,3.401,3.401v119.185c0,1.879-1.522,3.401-3.401,3.401H1285.99z M1299.428,314.386
					c-5.781,0-10.364-1.7-13.621-5.053c-3.231-3.32-4.871-7.509-4.871-12.448c0-5.002,1.634-9.241,4.857-12.6
					c3.261-3.398,7.849-5.122,13.635-5.122c5.773,0,10.373,1.717,13.672,5.104c3.272,3.364,4.931,7.609,4.931,12.617
					c0,4.945-1.664,9.14-4.946,12.467C1309.791,312.692,1305.197,314.386,1299.428,314.386z"/>
			</g>
			<g>
				<path d="M1391.184,452.627c-17.595,0-31.785-5.824-42.177-17.312c-10.305-11.389-15.529-27.203-15.529-47.004v-2.754
					c0-18.911,5.182-34.329,15.4-45.825c10.322-11.612,24.52-17.5,42.196-17.5c14.991,0,27.425,4.474,36.954,13.298
					c9.571,8.863,14.663,20.617,15.133,34.935c0.03,0.921-0.314,1.814-0.955,2.477s-1.522,1.036-2.444,1.036h-25.226
					c-1.821,0-3.32-1.435-3.398-3.255c-0.259-6.01-2.225-10.786-6.012-14.604c-3.739-3.771-8.408-5.604-14.271-5.604
					c-7.604,0-13.271,2.635-17.324,8.055c-4.233,5.654-6.415,14.592-6.483,26.565v4.277c0,12.126,2.132,21.177,6.336,26.901
					c4.02,5.478,9.735,8.14,17.472,8.14c5.879,0,10.583-1.631,14.38-4.984c3.726-3.293,5.657-7.236,5.904-12.057
					c0.093-1.808,1.587-3.227,3.397-3.227h25.226c0.926,0,1.812,0.377,2.453,1.045c0.641,0.667,0.982,1.567,0.945,2.492
					c-0.319,8.024-2.85,15.604-7.519,22.529c-4.643,6.885-11.005,12.399-18.91,16.391
					C1408.866,450.614,1400.272,452.627,1391.184,452.627z"/>
			</g>
			<g>
				<path d="M1504.862,452.627c-10.22,0-19.482-1.884-27.531-5.601c-8.163-3.766-14.629-9.047-19.219-15.695
					c-4.64-6.718-6.991-14.076-6.991-21.871c0-1.879,1.522-3.401,3.401-3.401h25.996c1.802,0,3.291,1.405,3.396,3.204
					c0.311,5.335,2.224,9.295,5.848,12.104c3.773,2.926,8.966,4.409,15.432,4.409c6.281,0,11.017-1.133,14.075-3.366
					c2.807-2.049,4.113-4.519,4.113-7.772c0-3.609-1.372-6.162-4.317-8.035c-3.566-2.264-9.767-4.333-18.425-6.149
					c-9.335-1.958-17.269-4.493-23.581-7.535c-14.581-7.049-21.973-17.529-21.973-31.153c0-11.32,4.805-20.888,14.28-28.436
					c9.244-7.363,21.075-11.097,35.164-11.097c14.974,0,27.31,3.81,36.664,11.325c9.579,7.694,14.436,17.814,14.436,30.08
					c0,1.879-1.522,3.401-3.401,3.401h-26.769c-1.879,0-3.401-1.522-3.401-3.401c0-4.165-1.503-7.534-4.593-10.299
					c-3.203-2.863-7.435-4.256-12.936-4.256c-5.107,0-9.267,1.15-12.362,3.419c-2.847,2.085-4.172,4.678-4.172,8.161
					c0,2.961,1.159,5.104,3.646,6.743c2.122,1.399,7.277,3.646,19.789,6.402c10.754,2.369,19.367,5.256,25.601,8.582
					c6.469,3.454,11.374,7.715,14.58,12.663c3.25,5.018,4.897,11.125,4.897,18.152c0,11.803-4.942,21.483-14.691,28.774
					C1532.372,449.045,1519.939,452.627,1504.862,452.627z"/>
			</g>
		</g>
	</g>
</g>
</svg>
