<?xml version="1.0" encoding="utf-8"?>
<!-- Generator: Adobe Illustrator 16.0.0, SVG Export Plug-In . SVG Version: 6.00 Build 0)  -->
<!DOCTYPE svg PUBLIC "-//W3C//DTD SVG 1.1//EN" "http://www.w3.org/Graphics/SVG/1.1/DTD/svg11.dtd">
<svg version="1.1" id="Capa_1" xmlns="http://www.w3.org/2000/svg" xmlns:xlink="http://www.w3.org/1999/xlink" x="0px" y="0px"
	 width="1842.52px" height="566.929px" viewBox="-779.53 0 1842.52 566.929" enable-background="new -779.53 0 1842.52 566.929"
	 xml:space="preserve">
<g>
	<g>
		<path d="M-288.337,0.001h-440.438c-20.272,0-36.713,16.408-36.713,36.681v367.096c0,20.256,16.44,36.714,36.713,36.714h440.438
			c20.239,0,36.747-16.458,36.747-36.714V36.682C-251.59,16.41-268.115,0.001-288.337,0.001z M-646.188,27.554
			c10.111,0,18.356,8.178,18.356,18.373c0,10.111-8.229,18.29-18.356,18.29c-10.177,0-18.39-8.162-18.39-18.29
			C-664.561,35.749-656.365,27.554-646.188,27.554z M-701.273,27.554c10.127,0,18.356,8.178,18.356,18.373
			c0,10.111-8.213,18.29-18.356,18.29c-10.146,0-18.373-8.162-18.373-18.29C-719.631,35.749-711.419,27.554-701.273,27.554z
			 M-288.337,403.794h-440.438V92.151h440.438V403.794z"/>
		<g>
			<path d="M-677.621,246.883c-0.461,0-0.924-0.113-1.345-0.34c-0.917-0.494-1.489-1.453-1.489-2.495v-25.983
				c0-0.985,0.511-1.899,1.351-2.416l59.807-36.74l-59.808-36.804c-0.838-0.516-1.349-1.43-1.349-2.414v-26.002
				c0-1.042,0.572-2,1.489-2.495c0.421-0.227,0.884-0.339,1.345-0.339c0.544,0,1.087,0.156,1.558,0.466l81.925,53.903
				c0.797,0.524,1.276,1.414,1.276,2.368v22.554c0,0.954-0.479,1.844-1.276,2.368l-81.925,53.901
				C-676.534,246.726-677.077,246.883-677.621,246.883z"/>
		</g>
		<g>
			<path d="M-572.752,246.883c-1.565,0-2.834-1.27-2.834-2.835v-18.355c0-1.565,1.269-2.834,2.834-2.834h89.594
				c1.565,0,2.834,1.269,2.834,2.834v18.355c0,1.565-1.269,2.835-2.834,2.835H-572.752z"/>
		</g>
		<g id="Capa_1_86_">
		</g>
	</g>
	<g>
		<g>
			<g>
				<path d="M-79.312,170.369c-12.121,0-23.436-2.282-33.628-6.783c-10.301-4.546-18.442-10.94-24.196-19.004
					c-5.803-8.13-8.745-17.713-8.745-28.482c0-1.565,1.269-2.834,2.834-2.834h28.288c1.565,0,2.834,1.269,2.834,2.834
					c0,8.433,2.665,14.741,8.145,19.286c5.562,4.613,13.793,6.952,24.467,6.952c9.132,0,16.001-1.802,20.417-5.357
					c4.293-3.453,6.38-7.906,6.38-13.614c0-6.284-2.108-10.962-6.444-14.302c-4.734-3.646-13.587-7.439-26.314-11.273
					c-13.296-4.002-24.061-8.546-31.994-13.504c-15.651-9.83-23.584-22.902-23.584-38.856c0-13.966,5.759-25.623,17.118-34.646
					c11.16-8.866,25.766-13.362,43.415-13.362c11.694,0,22.295,2.197,31.508,6.531c9.309,4.382,16.734,10.721,22.072,18.843
					c5.355,8.154,8.07,17.312,8.07,27.219c0,1.565-1.269,2.834-2.834,2.834H-49.68c-1.565,0-2.834-1.269-2.834-2.834
					c0-7.727-2.31-13.567-7.061-17.854c-4.768-4.302-11.822-6.483-20.967-6.483c-8.557,0-15.215,1.795-19.79,5.334
					c-4.414,3.415-6.559,8.095-6.559,14.307c0,5.047,2.323,9.179,7.101,12.631c5.234,3.784,14.125,7.555,26.429,11.208
					c12.862,3.821,23.367,8.253,31.223,13.173c8.042,5.037,14.043,10.938,17.838,17.538c3.811,6.633,5.743,14.463,5.743,23.274
					c0,14.429-5.619,26.075-16.702,34.616C-46.116,166.127-60.938,170.369-79.312,170.369z"/>
			</g>
			<g>
				<path d="M54.085,170.369c-17.927,0-32.695-5.757-43.894-17.112c-11.189-11.346-16.862-26.594-16.862-45.319v-3.355
					c0-12.458,2.449-23.769,7.279-33.619c4.87-9.938,11.821-17.793,20.659-23.347c8.843-5.556,18.831-8.373,29.686-8.373
					c17.264,0,30.836,5.638,40.34,16.758c9.392,10.99,14.153,26.62,14.153,46.456v10.958c0,1.565-1.269,2.834-2.834,2.834H26.731
					c1.139,7.827,4.104,14.161,8.833,18.859c5.348,5.315,11.917,7.899,20.085,7.899c11.633,0,20.85-4.58,28.176-14
					c0.492-0.633,1.229-1.027,2.028-1.087c0.07-0.005,0.14-0.007,0.209-0.007c0.726,0,1.428,0.279,1.957,0.784l14.648,13.977
					c0.998,0.952,1.166,2.483,0.397,3.629c-5.105,7.618-12.003,13.604-20.502,17.792C74.12,168.258,64.538,170.369,54.085,170.369z
					 M72.874,90.678c-0.657-7.899-2.828-13.917-6.459-17.898c-3.722-4.08-8.816-6.064-15.573-6.064
					c-6.66,0-11.87,2.245-15.929,6.863c-3.659,4.166-6.2,9.908-7.574,17.099H72.874z"/>
			</g>
			<g>
				<path d="M161.875,170.369c-22.337,0-34.143-12.927-34.143-37.385V67.275h-17.068c-1.565,0-2.834-1.269-2.834-2.834V44.314
					c0-1.565,1.269-2.834,2.834-2.834h17.068V14.906c0-1.565,1.269-2.834,2.834-2.834h27.172c1.565,0,2.835,1.269,2.835,2.834
					v26.574h18.523c1.565,0,2.835,1.269,2.835,2.834v20.127c0,1.565-1.27,2.834-2.835,2.834h-18.523v64.703
					c0,3.83,0.698,6.638,2.021,8.121c1.239,1.392,3.891,2.126,7.669,2.126c2.907,0,5.888-0.352,8.859-1.045
					c0.213-0.049,0.429-0.074,0.644-0.074c0.634,0,1.256,0.212,1.762,0.614c0.678,0.538,1.073,1.355,1.073,2.22v21.023
					c0,1.274-0.851,2.392-2.079,2.732C174.112,169.47,167.838,170.369,161.875,170.369z"/>
			</g>
			<g>
				<path d="M296.166,170.369c-13.912,0-24.654-4.199-31.929-12.48c-7.182-8.172-10.824-20.013-10.824-35.191V44.314
					c0-1.565,1.27-2.834,2.835-2.834h27.172c1.565,0,2.835,1.269,2.835,2.834v78.047c0,18.105,9.294,20.2,16.284,20.2
					c11.851,0,19.673-3.94,23.89-12.04V44.314c0-1.565,1.27-2.834,2.835-2.834h27.17c1.565,0,2.835,1.269,2.835,2.834v120.984
					c0,1.565-1.27,2.834-2.835,2.834H330.83c-1.503,0-2.745-1.173-2.83-2.674l-0.313-5.519
					C319.601,166.866,309.031,170.369,296.166,170.369z"/>
			</g>
			<g>
				<path d="M384.052,214.649c-1.565,0-2.835-1.269-2.835-2.834v-167.5c0-1.565,1.27-2.834,2.835-2.834h25.047
					c1.466,0,2.69,1.118,2.823,2.578l0.553,6.078c7.973-7.232,18.13-10.892,30.28-10.892c15.621,0,28.061,5.924,36.973,17.608
					c8.732,11.45,13.161,27.433,13.161,47.507v1.677c0,19.26-4.484,34.905-13.327,46.501c-9.024,11.833-21.294,17.832-36.469,17.832
					c-11.483,0-21.22-3.153-29.034-9.389v50.834c0,1.565-1.27,2.834-2.835,2.834H384.052z M414.059,131.04
					c4.448,8.052,11.43,11.969,21.319,11.969c7.735,0,13.613-3.025,17.971-9.247c4.521-6.454,6.812-16.572,6.812-30.074
					c0-11.44-2.261-20.573-6.722-27.145c-4.285-6.312-10.267-9.38-18.285-9.38c-9.813,0-16.721,3.809-21.095,11.638V131.04z"/>
			</g>
			<g>
				<path d="M-40.735,442.933c-1.24,0-2.336-0.807-2.706-1.99l-23.211-74.339l-22.809,74.326c-0.365,1.19-1.465,2.003-2.71,2.003
					h-22.363c-1.277,0-2.397-0.854-2.734-2.087l-33.098-120.985c-0.233-0.853-0.055-1.766,0.481-2.468s1.37-1.115,2.253-1.115h26.5
					c1.314,0,2.456,0.903,2.758,2.182l17.134,72.353l21.785-72.515c0.36-1.198,1.463-2.02,2.715-2.02h20.462
					c1.25,0,2.354,0.82,2.714,2.018l22.078,73.301l16.836-73.119c0.296-1.287,1.442-2.199,2.762-2.199h26.5
					c0.883,0,1.716,0.412,2.252,1.114c0.537,0.702,0.715,1.614,0.482,2.467l-32.986,120.985c-0.336,1.232-1.457,2.089-2.735,2.089
					H-40.735z"/>
			</g>
			<g>
				<path d="M84.051,445.168c-17.829,0-32.325-6.053-43.085-17.988c-10.686-11.851-16.104-27.782-16.104-47.352v-1.342
					c0-12.237,2.469-23.438,7.337-33.291c4.918-9.954,11.941-17.723,20.873-23.09c8.905-5.351,19.252-8.064,30.755-8.064
					c17.046,0,31.105,5.595,41.787,16.629c10.621,10.971,16.438,25.659,17.288,43.657l0.114,6.458
					c0.001,12.354-2.409,23.531-7.162,33.271c-4.807,9.848-11.793,17.583-20.765,22.989
					C106.146,442.436,95.703,445.168,84.051,445.168z M83.827,341.516c-7.995,0-14.162,3.08-18.854,9.418
					c-4.826,6.514-7.272,16.573-7.272,29.901c0,11.775,2.413,21.05,7.17,27.568c4.621,6.327,10.895,9.402,19.18,9.402
					c8.271,0,14.52-3.122,19.105-9.546c4.732-6.633,7.132-16.649,7.132-29.773c0-11.552-2.467-20.769-7.333-27.394
					C98.223,344.649,91.966,341.516,83.827,341.516z"/>
			</g>
			<g>
				<path d="M163.105,442.933c-1.565,0-2.835-1.27-2.835-2.835V319.113c0-1.565,1.27-2.835,2.835-2.835h25.941
					c1.511,0,2.756,1.186,2.831,2.694l0.286,5.755c6.548-7.098,14.872-10.686,24.837-10.686c4.229,0,7.827,0.599,10.694,1.778
					c1.067,0.438,1.762,1.48,1.757,2.634l-0.111,25.494c-0.004,0.831-0.372,1.618-1.007,2.154c-0.516,0.435-1.164,0.668-1.828,0.668
					c-0.155,0-0.311-0.013-0.466-0.039c-3.408-0.567-6.976-0.854-10.604-0.854c-11.094,0-18.403,3.962-22.324,12.107v82.114
					c0,1.565-1.27,2.835-2.835,2.835H163.105z"/>
			</g>
			<g>
				<path d="M318.863,442.933c-0.931,0-1.802-0.457-2.331-1.223l-33.931-49.049l-8.872,9.116v38.32c0,1.565-1.27,2.835-2.835,2.835
					h-27.17c-1.565,0-2.835-1.27-2.835-2.835V268.349c0-1.565,1.27-2.835,2.835-2.835h27.17c1.565,0,2.835,1.27,2.835,2.835v90.988
					l3.452-4.313c0.029-0.038,0.061-0.075,0.093-0.11l33.432-37.682c0.538-0.606,1.31-0.954,2.12-0.954h32.65
					c1.117,0,2.13,0.656,2.587,1.676c0.457,1.019,0.272,2.212-0.471,3.045l-43.451,48.749l48.46,68.717
					c0.61,0.865,0.688,1.998,0.2,2.938c-0.487,0.939-1.458,1.53-2.517,1.53H318.863z"/>
			</g>
			<g>
				<path d="M408.765,445.168c-10.283,0-19.599-1.894-27.689-5.629c-8.188-3.779-14.669-9.069-19.261-15.724
					c-4.636-6.715-6.986-14.065-6.986-21.848c0-1.565,1.27-2.835,2.835-2.835h26.389c1.502,0,2.742,1.171,2.83,2.67
					c0.326,5.605,2.346,9.772,6.176,12.74c3.942,3.056,9.34,4.604,16.041,4.604c6.512,0,11.442-1.189,14.654-3.534
					c2.98-2.176,4.429-4.921,4.429-8.391c0-3.896-1.483-6.652-4.668-8.677c-3.682-2.338-10.044-4.467-18.909-6.327
					c-9.421-1.975-17.427-4.531-23.795-7.6c-14.568-7.041-21.954-17.493-21.954-31.068c0-11.292,4.799-20.841,14.262-28.382
					c9.274-7.384,21.154-11.128,35.312-11.128c15.055,0,27.446,3.822,36.828,11.36c9.57,7.686,14.423,17.797,14.423,30.051
					c0,1.565-1.27,2.835-2.835,2.835h-27.172c-1.565,0-2.835-1.27-2.835-2.835c0-4.413-1.593-7.983-4.869-10.915
					c-3.369-3.013-7.798-4.477-13.54-4.477c-5.319,0-9.665,1.207-12.917,3.59c-3.019,2.212-4.486,5.085-4.486,8.782
					c0,3.233,1.265,5.573,3.98,7.362c2.199,1.45,7.504,3.77,20.296,6.586c10.865,2.395,19.554,5.307,25.825,8.653
					c6.478,3.459,11.381,7.714,14.574,12.646c3.233,4.991,4.873,11.077,4.873,18.087c0,11.774-4.935,21.436-14.666,28.715
					C436.431,441.573,423.934,445.168,408.765,445.168z"/>
			</g>
			<g>
				<path d="M519.574,445.168c-22.335,0-34.142-12.929-34.142-37.387v-65.707h-17.069c-1.565,0-2.835-1.27-2.835-2.835v-20.127
					c0-1.565,1.27-2.835,2.835-2.835h17.069v-26.573c0-1.565,1.27-2.835,2.835-2.835h27.17c1.565,0,2.835,1.27,2.835,2.835v26.573
					h18.522c1.565,0,2.835,1.27,2.835,2.835v20.127c0,1.565-1.27,2.835-2.835,2.835h-18.522v64.701c0,3.831,0.698,6.639,2.021,8.12
					c1.238,1.393,3.89,2.126,7.668,2.126c2.91,0,5.891-0.351,8.86-1.043c0.213-0.05,0.429-0.074,0.644-0.074
					c0.634,0,1.256,0.213,1.763,0.614c0.677,0.538,1.072,1.355,1.072,2.221v21.022c0,1.274-0.851,2.392-2.078,2.731
					C531.815,444.268,525.541,445.168,519.574,445.168z"/>
			</g>
			<g>
				<path d="M594.939,445.168c-12.818,0-23.466-3.745-31.646-11.13c-8.262-7.461-12.451-16.821-12.451-27.821
					c0-13.799,5.231-24.562,15.548-31.989c10.028-7.216,24.41-10.875,42.748-10.875h13.827v-5.105c0-5.568-1.471-9.856-4.496-13.108
					c-2.931-3.146-7.613-4.741-13.917-4.741c-5.508,0-10.035,1.357-13.458,4.036c-3.257,2.549-4.84,5.678-4.84,9.566
					c0,1.565-1.27,2.835-2.835,2.835h-27.172c-1.565,0-2.835-1.27-2.835-2.835c0-7.235,2.415-14.077,7.177-20.336
					c4.678-6.141,11.095-11.008,19.075-14.469c7.894-3.42,16.794-5.154,26.454-5.154c14.784,0,26.799,3.818,35.71,11.349
					c9.035,7.636,13.737,18.448,13.976,32.138l0.001,54.616c0,10.412,1.451,18.771,4.313,24.845c0.178,0.378,0.271,0.79,0.271,1.208
					v1.901c0,1.565-1.27,2.835-2.835,2.835h-27.73c-1.061,0-2.033-0.593-2.52-1.536c-0.888-1.722-1.677-4.043-2.385-7.029
					C616.481,441.54,606.419,445.168,594.939,445.168z M611.15,386.129c-9.43,0-16.523,1.599-21.083,4.752
					c-4.294,2.969-6.381,7.069-6.381,12.539c0,4.414,1.39,7.801,4.25,10.353c2.957,2.64,6.894,3.922,12.034,3.922
					c4.855,0,9.492-1.198,13.782-3.562c4.005-2.208,7.102-5.156,9.213-8.771v-19.233H611.15z"/>
			</g>
			<g>
				<path d="M719.613,445.168c-22.337,0-34.144-12.929-34.144-37.387v-65.707H668.4c-1.565,0-2.835-1.27-2.835-2.835v-20.127
					c0-1.565,1.27-2.835,2.835-2.835h17.069v-26.573c0-1.565,1.27-2.835,2.835-2.835h27.17c1.565,0,2.835,1.27,2.835,2.835v26.573
					h18.522c1.565,0,2.835,1.27,2.835,2.835v20.127c0,1.565-1.27,2.835-2.835,2.835h-18.522v64.701c0,3.829,0.699,6.638,2.022,8.12
					c1.237,1.393,3.888,2.126,7.668,2.126c2.91,0,5.891-0.351,8.86-1.043c0.213-0.05,0.429-0.074,0.644-0.074
					c0.634,0,1.256,0.213,1.763,0.614c0.677,0.538,1.072,1.355,1.072,2.221v21.022c0,1.274-0.851,2.392-2.078,2.731
					C731.852,444.268,725.578,445.168,719.613,445.168z"/>
			</g>
			<g>
				<path d="M759.306,442.933c-1.565,0-2.835-1.27-2.835-2.835V319.113c0-1.565,1.27-2.835,2.835-2.835h27.172
					c1.565,0,2.835,1.27,2.835,2.835v120.985c0,1.565-1.27,2.835-2.835,2.835H759.306z M772.949,304.839
					c-5.694,0-10.196-1.663-13.383-4.941c-3.165-3.255-4.771-7.362-4.771-12.205c0-4.909,1.601-9.068,4.758-12.361
					c3.189-3.325,7.696-5.011,13.396-5.011c5.688,0,10.209,1.681,13.436,4.995c3.204,3.295,4.829,7.458,4.829,12.377
					c0,4.853-1.63,8.964-4.843,12.221C783.148,303.181,778.632,304.839,772.949,304.839z"/>
			</g>
			<g>
				<path d="M867.322,445.168c-17.83,0-32.327-6.053-43.088-17.988c-10.685-11.85-16.103-27.781-16.103-47.352v-1.342
					c0-12.236,2.469-23.438,7.337-33.291c4.919-9.952,11.941-17.721,20.871-23.09c8.91-5.351,19.258-8.064,30.758-8.064
					c17.044,0,31.104,5.595,41.786,16.629c10.621,10.973,16.438,25.661,17.289,43.657l0.114,6.458
					c0.001,12.353-2.41,23.53-7.163,33.271c-4.807,9.847-11.792,17.581-20.765,22.989
					C889.415,442.436,878.972,445.168,867.322,445.168z M867.097,341.516c-7.994,0-14.162,3.081-18.856,9.419
					c-4.824,6.513-7.27,16.573-7.27,29.9c0,11.775,2.412,21.051,7.169,27.568c4.621,6.327,10.896,9.402,19.182,9.402
					c8.271,0,14.52-3.122,19.103-9.546c4.733-6.631,7.133-16.648,7.133-29.773c0-11.552-2.466-20.769-7.331-27.394
					C881.494,344.649,875.237,341.516,867.097,341.516z"/>
			</g>
			<g>
				<path d="M1018.945,442.933c-1.565,0-2.835-1.27-2.835-2.835v-78.383c0-6.919-1.431-12.019-4.251-15.156
					c-2.743-3.051-7.507-4.597-14.16-4.597c-9.694,0-16.785,4.18-21.653,12.771v85.365c0,1.565-1.27,2.835-2.835,2.835h-27.172
					c-1.565,0-2.835-1.27-2.835-2.835V319.113c0-1.565,1.27-2.835,2.835-2.835h25.607c1.504,0,2.746,1.175,2.83,2.677l0.414,7.396
					c8.807-8.173,19.797-12.309,32.76-12.309c26.931,0,40.825,15.498,41.297,46.063l0.001,79.993c0,1.565-1.27,2.835-2.835,2.835
					H1018.945z"/>
			</g>
		</g>
	</g>
</g>
</svg>
