<?xml version="1.0" encoding="utf-8"?>
<!-- Generator: Adobe Illustrator 16.0.0, SVG Export Plug-In . SVG Version: 6.00 Build 0)  -->
<!DOCTYPE svg PUBLIC "-//W3C//DTD SVG 1.1//EN" "http://www.w3.org/Graphics/SVG/1.1/DTD/svg11.dtd">
<svg version="1.1" xmlns="http://www.w3.org/2000/svg" xmlns:xlink="http://www.w3.org/1999/xlink" x="0px" y="0px"
	 width="513.793px" height="150px" viewBox="0 0 513.793 150" enable-background="new 0 0 513.793 150" xml:space="preserve">
<g id="Layer_2" display="none">
	<rect x="-190.104" y="-47.129" display="inline" width="894" height="247.244"/>
</g>
<g id="Layer_1">
	<path fill-rule="evenodd" clip-rule="evenodd" fill="#FFFFFF" d="M253.648,45.667c-0.258-1.205-0.611-2.39-0.948-3.581
		c-0.569-2.004-1.485-3.849-3.026-5.281c-1.631-1.525-3.589-2.272-5.863-2.388c-3.321-0.172-6.491,0.515-9.615,1.507
		c-1.289,0.411-2.576,0.806-3.863,1.201c-1.294,0.402-2.614,0.715-3.865,1.209c-1.904,0.755-3.841,1.39-5.85,1.778
		c-0.257,0.054-0.53,0.058-0.785,0.128c-1.128,0.291-2.277,0.367-3.365-0.072c-0.714-0.283-1.286-0.727-1.886-1.212
		c-0.523-0.425-0.412-1.149-0.442-1.757c-0.046-0.869,0.216-1.354,0.506-2.534c0.107-0.18,0.148-0.396,0.236-0.591
		c0.719-1.616,0.842-2.27,1.658-3.177c0.739-0.808,1.427-1.485,2.279-2.167c1.04-0.829,2.144-1.472,3.269-2.178
		c0.593-0.377,1.279-0.592,1.93-0.873c1.37-0.594,2.59-1.189,4.003-1.654c2.519-0.836,4.938-1.823,7.657-1.971
		c1.169-0.062,2.301-0.542,3.504-0.272c1.092,0.235,2.204,0.335,3.277,0.608c0.846,0.213,1.65,0.603,2.501,0.925
		c0.62-1.42,1.238-3.063,1.893-4.569c-0.341-0.044-0.682-0.292-0.926-0.313c-2.305-0.21-4.498-0.565-6.817-0.714
		c-0.668-0.044-1.349,0.21-2.034,0.304c-1.747,0.238-3.519,0.331-5.225,0.736c-1.999,0.472-3.941,1.17-5.896,1.838
		c-2.689,0.916-5.23,2.149-7.567,3.755c-1.42,0.973-2.816,2.002-4.088,3.154c-1.126,1.018-2.161,2.172-3.063,3.397
		c-1.356,1.849-2.395,3.893-3.058,6.112c-0.845,2.848-1.222,5.708-0.399,8.636c0.315,1.112,0.846,2.055,1.702,2.854
		c0.963,0.897,2.134,1.251,3.367,1.359c1.435,0.131,2.869-0.061,4.293-0.322c1.689-0.308,3.367-0.64,4.997-1.209
		c1.098-0.389,2.233-0.691,3.337-1.065c2.134-0.727,4.244-1.518,6.385-2.2c2.285-0.729,3.953-1.402,6.271-2.023
		c1.083-0.285,2.195-0.531,3.356-0.252c1.03,0.248,1.978,0.621,2.68,1.414c0.793,0.913,1.19,2.034,1.438,3.216
		c0.229,1.033,0.266,2.075,0.158,3.116c-0.079,0.734-0.189,1.484-0.42,2.185c-0.297,0.887-0.812,1.7-1.083,2.59
		c-0.291,0.921-0.837,1.624-1.432,2.336c-0.613,0.733-1.176,1.504-1.776,2.249c-0.592,0.731-1.064,1.464-1.688,2.162
		c-0.478,0.523-0.996,1.013-1.508,1.49c-0.647,0.584-1.27,1.088-1.962,1.603c-1.728,1.254-3.108,2.195-5.014,3.134
		c-1.118,0.542-1.589,0.792-2.742,1.243c-1.262,0.499-2.562,0.932-3.864,1.292c-1.154,0.315-2.344,0.517-3.53,0.727
		c-0.523,0.095-1.065,0.083-1.596,0.125c-1.015,0.08-2.04,0.285-3.046,0.206c-1.371-0.096-2.773,0.028-4.093-0.523
		c-0.958-0.393-1.98-0.654-2.929-1.08c-0.727-0.329-1.386-0.808-2.07-1.223c-0.892-0.546-1.782-1.103-2.688-1.654
		c-0.075,0.065-0.161,0.13-0.232,0.21c-1.088,1.182-2.789,2.696-3.896,3.864c-0.392,0.411-0.893,0.713-1.298,1.111
		c-0.883,0.856-1.738,1.739-2.603,2.608c-0.331,0.341-0.659,0.682-1.007,1.042c0.096,0.094,0.143,0.147,0.199,0.182
		c1.734,1.103,3.464,2.215,5.205,3.308c1.056,0.654,2.07,1.43,3.205,1.899c3.293,1.361,6.703,2.278,10.324,2.091
		c0.434-0.029,0.941,0.168,1.225-0.385c0.027-0.061,0.188-0.064,0.292-0.068c0.547-0.028,1.081-0.046,1.631-0.161
		c0.506-0.11,1.069-0.05,1.607-0.185c0.518-0.13,1.095,0.038,1.567-0.345c0.143-0.112,0.406-0.066,0.616-0.094
		c0.276-0.039,0.573-0.023,0.817-0.125c0.886-0.393,1.867-0.436,2.749-0.89c0.577-0.297,1.309-0.331,1.937-0.653
		c0.65-0.335,1.381-0.509,2.061-0.789c0.364-0.138,0.693-0.343,1.041-0.5c0.323-0.145,0.673-0.237,0.986-0.391
		c0.444-0.217,0.867-0.474,1.304-0.7c1.093-0.572,2.2-1.101,3.268-1.717c0.969-0.546,1.885-1.167,2.811-1.78
		c0.979-0.651,1.966-1.301,2.903-2.013c0.705-0.538,1.349-1.156,1.992-1.766c1.234-1.163,2.461-2.317,3.653-3.522
		c0.777-0.794,1.541-1.631,2.182-2.551c0.775-1.107,1.448-2.289,2.074-3.488c0.589-1.106,1.055-2.277,1.561-3.431
		c0.191-0.435,0.339-0.895,0.473-1.35c0.27-1,0.662-1.996,0.755-3.018c0.175-1.875,0.516-3.75,0.237-5.65
		C253.84,47.319,253.827,46.477,253.648,45.667z"/>
	<linearGradient id="SVGID_1_" gradientUnits="userSpaceOnUse" x1="176.4287" y1="69.0313" x2="481.3751" y2="69.0313">
		<stop  offset="0" style="stop-color:#F9ED32"/>
		<stop  offset="0.5376" style="stop-color:#ED1C24"/>
		<stop  offset="1" style="stop-color:#92278F"/>
	</linearGradient>
	<path fill-rule="evenodd" clip-rule="evenodd" fill="url(#SVGID_1_)" d="M230.36,69.058c0.505-0.208,0.993-0.448,1.466-0.722
		c-1.241,0.462-2.517,0.84-3.732,1.39C228.873,69.556,229.632,69.355,230.36,69.058z"/>
	<g>
		<polygon fill="#FFFFFF" points="295.691,62.171 286.52,39.264 281.733,39.264 281.733,67.34 285.432,67.34 285.432,56.406 
			285.069,44.663 294.271,67.34 297.105,67.34 306.313,44.606 305.969,56.406 305.969,67.34 309.669,67.34 309.669,39.264 
			304.874,39.264 		"/>
		<path fill="#FFFFFF" d="M328.323,54.527c-0.041-1.863-0.666-3.327-1.877-4.394c-1.201-1.062-2.867-1.592-4.991-1.592
			c-1.344,0-2.578,0.251-3.69,0.749c-1.124,0.503-2.015,1.182-2.668,2.039c-0.651,0.86-0.977,1.751-0.977,2.669h3.17
			c0-0.805,0.385-1.493,1.144-2.062c0.76-0.569,1.703-0.856,2.832-0.856c1.282,0,2.262,0.331,2.92,0.982
			c0.655,0.657,0.983,1.532,0.983,2.634v1.451h-3.066c-2.647,0-4.708,0.532-6.169,1.597c-1.463,1.063-2.194,2.553-2.194,4.477
			c0,1.58,0.588,2.885,1.753,3.916c1.164,1.026,2.653,1.542,4.481,1.542c2.03,0,3.784-0.76,5.252-2.288
			c0.113,0.934,0.256,1.584,0.441,1.948h3.313v-0.276c-0.441-1-0.657-2.345-0.657-4.042V54.527z M325.169,62.17
			c-0.399,0.82-1.041,1.482-1.924,1.995c-0.892,0.513-1.829,0.77-2.815,0.77c-1.037,0-1.883-0.282-2.54-0.836
			c-0.656-0.559-0.995-1.334-0.995-2.324c0-2.262,1.939-3.391,5.807-3.391h2.468V62.17z"/>
		<polygon fill="#FFFFFF" points="334.996,47.018 332.3,47.018 332.3,67.34 344.628,67.34 344.628,65.149 334.996,65.149 		"/>
		<polygon fill="#FFFFFF" points="355.972,65.634 348.485,65.634 348.485,51.533 346.391,51.533 346.391,63.181 346.596,63.181 
			346.596,67.34 355.972,67.34 		"/>
		<rect x="346.391" y="63.181" fill="#FFFFFF" width="0.205" height="4.159"/>
	</g>
	<linearGradient id="SVGID_2_" gradientUnits="userSpaceOnUse" x1="176.5386" y1="47.1777" x2="480.873" y2="47.1777">
		<stop  offset="0" style="stop-color:#FFFFFF;stop-opacity:0.8"/>
		<stop  offset="0.98" style="stop-color:#FFFFFF;stop-opacity:0"/>
	</linearGradient>
	<path fill-rule="evenodd" clip-rule="evenodd" fill="url(#SVGID_2_)" d="M235.25,46.015c-0.006-0.002-0.013-0.003-0.024-0.006
		c1.097-0.374,2.163-0.73,3.409-1.067c0.595-0.157,1.219-0.31,1.781-0.31c0.218,0,0.421,0.025,0.616,0.072
		c0.846,0.204,1.344,0.44,1.658,0.799c0.456,0.524,0.766,1.243,0.994,2.323c0.175,0.802,0.211,1.645,0.12,2.505
		c-0.054,0.562-0.14,1.208-0.328,1.769c-0.106,0.319-0.266,0.669-0.443,1.04c-0.019,0.044-0.043,0.095-0.067,0.137
		c-0.091-0.163-0.174-0.325-0.273-0.483c-0.91-1.455-2.071-2.701-3.396-3.795c-0.789-0.661-1.597-1.306-2.424-1.927
		C236.354,46.683,235.832,46.267,235.25,46.015z M247.7,21.827c-0.301,0.762-0.622,1.546-0.938,2.272l-0.171,0.397
		c0.69,0.502,1.426,0.945,2.097,1.481c0.773,0.625,1.468,1.364,2.232,2c0.67,0.551,1.392,1.03,2.097,1.546
		c0.214,0.161,0.425,0.336,0.623,0.519c0.136,0.13,0.247,0.294,0.379,0.443c0.687,0.826,1.403,1.639,2.054,2.496
		c0.625,0.813,1.188,1.672,1.767,2.514c0.038,0.056,0.09,0.145,0.13,0.147c0.672,0.021,0.832,0.567,1.1,1.014
		c0.12,0.213,0.266,0.42,0.453,0.579c0.836,0.734,1.262,1.677,1.547,2.733c0.182,0.671,0.527,1.292,0.741,1.958
		c0.227,0.708,0.402,1.436,0.585,2.165c0.147,0.624,0.273,1.254,0.402,1.883c0.053,0.219,0.115,0.441,0.115,0.668
		c0.021,1.092-0.014,2.182,0.021,3.28c0.009,0.434,0.139,0.864,0.148,1.293c0.012,0.463-0.052,0.925-0.086,1.383
		c-0.03,0.561-0.054,1.124-0.097,1.682c-0.009,0.138-0.006,0.319-0.079,0.406c-0.546,0.586-0.514,1.308-0.41,1.995
		c0.156,1.088-0.307,1.967-0.75,2.877c-0.232,0.458-0.382,0.943-0.591,1.495c-0.492-0.462-0.778-0.799-0.72-1.406
		c0.065-0.654-0.107-1.299-0.678-1.746c-0.094-0.074-0.176-0.188-0.201-0.3c-0.21-0.792-0.378-1.603-0.611-2.386
		c-0.143-0.464-0.384-0.894-0.593-1.333c-0.257-0.533-0.524-1.066-0.804-1.587c-0.197-0.375-0.424-0.728-0.655-1.081
		c-0.256-0.403-0.52-0.807-0.781-1.207c-0.019,0.962-0.12,1.899-0.223,2.818c-0.048,0.381-0.087,0.762-0.124,1.147
		c-0.082,0.942-0.357,1.816-0.593,2.591c-0.081,0.256-0.161,0.511-0.226,0.766c-0.168,0.596-0.354,1.125-0.565,1.611l-0.307,0.711
		c-0.393,0.937-0.809,1.902-1.312,2.85c-0.764,1.468-1.467,2.648-2.2,3.699c-0.767,1.105-1.686,2.079-2.4,2.802
		c-1.053,1.075-2.157,2.113-3.22,3.118l-0.672,0.637c-0.612,0.576-1.243,1.169-1.962,1.719c-0.913,0.693-1.854,1.321-2.762,1.929
		l-0.515,0.341c-0.848,0.563-1.729,1.143-2.646,1.67c-0.742,0.426-1.509,0.81-2.242,1.183c-0.299,0.152-0.593,0.306-0.893,0.462
		c0.116,0.203,0.181,0.501,0.112,0.683c-0.203,0.543-0.47,1.079-0.802,1.547c-0.667,0.943-1.385,1.863-2.24,2.653
		c-0.462,0.434-0.887,0.911-1.39,1.27c-0.502,0.347-1.084,0.596-1.649,0.826c-0.481,0.198-0.991,0.35-1.49,0.446
		c-0.485,0.096-0.99,0.075-1.471,0.121c-1.001,0.104-1.991,0.217-2.988,0.32c-0.511,0.049-0.817,0.36-0.948,0.801
		c-0.139,0.476,0.348,0.42,0.597,0.561c0.056,0.038,0.111,0.094,0.168,0.121c0.666,0.286,1.302,0.664,1.986,0.816
		c0.939,0.213,1.924,0.292,2.884,0.343c0.943,0.041,1.899,0.051,2.838-0.044c1.405-0.142,2.808-0.474,4.214-0.567
		c1.425-0.099,2.779-0.431,4.092-0.883c1.065-0.359,2.094-0.901,3.064-1.481c1.084-0.64,2.079-1.411,3.106-2.139
		c0.397-0.276,0.757-0.596,1.143-0.897c0.646-0.504,1.404-0.888,1.722-1.729c0.052-0.136,0.205-0.232,0.327-0.322
		c0.359-0.262,0.757-0.477,1.079-0.771c0.285-0.266,0.528-0.598,0.757-0.921c0.185-0.251,0.29-0.56,0.49-0.785
		c0.369-0.42,0.864-0.751,1.173-1.208c0.458-0.674,0.792-1.438,1.195-2.156c0.265-0.451,0.587-0.874,0.818-1.346
		c0.416-0.85,0.826-1.704,1.165-2.577c0.441-1.152,0.909-2.306,1.185-3.5c0.2-0.839,0.094-1.759,0.152-2.631
		c0.082-1.23-0.168-2.416-0.348-3.613c-0.099-0.69-0.092-1.399-0.058-2.093c0.01-0.177,0.31-0.438,0.51-0.472
		c0.982-0.167,1.832,0.151,1.915,1.43c0.01,0.158,0.071,0.314,0.097,0.467c0.187,1.002,0.405,2,0.539,3.003
		c0.164,1.183,0.267,2.366,0.361,3.558c0.071,0.998,0.144,2.002,0.139,3.007c-0.007,0.823-0.135,1.648-0.212,2.475
		c-0.06,0.604-0.06,1.226-0.189,1.814c-0.184,0.806-0.431,1.594-0.714,2.361c-0.323,0.893-0.655,1.799-1.09,2.646
		c-0.292,0.555-0.751,1.032-1.144,1.536c-0.511,0.659-1.02,1.308-1.543,1.948c-0.158,0.206-0.411,0.346-0.551,0.561
		c-0.588,0.852-1.346,1.544-2.165,2.149c-0.719,0.532-1.348,1.103-1.681,1.941c-0.182,0.485-0.361,0.983-0.464,1.488
		c-0.033,0.167,0.129,0.471,0.294,0.565c0.211,0.125,0.517,0.158,0.762,0.13c0.863-0.121,1.689-0.28,2.352-0.995
		c0.557-0.591,1.313-0.976,1.944-1.503c0.855-0.72,1.7-1.46,2.514-2.238c1.014-0.958,2.001-1.946,2.956-2.966
		c0.637-0.677,1.231-1.404,1.776-2.155c0.556-0.77,1.064-1.583,1.554-2.405c0.897-1.531,1.812-3.064,2.636-4.639
		c0.451-0.862,0.729-1.818,1.094-2.733c0.384-0.948,0.857-1.859,0.928-2.911c0.015-0.22,0.104-0.472,0.254-0.623
		c0.446-0.48,0.574-1.077,0.652-1.675c0.111-0.939,0.103-1.898,0.277-2.824c0.267-1.462,0.817-2.877,0.58-4.405
		c-0.012-0.086,0.017-0.18,0.017-0.264c0.037-1.976,0.179-3.958,0.058-5.919c-0.131-2.035-0.42-4.072-1.06-6.029
		c-0.102-0.302-0.197-0.61-0.225-0.922c-0.033-0.225,0.051-0.468,0.081-0.697c0.063-0.004,0.126-0.004,0.181-0.009
		c0.093,0.177,0.173,0.371,0.279,0.539c0.547,0.846,0.491,1.899,1.03,2.777c0.361,0.607,0.437,1.392,0.654,2.088
		c0.096,0.304,0.138,0.766,0.344,0.855c0.614,0.282,0.522,0.832,0.598,1.285c0.245,1.519,0.43,3.048,0.645,4.574
		c0.014,0.098,0.108,0.184,0.133,0.28c0.164,0.588,0.436,1.175,0.436,1.762c0.001,1.219-0.147,2.443-0.228,3.658
		c-0.007,0.153,0.075,0.308,0.105,0.461c0.049,0.186,0.105,0.375,0.112,0.561c0.052,1.07,0.137,2.135,0.096,3.196
		c-0.026,0.872,0.219,1.817-0.445,2.587c-0.053,0.056-0.035,0.172-0.035,0.253c-0.021,0.471,0.019,0.952-0.045,1.421
		c-0.082,0.644-0.161,1.295-0.366,1.91c-0.272,0.788-0.679,1.527-0.981,2.308c-0.132,0.338-0.211,0.716-0.229,1.077
		c-0.025,0.442-0.07,0.918,0.074,1.319c0.2,0.574,0.645,0.598,1.023,0.12c0.146-0.189,0.218-0.436,0.346-0.643
		c0.146-0.235,0.288-0.577,0.5-0.649c0.648-0.203,0.743-0.674,0.841-1.238c0.069-0.451,0.21-1.03,0.53-1.269
		c0.723-0.54,0.741-1.205,0.728-1.964c-0.005-0.376,0.002-0.823,0.182-1.116c0.584-0.912,0.941-1.896,1.251-2.911
		c0.058-0.163-0.06-0.504-0.205-0.584c-0.354-0.177-0.159-0.317-0.053-0.521c0.198-0.38,0.429-0.771,0.527-1.18
		c0.119-0.513,0.123-1.065,0.189-1.698c0.075,0.189,0.116,0.257,0.144,0.324c0.106-0.42,0.379-0.877,0.271-1.228
		c-0.135-0.412,0.042-0.664,0.14-0.977c0.034-0.13,0.082-0.271,0.09-0.407c0.073-2.048-0.122-4.099,0.44-6.143
		c0.283-1.019,0.031-2.203-0.046-3.305c-0.049-0.58-0.345-1.135-0.385-1.713c-0.087-1.116-0.005-2.233-0.427-3.311
		c-0.243-0.637-0.268-1.366-0.556-1.966c-0.289-0.567-0.393-1.119-0.4-1.722c-0.01-0.626-0.258-1.139-0.643-1.63
		c-0.271-0.33-0.545-0.748-0.582-1.149c-0.107-1.098-0.478-2.037-1.191-2.873c-0.424-0.5-0.746-1.086-1.148-1.613
		c-0.421-0.555-0.372-1.377-1.042-1.787c-0.112-0.071-0.108-0.324-0.16-0.492c-0.092-0.336-0.111-0.727-0.284-1.009
		c-0.245-0.374-0.605-0.664-0.911-0.991c-0.574-0.614-1.13-1.238-1.704-1.843c-0.818-0.856-1.622-1.735-2.486-2.535
		c-1.032-0.961-2.111-1.863-3.205-2.755c-0.734-0.608-1.546-1.113-2.261-1.743c-1.035-0.923-2.266-1.509-3.457-2.154
		c-0.654-0.359-1.341-0.688-2.042-0.962c-1.021-0.397-2.05-0.908-3.12-1.064c-0.628-0.092-1.231-0.259-1.826-0.45l-0.065,0.167
		C248.33,20.271,248.01,21.063,247.7,21.827z M480.848,75.428c-0.115-0.168-0.359-0.285-0.589-0.336
		c-0.284-0.075-0.605-0.089-0.914-0.097c-0.207-0.003-0.412,0.04-0.612,0.092c-1.01,0.274-2,0.574-3.019,0.832
		c-0.421,0.107-0.863,0.103-1.289,0.18c-1.243,0.217-2.478,0.525-3.729,0.652c-1.459,0.159-2.935,0.237-4.401,0.229
		c-4.572-0.019-9.159-0.072-13.749-0.15c-1.242-0.028-2.489-0.144-3.72-0.28c-1.096-0.112-2.169-0.393-3.251-0.454
		c-1.951-0.116-3.914-0.202-5.854-0.144c-2.24,0.07-4.394-0.444-6.587-0.675c-1.026-0.104-2.06-0.213-3.083-0.292
		c-0.197-0.009-0.401,0.159-0.606,0.173c-0.401,0.015-0.804-0.028-1.206-0.035c-2.097-0.04-4.197-0.035-6.293-0.129
		c-1.069-0.049-2.223,0.23-3.177-0.545c-0.044-0.045-0.126-0.047-0.202-0.052c-0.96-0.085-1.92-0.17-2.879-0.266
		c-0.249-0.024-0.478-0.117-0.713-0.176c0.335-0.245,0.748-0.353,0.373-0.693c-0.461,0.045-0.835,0.163-1.17,0.1
		c-0.995-0.175-1.986-0.466-2.99-0.614c-1.033-0.159-2.079-0.234-3.127-0.308c-1.184-0.084-2.376-0.127-3.717-0.192
		c0.229-0.145,0.304-0.199,0.495-0.318c-1.229-0.257-2.334-0.592-3.472-0.698c-1.976-0.194-3.968-0.213-5.947-0.354
		c-0.967-0.069-1.93-0.236-2.892-0.39c-0.383-0.063-0.747-0.273-1.131-0.292c-1.651-0.075-3.308-0.178-4.949-0.14
		c-2.516,0.065-4.987-0.21-7.452-0.647c-0.895-0.157-1.824-0.126-2.726-0.145c-0.934-0.012-1.873,0.096-2.796,0.002
		c-0.685-0.065-1.467-0.208-1.967-0.612c-0.587-0.483-1.21-0.486-1.833-0.551c-1.257-0.131-2.527-0.146-3.788-0.229
		c-1.607-0.11-3.209-0.257-4.808-0.374c-0.599-0.044-1.202-0.079-1.791-0.086c-0.457-0.007-0.904-0.01-1.349-0.012v1.902h-11.345
		h-15.658h-6.487l-0.324-0.644c-1.263,0.653-2.651,0.987-4.152,0.987c-2.306,0-4.256-0.69-5.778-2.037
		c-0.521-0.461-0.961-0.977-1.313-1.53c-0.393-0.028-0.773-0.075-1.166-0.15c-0.027-0.005-0.056-0.018-0.081-0.023v3.397H304v-2.989
		c-1.089,0.114-2.179,0.229-3.279,0.347c-0.42,0.039-0.843,0.066-1.264,0.092l-1.035,2.55h-5.479l-0.98-2.425
		c-0.261,0-0.511-0.002-0.771,0c-0.654,0.009-1.323,0.023-1.967,0.168c-0.615,0.144-1.214,0.402-1.825,0.61v1.646h-4.171
		c-0.542,0.503-1.168,0.901-1.604,1.565c-0.478,0.708-1.244,1.215-1.835,1.859c-0.23,0.248-0.396,0.598-0.463,0.925
		c-0.044,0.242,0.127,0.523,0.206,0.789c0.219-0.07,0.467-0.103,0.657-0.219c0.63-0.397,1.244-0.822,1.859-1.245
		c0.101-0.065,0.168-0.178,0.251-0.264c0.152-0.135,0.284-0.313,0.466-0.382c0.409-0.164,0.829-0.304,1.255-0.407
		c1.235-0.297,2.392-0.851,3.693-0.907c0.796-0.033,1.57-0.425,2.365-0.428c3.999-0.016,8.002,0.031,12.003,0.092
		c0.718,0.014,1.433,0.241,2.15,0.264c0.853,0.036,1.711-0.021,2.565-0.091c0.528-0.044,1.051-0.21,1.58-0.28
		c0.524-0.069,1.054-0.112,1.578-0.104c0.943,0.007,1.888,0.086,2.831,0.091c5.139,0.018,10.271,0.018,15.405,0.044
		c0.539,0.002,1.079,0.126,1.63,0.197c0.486,0.059,0.984,0.172,1.482,0.179c4.211,0.047,8.424,0.069,12.637,0.117
		c0.353,0.002,0.693,0.131,1.039,0.171c1.229,0.164,2.378,0.776,3.663,0.567c0.604-0.089,1.227-0.08,1.831-0.182
		c1.116-0.192,2.147,0.275,3.221,0.405c0.51,0.059,0.998,0.318,1.508,0.37c1.056,0.112,2.129,0.045,3.171,0.229
		c1.22,0.219,2.398,0.658,3.602,0.943c0.978,0.229,1.959,0.425,2.944,0.555c1.074,0.136,2.153,0.181,3.317,0.274
		c0.018-0.042,0.078-0.223,0.174-0.388c0.059-0.105,0.178-0.256,0.265-0.251c0.805,0.066,1.657,0.019,2.392,0.288
		c0.776,0.284,1.553,0.315,2.326,0.335c1.537,0.036,3.063-0.014,4.598,0.024c1.354,0.029,2.707,0.124,4.06,0.197
		c0.104,0.007,0.2,0.053,0.304,0.081l-0.015,0.103c-0.759,0.056-1.508,0.112-2.258,0.172c0.651,0.291,1.3,0.543,1.979,0.667
		c0.859,0.161,1.728,0.26,2.606,0.323c1.113,0.091,2.243,0.129,3.368,0.175c1.047,0.051,2.072-0.153,3.148,0.206
		c1.294,0.42,2.703,0.589,4.074,0.696c2.21,0.168,4.43,0.191,6.644,0.28c1.448,0.064,2.924-0.141,4.316,0.431
		c0.065,0.024,0.146-0.006,0.211,0.002c1.359,0.146,2.722,0.291,4.082,0.44c1.271,0.146,2.543,0.299,3.815,0.439
		c0.507,0.064,1.024,0.103,1.536,0.177c0.203,0.028,0.39,0.173,0.591,0.191c1.719,0.178,3.453,0.362,5.179,0.486
		c1.962,0.136,3.932,0.21,5.886,0.301c0.869,0.042,1.729,0.087,2.586,0.12c1.063,0.035,2.131,0.089,3.203,0.097
		c0.736,0.005,1.476-0.123,2.212-0.094c1.28,0.051,2.556,0.189,3.836,0.264c1.846,0.098,3.681,0.2,5.529,0.238
		c3.21,0.063,6.416,0.131,9.626,0.103c1.938-0.016,3.89-0.213,5.835-0.309c0.639-0.03,1.298,0.122,1.895-0.03
		c1.748-0.456,3.537-0.164,5.299-0.388c1.2-0.143,2.401-0.243,3.583-0.445c0.943-0.16,1.864-0.493,2.808-0.673
		c1.015-0.197,2.018-0.355,2.935-0.874c0.233-0.13,0.536-0.145,0.822-0.196c1.187-0.216,2.359-0.464,3.033-1.645
		C480.812,75.811,480.924,75.534,480.848,75.428z M473.098,57.75c-0.01-0.121-0.27-0.307-0.407-0.298
		c-0.367,0.023-0.751,0.107-1.106,0.225c-0.261,0.084-0.473,0.317-0.724,0.369c-0.729,0.145-1.477,0.185-2.145,0.575
		c-0.099,0.056-0.238,0.037-0.355,0.056c-0.55,0.098-1.106,0.178-1.649,0.299c-0.466,0.112-0.916,0.336-1.392,0.407
		c-0.696,0.102-1.396,0.083-2.097,0.149c-0.828,0.075-1.688-0.091-2.465,0.369c-0.072,0.046-0.195,0.033-0.305,0.036
		c-0.577,0.019-1.153,0.035-1.734,0.044c-1.883,0.041-3.771,0.074-5.653,0.107c-0.104,0.005-0.215-0.002-0.313,0.036
		c-1.562,0.53-3.219,0.141-4.831,0.595c-1.378,0.395-2.925,0.206-4.397,0.294c-0.339,0.021-0.685,0.196-1.026,0.178
		c-0.49-0.019-0.985-0.187-1.49-0.22c-1.191-0.065-2.392-0.117-3.586-0.141c-3.272-0.042-6.557-0.054-9.828-0.121
		c-0.76-0.014-1.513-0.196-2.261-0.317c-0.456-0.07-0.898-0.159-1.339-0.266c-0.489-0.122-0.953-0.304-1.45-0.407
		c-1.133-0.234-2.259-0.182-3.403-0.005c-1.716,0.271-3.44,0.248-5.163-0.024c-0.743-0.117-1.485-0.242-2.218-0.416
		c-0.296-0.075-0.539-0.372-0.833-0.42c-1.376-0.224-2.766-0.262-4.143-0.58c-1.078-0.247-2.132-0.513-3.186-0.813
		c-0.375-0.107-0.787-0.115-1.188-0.131c-0.692-0.032-1.458,0.154-2.045-0.098c-0.823-0.355-1.744-0.238-2.551-0.675
		c-0.433-0.241-1.008-0.21-1.515-0.325c-1.166-0.262-2.349-0.538-3.417-1.063c-0.728-0.353-1.44-0.526-2.231-0.493
		c-0.438,0.014-0.922,0.058-1.242-0.407c-0.07-0.095-0.292-0.089-0.442-0.112c-0.249-0.026-0.492-0.023-0.732-0.061
		c-1.278-0.201-2.482-0.748-3.785-0.832c-0.166-0.009-0.311-0.157-0.483-0.21c-0.808-0.257-1.604-0.55-2.429-0.747
		c-0.719-0.169-1.462-0.221-2.191-0.337c-0.131-0.019-0.267-0.089-0.393-0.143c-0.343-0.14-0.677-0.348-1.042-0.409
		c-0.738-0.125-1.496-0.117-2.226-0.274c-0.726-0.156-1.439-0.415-2.123-0.698c-0.79-0.313-1.537-0.706-2.309-1.051
		c-0.738-0.327-1.341-0.993-2.248-0.939c-0.043,0.009-0.111-0.016-0.144-0.045c-0.486-0.418-1.069-0.389-1.653-0.398
		c-0.383-0.005-0.736-0.028-1.07-0.317c-0.277-0.238-0.691-0.367-1.056-0.423c-0.711-0.11-1.457-0.039-2.135-0.223
		c-0.935-0.251-1.941-0.313-2.775-0.901c-0.158-0.112-0.402-0.121-0.607-0.17c-0.557-0.126-1.125-0.21-1.679-0.385
		c-1.045-0.341-2.063-0.743-3.105-1.095c-0.24-0.082-0.563,0.018-0.731-0.108c-0.466-0.338-1.001-0.411-1.513-0.589
		c-0.991-0.359-1.97-0.777-2.955-1.174c-0.084-0.032-0.148-0.08-0.232-0.115c-0.913-0.385-1.813-0.772-2.728-1.151
		c-0.078-0.035-0.18-0.005-0.269-0.019c-0.635-0.122-1.298-0.16-1.896-0.385c-0.625-0.236-1.177-0.633-1.905-0.488
		c-0.115,0.021-0.266-0.129-0.406-0.203c-0.119-0.063-0.234-0.149-0.359-0.185c-0.394-0.125-0.79-0.23-1.186-0.345
		c-1.202-0.355-2.202-1.084-3.216-1.78c-0.566-0.381-1.14-0.743-1.742-1.063c-0.389-0.203-0.865-0.236-1.214-0.467
		c-0.647-0.418-1.289-0.712-2.057-0.708c-0.145,0-0.314-0.059-0.446-0.126c-0.703-0.355-1.399-0.724-2.09-1.082
		c-0.108-0.053-0.236-0.081-0.36-0.091c-1.388-0.13-2.702-0.5-3.976-1.09c-0.379-0.182-0.803-0.344-1.219-0.367
		c-0.397-0.026-0.771,0.028-1.072-0.285c-0.091-0.086-0.263-0.097-0.39-0.143c-0.38-0.133-0.75-0.256-1.127-0.395
		c-0.312-0.112-0.617-0.239-0.926-0.346c-0.828-0.287-1.672-0.532-2.476-0.854c-0.71-0.28-1.375-0.665-2.078-0.975
		c-0.795-0.35-1.669-0.557-2.379-1.024c-1.187-0.78-2.602-1.014-3.808-1.81c-1.242-0.812-2.518-1.662-3.979-2.154
		c-0.764-0.258-1.418-0.806-2.261-1.007c-0.842-0.193-1.604-0.706-2.4-1.079c-0.974-0.463-1.911-1.042-2.921-1.364
		c-1.402-0.449-2.683-1.199-4.136-1.486c-0.311-0.06-0.606-0.273-0.868-0.469c-0.527-0.383-0.987-0.895-1.554-1.186
		c-0.95-0.498-1.959-0.891-2.956-1.278c-1.227-0.463-2.53-0.663-3.698-1.338c-0.57-0.325-1.313-0.336-1.976-0.467
		c-0.688-0.139-1.374-0.228-2.057-0.395c-0.294-0.068-0.542-0.313-0.836-0.408c-1.438-0.476-2.868-0.957-4.316-1.393
		c-0.896-0.269-1.672-0.871-2.649-0.89c-0.146-0.005-0.275-0.15-0.416-0.208c-0.42-0.173-0.835-0.372-1.266-0.499
		c-0.56-0.163-1.142-0.226-1.686-0.405c-0.596-0.196-1.178-0.454-1.734-0.733c-0.679-0.346-1.354-0.727-2.013-1.115
		c-0.772-0.455-1.552-0.866-2.463-0.955c-0.256-0.023-0.528-0.07-0.777-0.135c-0.866-0.246-1.74-0.502-2.608-0.758
		c-0.671-0.191-1.354-0.392-2.022-0.593c-0.859-0.25-1.783-0.378-2.566-0.785c-0.662-0.351-1.325-0.406-2.015-0.472
		c-1.28-0.121-2.549-0.266-3.75-0.801c-0.289-0.139-0.645-0.172-0.972-0.237c-1.163-0.224-2.324-0.45-3.49-0.658
		c-0.858-0.155-1.728-0.332-2.594-0.402c-2.224-0.199-4.45-0.364-6.691-0.502c-1.29-0.077-2.602-0.166-3.893-0.102
		c-2.107,0.098-4.209,0.292-6.312,0.497c-0.925,0.092-1.91-0.033-2.701,0.7c-0.236,0.23-0.63,0.291-0.938,0.449
		c-0.313,0.157-0.616,0.327-0.913,0.514c-0.441,0.271-0.846,0.628-1.313,0.831c-0.564,0.239-1.243,0.216-1.659,0.79
		c-0.073,0.105-0.289,0.102-0.433,0.164c-0.247,0.103-0.542,0.163-0.715,0.342c-0.386,0.414-0.771,0.812-1.326,0.986
		c-0.267,0.087-0.599,0.093-0.791,0.259c-0.639,0.57-1.253,1.175-1.826,1.813c-0.467,0.509-0.852,1.102-1.298,1.639
		c-0.307,0.372-0.701,0.683-0.963,1.081c-0.678,1.018-1.317,2.064-1.934,3.12c-0.176,0.308-0.221,0.691-0.313,1.044
		c-0.073,0.291-0.07,0.611-0.206,0.87c-0.215,0.431-0.472,0.858-0.789,1.22c-0.211,0.238-0.537,0.435-0.846,0.508
		c-0.255,0.062-0.528-0.079-0.589-0.457c-0.079-0.521-0.353-1.142,0.192-1.458c0.609-0.355,0.801-0.867,0.915-1.453
		c0.094-0.462,0.271-0.817,0.69-1.065c0.136-0.076,0.295-0.266,0.291-0.402c-0.026-0.598,0.229-1.004,0.624-1.464
		c0.717-0.831,1.272-1.811,1.93-2.703c0.197-0.262,0.546-0.409,0.79-0.641c0.538-0.503,0.978-1.16,1.594-1.508
		c0.646-0.364,1.178-0.808,1.693-1.303c0.27-0.257,0.614-0.561,0.377-0.939c-0.236-0.378-0.664-0.323-1.051-0.141
		c-0.078,0.04-0.157,0.089-0.239,0.116c-0.396,0.125-0.787,0.281-1.193,0.355c-0.68,0.131-1.398,0.192-1.876,0.753
		c-0.421,0.49-0.97,0.595-1.537,0.709c-0.225,0.046-0.472,0.035-0.678,0.126c-0.322,0.14-0.642,0.32-0.93,0.533
		c-0.623,0.469-1.202,1.001-1.845,1.438c-0.252,0.178-0.701,0.072-0.943,0.252c-1.042,0.794-2.04,1.64-3.046,2.476
		c-0.267,0.224-0.472,0.537-0.771,0.691c-1.231,0.646-2.352,1.393-2.973,2.706c-0.083,0.168-0.243,0.299-0.37,0.435
		c-0.541,0.604-1.137,1.162-1.6,1.815c-0.313,0.436-0.435,1.011-0.636,1.529c-0.164,0.409-0.308,0.823-0.471,1.229
		c-0.3,0.73-0.593,1.461-0.913,2.182c-0.374,0.845-0.832,1.656-0.883,2.616c-0.014,0.25-0.159,0.57-0.351,0.71
		c-0.394,0.28-0.548,0.631-0.548,1.077c-0.007,1.002-0.02,2.005-0.002,3.005c0.023,1.179,0.058,2.359,0.124,3.538
		c0.023,0.507-0.026,1.125,0.241,1.476c0.328,0.438,0.378,0.839,0.378,1.311c0,0.511-0.03,1.027,0.006,1.536
		c0.028,0.405,0.141,0.807,0.223,1.232c0.255-0.063,0.402-0.101,0.626-0.157c0.031,0.252,0.089,0.47,0.085,0.685
		c-0.008,0.684,0.213,1.238,0.827,1.602c0.15,0.082,0.316,0.197,0.382,0.344c0.357,0.796,0.717,1.601,1.017,2.42
		c0.064,0.198-0.036,0.554-0.188,0.698c-0.104,0.098-0.488,0.028-0.649-0.093c-0.289-0.22-0.53-0.516-0.738-0.817
		c-0.631-0.92-1.237-1.864-1.858-2.794c-0.31-0.467-0.733-0.888-0.917-1.399c-0.174-0.483-0.396-0.877-0.742-1.24
		c-0.21-0.218-0.346-0.518-0.498-0.79c-0.196-0.359-0.378-0.728-0.559-1.097c-0.216-0.432-0.506-0.841-0.616-1.299
		c-0.184-0.766-0.172-1.565-0.635-2.266c-0.206-0.311-0.29-0.72-0.381-1.093c-0.075-0.317-0.082-0.654-0.124-0.981l0.145-0.023
		c0.117,0.161,0.231,0.323,0.351,0.486c0.054-0.009,0.111-0.014,0.168-0.028c0-0.425,0.019-0.848-0.005-1.271
		c-0.037-0.596-0.124-1.188-0.147-1.789c-0.007-0.168,0.068-0.416,0.198-0.505c0.457-0.322,0.472-0.782,0.275-1.172
		c-0.303-0.598-0.149-1.056,0.175-1.565c0.185-0.28,0.318-0.654,0.306-0.986c-0.031-1.011-0.177-2.022-0.21-3.039
		c-0.019-0.554,0.103-1.079,0.589-1.504c0.376-0.321,0.785-0.708,0.672-1.341c-0.134-0.757,0.202-1.315,0.827-1.75
		c0.196-0.141,0.421-0.425,0.406-0.631c-0.039-0.63,0.288-1.023,0.701-1.401c0.169-0.152,0.406-0.348,0.414-0.53
		c0.011-0.371-0.054-0.773-0.199-1.114c-0.051-0.136-0.461-0.262-0.609-0.191c-0.581,0.28-1.231,0.544-1.649,1.004
		c-0.895,0.985-1.684,2.074-2.474,3.146c-0.932,1.269-1.815,2.576-2.724,3.861c-0.275,0.388-0.266,0.752,0.019,1.117
		c0.174,0.219,0.098,0.343-0.091,0.523c-0.17,0.159-0.278,0.412-0.334,0.64c-0.074,0.318-0.051,0.664-0.121,0.986
		c-0.118,0.505-0.297,0.986-0.416,1.488c-0.275,1.155-0.465,2.338-0.836,3.463c-0.152,0.463-0.322,0.897-0.351,1.396
		c-0.014,0.353-0.177,0.693-0.285,1.04c-0.067,0.219-0.182,0.43-0.22,0.652c-0.039,0.226-0.003,0.459-0.018,0.688
		c-0.133,2.286-0.29,4.57-0.393,6.85c-0.022,0.438,0.154,0.883,0.266,1.315c0.127,0.495,0.304,0.974,0.423,1.464
		c0.034,0.136-0.081,0.294-0.096,0.444c-0.021,0.182-0.054,0.378-0.011,0.551c0.098,0.416,0.237,0.822,0.355,1.233
		c0.104,0.369,0.185,0.743,0.292,1.109c0.05,0.183,0.171,0.355,0.2,0.539c0.22,1.15,0.412,2.301,0.643,3.446
		c0.105,0.511,0.333,0.998,0.441,1.506c0.229,1.065,0.415,2.135,0.633,3.205c0.129,0.647,0.453,1.266,0.236,1.959
		c-0.033,0.106-0.005,0.265,0.054,0.358c0.3,0.469,0.595,0.948,0.94,1.377c0.313,0.393,0.708,0.718,1.042,1.088
		c0.449,0.491,0.818,1.065,1.313,1.5c1.009,0.869,1.587,2.052,2.35,3.095c0.083,0.115,0.015,0.433-0.093,0.551
		c-0.126,0.143-0.459,0.299-0.562,0.231c-0.555-0.364-1.085-0.768-1.582-1.214c-0.327-0.294-0.584-0.668-0.869-1.014
		c-0.216-0.257-0.417-0.53-0.636-0.788c-0.37-0.422-0.714-0.85-0.854-1.417c-0.025-0.125-0.231-0.204-0.337-0.317
		c-0.239-0.262-0.476-0.528-0.691-0.81c-0.147-0.19-0.229-0.438-0.375-0.621c-0.302-0.372-0.682-0.69-0.95-1.086
		c-0.724-1.073-1.436-2.161-2.104-3.273c-0.364-0.616-0.631-1.293-0.925-1.95c-0.162-0.348-0.28-0.723-0.448-1.07
		c-0.16-0.325-0.372-0.628-0.552-0.946c-0.153-0.267-0.336-0.525-0.433-0.815c-0.173-0.512-0.277-1.054-0.444-1.563
		c-0.3-0.9-0.68-1.768-0.928-2.675c-0.233-0.865-0.333-1.762-0.516-2.641c-0.045-0.233-0.171-0.458-0.238-0.689
		c-0.119-0.381-0.294-0.764-0.309-1.151c-0.042-1.07,0.005-2.145-0.027-3.214c-0.011-0.421-0.11-0.838-0.208-1.248
		c-0.079-0.351-0.319-0.556-0.695-0.514c-0.388,0.042-0.449,0.325-0.462,0.653c-0.014,0.508-0.033,1.019-0.073,1.529
		c-0.074,1.03-0.173,2.062-0.235,3.097c-0.019,0.329,0.06,0.667,0.074,1c0.085,1.756,0.159,3.518,0.255,5.278
		c0.014,0.291,0.117,0.585,0.197,0.87c0.268,0.981,0.616,1.941,0.539,2.995c-0.038,0.485,0.061,0.985,0.149,1.466
		c0.083,0.485,0.312,0.949,0.332,1.434c0.028,0.58,0.318,0.968,0.635,1.397c0.238,0.322,0.458,0.743,0.472,1.128
		c0.015,0.459,0.129,0.792,0.493,1.028c0.392,0.259,0.516,0.614,0.567,1.073c0.051,0.406,0.185,0.838,0.404,1.174
		c0.691,1.051,1.456,2.062,2.166,3.097c0.187,0.273,0.364,0.582,0.432,0.904c0.124,0.574,0.437,0.926,0.96,1.169
		c0.528,0.237,0.865,0.648,1.112,1.205c0.317,0.695,0.72,1.368,1.164,1.995c0.308,0.432,0.848,0.705,1.121,1.154
		c0.588,0.968,1.523,1.592,2.256,2.419c0.357,0.396,0.836,0.691,1.275,1.009c0.665,0.488,1.325,0.967,2.01,1.416
		c0.188,0.126,0.382,0.238,0.571,0.353l0.407-0.421c0.258-0.267,0.51-0.527,0.762-0.786l0.601-0.611
		c0.659-0.665,1.339-1.358,2.032-2.028c0.262-0.256,0.53-0.467,0.767-0.655c0.189-0.148,0.366-0.284,0.475-0.397
		c0.545-0.574,1.22-1.224,1.869-1.85c0.721-0.69,1.465-1.403,2.004-1.995c0.101-0.107,0.201-0.195,0.302-0.283
		c-0.276-0.201-0.563-0.396-0.843-0.591c-0.395-0.28-0.67-0.724-1.033-1.057c-0.707-0.643-1.424-1.283-2.167-1.881
		c-0.635-0.506-1.247-1.004-1.606-1.775c-0.173-0.375-0.511-0.762-0.877-0.949c-0.712-0.364-1.062-1-1.449-1.615
		c-0.601-0.949-1.181-1.916-1.766-2.873c-0.046-0.071-0.103-0.159-0.108-0.243c-0.074-1.136-0.853-1.968-1.29-2.949
		c-0.125-0.278-0.177-0.588-0.237-0.892c-0.139-0.722-0.217-1.458-0.416-2.161c-0.119-0.427-0.589-0.733-0.472-1.274
		c0.01-0.056-0.189-0.165-0.292-0.242c-0.14-0.112-0.426-0.276-0.404-0.32c0.101-0.25,0.229-0.525,0.434-0.67
		c0.141-0.093,0.519-0.054,0.622,0.067c0.416,0.496,0.815,1.017,1.122,1.573c0.261,0.474,0.546,0.86,1.018,1.167
		c0.481,0.318,0.85,0.813,1.273,1.225c0.438,0.427,0.904,0.832,1.315,1.28c0.575,0.639,1.397,0.787,2.102,1.167
		c0.776,0.406,1.586,0.435,2.435,0.466c0.395,0.013,0.781,0.318,1.177,0.477c0.236,0.089,0.481,0.229,0.725,0.22
		c0.796-0.026,1.467,0.17,2.063,0.751c0.22,0.215,0.67,0.22,1.021,0.266c0.446,0.056,0.901,0.065,1.354,0.08
		c0.367,0.014,0.733,0.027,1.098,0.017c0.464-0.017,0.935-0.052,1.401-0.101c0.784-0.077,1.595-0.082,2.347-0.284
		c1.527-0.412,3.018-0.968,4.54-1.397c1.108-0.315,2.124-0.803,3.108-1.382c0.8-0.467,1.609-0.916,2.418-1.364
		c0.13-0.077,0.237-0.164,0.335-0.26c-1.49,0.449-2.978,0.75-4.395,1.007c-1.002,0.182-2.331,0.397-3.696,0.397
		c-0.381,0-0.758-0.019-1.122-0.049c-1.866-0.167-3.349-0.778-4.534-1.878c-0.834-0.78-1.459-1.686-1.899-2.753
		c-0.056-0.072-0.113-0.144-0.167-0.223c-0.626-0.89-1.193-1.819-1.798-2.721c-0.073-0.105-0.212-0.215-0.33-0.229
		c-0.535-0.063-0.688-0.458-0.876-0.874c-0.133-0.301-0.383-0.547-0.554-0.836c-0.203-0.334-0.471-0.671-0.549-1.038
		c-0.159-0.752-0.231-1.527-0.291-2.296c-0.107-1.266-0.316-2.538-0.226-3.791c0.124-1.73-0.023-3.527,0.954-5.132
		c0.458-0.75,0.658-1.654,1.109-2.413c0.614-1.033,1.398-1.969,2.029-2.999c0.402-0.659,0.832-1.224,1.509-1.666
		c0.93-0.6,1.731-1.404,2.658-2.011c1.341-0.875,2.754-1.626,4.12-2.458c0.646-0.388,1.223-0.911,1.896-1.246
		c0.823-0.404,1.711-0.689,2.576-1.011c1.399-0.523,2.803-1.042,4.207-1.542c0.397-0.145,0.81-0.299,1.222-0.341
		c2.096-0.202,4.196-0.37,6.294-0.546c0.403-0.038,0.817-0.136,1.2-0.089c2.261,0.271,4.535-0.061,6.798,0.36
		c1.453,0.271,2.989,0.049,4.476,0.173c1.106,0.098,2.233,0.308,3.298,0.631c1.153,0.35,2.31,0.63,3.509,0.71
		c0.826,0.051,1.489,0.322,2.05,0.917c0.172,0.18,0.458,0.34,0.686,0.34c0.974,0,1.814,0.404,2.674,0.782
		c0.542,0.234,1.107,0.417,1.664,0.607c0.378,0.129,0.751,0.246,1.141,0.326c0.499,0.1,1.105,0.013,1.479,0.269
		c0.773,0.515,1.807,0.321,2.473,1.033c0.012,0.024,0.063-0.002,0.103,0.008c0.367,0.135,0.742,0.277,1.112,0.401
		c0.551,0.181,1.093,0.36,1.638,0.517c0.273,0.069,0.552,0.087,0.827,0.144c0.426,0.084,0.846,0.205,1.276,0.281
		c0.518,0.089,1.076,0.051,1.553,0.245c0.537,0.222,0.983,0.651,1.494,0.96c0.566,0.342,1.148,0.666,1.746,0.955
		c0.254,0.131,0.564,0.154,0.85,0.243c0.359,0.11,0.725,0.233,1.084,0.357c0.182,0.058,0.371,0.107,0.542,0.178
		c0.93,0.371,1.854,0.771,2.793,1.116c0.851,0.321,1.724,0.565,2.585,0.878c0.662,0.248,1.312,0.545,1.967,0.818
		c0.308,0.128,0.604,0.32,0.922,0.373c0.497,0.088,0.848,0.29,1.012,0.768c0.242-0.037,0.466-0.119,0.687-0.1
		c0.867,0.068,1.723,0.141,2.573,0.269c0.225,0.031,0.412,0.334,0.639,0.372c0.811,0.128,1.696-0.024,2.275,0.785
		c0.014,0.021,0.06,0.019,0.101,0.028c0.522,0.167,1.043,0.329,1.564,0.495c0.056,0.02,0.117,0.072,0.168,0.11
		c0.475,0.28,0.92,0.6,1.414,0.833c0.726,0.346,1.48,0.635,2.226,0.939c0.233,0.097,0.485,0.21,0.729,0.234
		c0.929,0.103,1.864,0.149,2.78,0.263c0.756,0.096,1.494,0.264,2.234,0.404c0.208,0.039,0.422,0.054,0.614,0.126
		c0.642,0.256,1.278,0.544,1.915,0.813c1.102,0.467,2.224,0.911,3.328,1.403c1.129,0.5,2.254,1.035,3.38,1.572
		c0.571,0.272,1.185,0.444,1.796,0.629h0.237v0.074c0.57,0.173,1.125,0.371,1.646,0.68c0.703,0.416,1.581,0.35,2.356,0.714
		c0.579,0.27,1.339,0.276,1.984,0.562c0.313,0.138,0.716,0.084,1.016,0.241c0.719,0.376,1.462,0.553,2.27,0.544
		c0.207,0,0.43,0.103,0.604,0.21c0.265,0.151,0.471,0.416,0.737,0.523c0.998,0.402,2.073,0.61,2.938,1.303
		c0.068,0.052,0.166,0.068,0.252,0.089c0.501,0.095,0.999,0.135,1.48,0.289c0.538,0.178,1.048,0.449,1.571,0.67
		c0.611,0.259,1.22,0.689,1.844,0.722c1.007,0.053,1.765,0.571,2.458,1.128h4.172v2.063c0.981,0.501,2.027,0.62,3.125,0.586
		c0.699-0.021,1.403-0.03,2.058,0.32c0.204,0.11,0.483,0.066,0.724,0.105c0.949,0.154,1.899,0.306,2.849,0.474
		c0.632,0.117,1.261,0.262,1.89,0.403c0.438,0.094,0.896,0.159,1.312,0.317c0.212,0.079,0.423,0.165,0.635,0.251h0.89v0.34
		c0.657,0.231,1.321,0.404,2.047,0.393c0.296-0.008,0.595,0.239,0.886,0.382c0.157,0.067,0.318,0.255,0.449,0.227
		c1.105-0.25,2.025,0.327,2.997,0.659c0.285,0.093,0.697,0.093,0.825,0.285c0.38,0.565,0.969,0.546,1.496,0.71
		c0.588,0.177,1.195,0.29,1.765,0.5c0.418,0.15,0.788,0.505,1.213,0.598c0.798,0.176,1.434,0.841,2.317,0.785
		c0.055-0.005,0.146,0.089,0.193,0.167c0.231,0.408,0.624,0.436,1.025,0.51c0.527,0.09,1.033,0.281,1.532,0.477
		c0.373,0.14,0.691,0.446,1.061,0.533c0.745,0.172,1.521,0.24,2.277,0.352c0.34,0.045,0.682,0.082,1.032,0.129
		c0.559,0.081,1.117,0.159,1.685,0.252c0.499,0.079,0.996,0.149,1.485,0.28c0.617,0.168,1.205,0.433,1.823,0.605
		c0.445,0.119,0.914,0.105,1.349,0.227c0.743,0.21,1.469,0.481,2.205,0.731c0.27,0.091,0.525,0.193,0.798,0.264
		c0.272,0.07,0.559,0.126,0.847,0.164c0.43,0.053,0.873,0.051,1.298,0.143c0.397,0.079,0.776,0.259,1.159,0.375
		c0.154,0.049,0.332,0.018,0.465,0.094c0.97,0.526,2.028,0.621,3.094,0.692c0.315,0.018,0.623,0.103,0.932,0.172
		c0.416,0.098,0.822,0.265,1.243,0.309c0.867,0.089,1.771,0.023,2.624,0.189c1.551,0.305,3.065,0.745,4.678,0.689
		c0.372-0.015,0.771,0.164,1.153,0.271c0.21,0.056,0.399,0.182,0.612,0.232c0.958,0.232,1.914,0.475,2.878,0.66
		c0.57,0.117,1.165,0.15,1.753,0.215c0.122,0.019,0.283-0.023,0.354,0.042c0.43,0.438,1.009,0.364,1.533,0.467
		c1.051,0.21,2.086,0.514,3.143,0.64c0.913,0.105,1.86,0.004,2.794,0.033c0.385,0.009,0.818,0.012,1.136,0.186
		c1.036,0.593,2.155,0.757,3.312,0.752c0.824-0.002,1.64-0.09,2.468-0.093c0.616-0.005,1.228,0.098,1.843,0.105
		c1.464,0.011,2.927-0.036,4.394,0.002c0.747,0.021,1.489,0.182,2.232,0.271c0.641,0.084,1.28,0.21,1.915,0.201
		c2.578-0.028,5.145-0.103,7.718-0.149c1.001-0.016,2.013,0.051,3.021-0.014c1.346-0.089,2.675-0.337,4.021-0.411
		c2.002-0.112,4.001-0.141,6.005-0.215c0.275-0.007,0.631-0.01,0.804-0.174c0.43-0.427,0.963-0.45,1.473-0.457
		c2.15-0.028,4.307,0.019,6.461-0.028c0.967-0.023,1.934-0.21,2.896-0.338c0.878-0.115,1.733-0.274,2.597-0.382
		c0.416-0.046,0.856,0.056,1.14-0.389c0.053-0.096,0.252-0.128,0.389-0.126c1.098,0.031,2.09-0.417,3.1-0.754
		c0.216-0.067,0.433-0.126,0.643-0.206c0.368-0.135,0.724-0.287,1.088-0.427c0.286-0.114,0.677-0.133,0.869-0.343
		c0.354-0.404,0.751-0.552,1.242-0.556c0.17-0.166,0.381-0.257,0.565-0.385c0.173-0.11,0.43-0.259,0.43-0.397
		C473.224,59.273,473.177,58.507,473.098,57.75z M349.555,49.569c0.299,0.119,0.587,0.234,0.89,0.34v-0.34H349.555z M332.792,45.05
		c0.116,0.097,0.23,0.193,0.343,0.29c0.675,0.563,1.354,0.96,2.147,1.231c0.458,0.154,0.995,0.149,1.397,0.39
		c0.094,0.055,0.189,0.103,0.284,0.152V45.05H332.792z M311.397,37.3c0.083,0.023,0.156,0.05,0.237,0.074V37.3H311.397z"/>
	<g>
		<rect x="176.832" y="99.432" fill="none" width="94.798" height="44.647"/>
		<path fill="#FFFFFF" d="M203.653,122.64c0,2.238-0.403,4.378-1.21,6.422s-1.874,3.806-3.201,5.286
			c-1.361,1.514-2.899,2.704-4.614,3.57c-1.714,0.866-3.529,1.3-5.445,1.3c-1.446,0-2.719-0.122-3.819-0.366
			c-1.101-0.244-2.038-0.575-2.811-0.996c-0.791-0.438-1.446-0.929-1.966-1.476c-0.521-0.547-0.992-1.156-1.412-1.829l6.498-28.556
			c0.084-0.387,0.155-0.719,0.214-0.997c0.059-0.277,0.088-0.56,0.088-0.845c0-0.605-0.101-1.072-0.303-1.4
			c-0.202-0.328-0.487-0.576-0.855-0.744c-0.353-0.151-0.797-0.252-1.334-0.303c-0.537-0.051-1.082-0.109-1.636-0.177l0.352-1.538
			l9.308-0.555l0.251,0.377l-3.809,16.739h0.101c1.515-1.344,2.849-2.272,4.002-2.785c1.153-0.513,2.277-0.769,3.371-0.769
			c2.558,0,4.569,0.871,6.034,2.612C202.921,117.354,203.653,119.696,203.653,122.64z M198.46,122.765
			c0-0.892-0.08-1.788-0.24-2.688c-0.159-0.9-0.425-1.653-0.795-2.259c-0.388-0.64-0.919-1.144-1.592-1.514
			c-0.674-0.371-1.508-0.556-2.501-0.556c-0.59,0-1.146,0.102-1.667,0.303c-0.522,0.202-1.062,0.471-1.617,0.807
			c-0.489,0.304-0.965,0.669-1.428,1.098c-0.463,0.429-0.889,0.812-1.276,1.148l-3.354,14.967c0.05,0.336,0.202,0.707,0.455,1.11
			c0.252,0.403,0.572,0.757,0.959,1.06c0.471,0.387,1.002,0.682,1.591,0.884c0.589,0.202,1.237,0.303,1.944,0.303
			c1.33,0,2.58-0.392,3.75-1.174c1.17-0.782,2.176-1.838,3.018-3.167c0.926-1.447,1.617-3.063,2.071-4.846
			C198.233,126.458,198.46,124.633,198.46,122.765z"/>
		<path fill="#FFFFFF" d="M228.762,118.253c0,1.785-0.56,3.317-1.677,4.596c-1.118,1.279-2.744,2.298-4.878,3.055
			c-1.563,0.572-3.143,1.035-4.739,1.389c-1.597,0.354-3.361,0.648-5.294,0.884c0,2.656,0.491,4.686,1.475,6.088
			c0.983,1.403,2.424,2.105,4.323,2.105c1.681,0,3.164-0.42,4.449-1.261c1.286-0.84,2.551-2.093,3.794-3.756l1.438,1.059
			c-1.345,2.051-3.025,3.689-5.042,4.916s-4.109,1.84-6.277,1.84c-2.975,0-5.247-0.833-6.818-2.498
			c-1.572-1.665-2.357-4.028-2.357-7.091c0-2.119,0.332-4.142,0.996-6.068c0.663-1.926,1.634-3.688,2.911-5.287
			c1.244-1.564,2.769-2.826,4.576-3.785c1.806-0.959,3.802-1.438,5.986-1.438c2.42,0,4.214,0.492,5.383,1.477
			C228.178,115.463,228.762,116.721,228.762,118.253z M224.123,117.633c0-0.654-0.093-1.17-0.277-1.547
			c-0.186-0.377-0.42-0.658-0.706-0.843c-0.303-0.201-0.622-0.327-0.958-0.377c-0.336-0.05-0.681-0.076-1.033-0.076
			c-2.017,0-3.878,1.107-5.584,3.321c-1.706,2.213-2.785,4.972-3.239,8.275c1.176-0.167,2.504-0.406,3.983-0.717
			c1.479-0.31,2.705-0.716,3.68-1.22c1.396-0.721,2.433-1.648,3.113-2.78S224.123,119.193,224.123,117.633z"/>
		<path fill="#FFFFFF" d="M238.896,139.219c-2.487,0-4.56-0.441-6.214-1.324c-1.656-0.882-2.483-2.037-2.483-3.466
			c0-0.672,0.243-1.302,0.73-1.891c0.487-0.588,1.084-0.883,1.79-0.883c0.672,0,1.214,0.156,1.626,0.467
			c0.412,0.312,0.735,0.677,0.971,1.097c0.252,0.438,0.475,0.958,0.668,1.563c0.193,0.605,0.357,1.102,0.492,1.487
			c0.252,0.286,0.601,0.551,1.046,0.795c0.445,0.243,1.088,0.365,1.929,0.365c1.814,0,3.188-0.455,4.121-1.365
			c0.933-0.909,1.399-2.14,1.399-3.689c0-1.145-0.438-2.059-1.312-2.74s-2.176-1.31-3.907-1.882
			c-0.622-0.202-1.353-0.51-2.193-0.922c-0.84-0.413-1.512-0.854-2.017-1.326c-0.604-0.539-1.092-1.179-1.462-1.92
			s-0.555-1.617-0.555-2.627c0-2.155,0.962-4.02,2.887-5.594c1.924-1.575,4.289-2.362,7.097-2.362c0.655,0,1.361,0.034,2.117,0.101
			c0.756,0.067,1.588,0.252,2.496,0.555c0.789,0.269,1.462,0.668,2.017,1.198c0.555,0.529,0.831,1.214,0.831,2.054
			c0,0.689-0.23,1.315-0.692,1.878c-0.463,0.563-1.071,0.845-1.828,0.845c-0.622,0-1.135-0.134-1.538-0.403
			c-0.403-0.269-0.739-0.63-1.008-1.084c-0.27-0.454-0.487-0.941-0.655-1.462s-0.354-1.034-0.555-1.538
			c-0.319-0.134-0.605-0.227-0.857-0.277c-0.252-0.05-0.588-0.076-1.008-0.076c-1.647,0-2.896,0.442-3.744,1.327
			s-1.272,1.934-1.272,3.147c0,1.179,0.382,2.067,1.146,2.665s2.029,1.217,3.794,1.856c2.285,0.825,3.945,1.769,4.979,2.829
			c1.034,1.062,1.551,2.374,1.551,3.94c0,2.559-0.983,4.644-2.949,6.251C244.365,138.414,241.887,139.219,238.896,139.219z"/>
		<path fill="#FFFFFF" d="M259.668,138.991c-1.598,0-2.765-0.323-3.505-0.97c-0.739-0.647-1.108-1.576-1.108-2.786
			c0-0.387,0.024-0.752,0.075-1.097c0.051-0.344,0.117-0.734,0.202-1.172l3.929-16.84h-4.509l0.531-2.294h4.602l1.759-7.386h4.534
			l-1.706,7.386h7.019l-0.527,2.294h-6.959l-3.254,13.891c-0.151,0.639-0.277,1.256-0.378,1.853s-0.151,1.105-0.151,1.525
			c0,0.924,0.23,1.601,0.693,2.029c0.462,0.429,1.299,0.643,2.509,0.643c0.437,0,1.051-0.055,1.841-0.164s1.403-0.248,1.841-0.416
			l-0.429,1.841c-1.177,0.453-2.286,0.844-3.328,1.172S261.079,138.991,259.668,138.991z"/>
	</g>
	<path fill="#FFFFFF" d="M68.398,32.217v-8.869c0-1.225-0.992-2.217-2.217-2.217H35.138c-1.225,0-2.217,0.993-2.217,2.217v8.869
		H68.398z"/>
	<path fill="#FFFFFF" d="M32.92,36.652v73.173h35.478V36.652H32.92z M59.529,65.479H41.79c-1.225,0-2.218-0.993-2.218-2.218V45.522
		c0-1.225,0.993-2.217,2.218-2.217h17.739c1.225,0,2.217,0.993,2.217,2.217v17.739C61.746,64.485,60.753,65.479,59.529,65.479z"/>
	<path fill="#FFFFFF" d="M32.92,123.13v11.087c0,1.225,0.993,2.218,2.217,2.218h31.043c1.225,0,2.217-0.993,2.217-2.218V123.13
		H32.92z"/>
	<path fill="#FFFFFF" d="M32.92,114.26h35.478v4.435H32.92V114.26z"/>
	<path fill="#FFFFFF" d="M72.833,114.26h28.826v4.435H72.833V114.26z"/>
	<path fill="#FFFFFF" d="M101.659,12.261V5.609c0-1.225-0.992-2.217-2.217-2.217H75.05c-1.224,0-2.217,0.993-2.217,2.217v6.652
		H101.659z"/>
	<path fill="#FFFFFF" d="M72.833,27.783h28.826v82.042H72.833V27.783z"/>
	<path fill="#FFFFFF" d="M72.833,123.13v11.087c0,1.225,0.993,2.218,2.217,2.218h24.391c1.225,0,2.217-0.993,2.217-2.218V123.13
		H72.833z"/>
	<path fill="#FFFFFF" d="M72.833,16.696h28.826v6.652H72.833V16.696z"/>
	<path fill="#FFFFFF" d="M106.041,49.309l1.187,4.555L144.78,43.85l-1.188-4.555L106.041,49.309z"/>
	<path fill="#FFFFFF" d="M124.571,120.343l37.551-10.014l-2.377-9.115l-37.553,10.014L124.571,120.343z"/>
	<path fill="#FFFFFF" d="M158.625,96.923L145.9,48.141l-37.554,10.014l12.725,48.782L158.625,96.923z"/>
	<path fill="#FFFFFF" d="M104.921,45.019l37.55-10.013l-3.183-12.212c-0.328-1.182-1.536-1.889-2.727-1.596l-33.261,8.87
		c-1.175,0.322-1.875,1.525-1.575,2.705L104.921,45.019z"/>
	<path fill="#FFFFFF" d="M163.242,114.62l-37.553,10.014l2.646,10.138c0.153,0.571,0.528,1.059,1.042,1.353
		c0.334,0.203,0.718,0.311,1.109,0.311c0.194,0,0.388-0.023,0.576-0.066l33.26-8.869c1.175-0.322,1.875-1.525,1.575-2.706
		L163.242,114.62z"/>
	<g>
		<path fill="#FFFFFF" d="M312.122,123.483c0,4.219-0.958,7.584-2.874,10.096c-1.916,2.513-4.487,3.77-7.714,3.77
			c-2.992,0-5.387-0.983-7.185-2.95v12.933h-6.126v-37.763h5.646l0.252,2.773c1.799-2.185,4.244-3.277,7.336-3.277
			c3.328,0,5.937,1.24,7.827,3.718c1.891,2.479,2.837,5.92,2.837,10.323V123.483z M306.021,122.954c0-2.723-0.542-4.882-1.626-6.479
			s-2.635-2.395-4.651-2.395c-2.505,0-4.303,1.034-5.395,3.101v12.101c1.109,2.117,2.924,3.177,5.445,3.177
			c1.949,0,3.474-0.786,4.575-2.357C305.471,128.529,306.021,126.147,306.021,122.954z"/>
		<path fill="#FFFFFF" d="M331.582,115.164c-0.807-0.134-1.638-0.202-2.495-0.202c-2.807,0-4.697,1.076-5.672,3.227v18.655h-6.126
			v-27.276h5.849l0.151,3.05c1.479-2.37,3.529-3.555,6.15-3.555c0.874,0,1.597,0.118,2.168,0.353L331.582,115.164z"/>
		<path fill="#FFFFFF" d="M350.994,136.844c-0.27-0.521-0.505-1.369-0.706-2.546c-1.95,2.034-4.336,3.051-7.159,3.051
			c-2.74,0-4.976-0.782-6.706-2.345c-1.731-1.563-2.597-3.495-2.597-5.798c0-2.907,1.08-5.139,3.239-6.693s5.248-2.332,9.265-2.332
			h3.756v-1.79c0-1.412-0.395-2.542-1.185-3.391c-0.79-0.848-1.991-1.273-3.604-1.273c-1.396,0-2.538,0.349-3.429,1.046
			s-1.336,1.584-1.336,2.66h-6.126c0-1.496,0.495-2.895,1.487-4.197c0.991-1.302,2.34-2.323,4.046-3.063
			c1.706-0.739,3.609-1.109,5.71-1.109c3.192,0,5.739,0.803,7.639,2.408c1.898,1.605,2.873,3.861,2.924,6.769v12.302
			c0,2.454,0.345,4.411,1.033,5.873v0.429H350.994z M344.263,132.433c1.21,0,2.349-0.294,3.416-0.883
			c1.067-0.588,1.869-1.378,2.407-2.369v-5.143h-3.302c-2.27,0-3.976,0.395-5.118,1.185s-1.714,1.907-1.714,3.353
			c0,1.177,0.391,2.114,1.172,2.812C341.906,132.084,342.952,132.433,344.263,132.433z"/>
		<path fill="#FFFFFF" d="M373.833,132.458c1.529,0,2.798-0.445,3.807-1.337c1.009-0.89,1.546-1.991,1.613-3.302h5.772
			c-0.066,1.697-0.597,3.281-1.588,4.752s-2.336,2.634-4.033,3.491s-3.529,1.286-5.495,1.286c-3.815,0-6.841-1.235-9.075-3.706
			c-2.235-2.471-3.354-5.882-3.354-10.235v-0.63c0-4.151,1.109-7.475,3.328-9.97c2.218-2.496,5.243-3.744,9.075-3.744
			c3.243,0,5.886,0.945,7.928,2.836s3.113,4.374,3.214,7.449h-5.772c-0.067-1.563-0.601-2.849-1.601-3.857s-2.273-1.512-3.819-1.512
			c-1.983,0-3.513,0.718-4.588,2.155c-1.076,1.437-1.622,3.617-1.639,6.542v0.983c0,2.958,0.533,5.164,1.601,6.618
			C370.274,131.73,371.816,132.458,373.833,132.458z"/>
		<path fill="#FFFFFF" d="M397.327,102.938v6.63h4.815v4.538h-4.815v15.227c0,1.042,0.206,1.794,0.618,2.256
			c0.411,0.463,1.146,0.693,2.205,0.693c0.706,0,1.42-0.084,2.144-0.252v4.739c-1.396,0.386-2.74,0.58-4.034,0.58
			c-4.705,0-7.059-2.597-7.059-7.79v-15.453h-4.486v-4.538h4.486v-6.63H397.327z"/>
		<path fill="#FFFFFF" d="M406.832,102.484c0-0.941,0.298-1.722,0.895-2.344c0.597-0.622,1.449-0.933,2.559-0.933
			s1.967,0.311,2.571,0.933c0.605,0.622,0.908,1.403,0.908,2.344c0,0.925-0.303,1.693-0.908,2.307
			c-0.604,0.614-1.462,0.92-2.571,0.92s-1.962-0.307-2.559-0.92C407.13,104.177,406.832,103.409,406.832,102.484z M413.336,136.844
			h-6.126v-27.276h6.126V136.844z"/>
		<path fill="#FFFFFF" d="M431.208,132.458c1.529,0,2.798-0.445,3.807-1.337c1.009-0.89,1.546-1.991,1.613-3.302h5.772
			c-0.066,1.697-0.597,3.281-1.588,4.752s-2.336,2.634-4.033,3.491s-3.529,1.286-5.495,1.286c-3.815,0-6.841-1.235-9.075-3.706
			c-2.235-2.471-3.354-5.882-3.354-10.235v-0.63c0-4.151,1.109-7.475,3.328-9.97c2.218-2.496,5.243-3.744,9.075-3.744
			c3.243,0,5.886,0.945,7.928,2.836s3.113,4.374,3.214,7.449h-5.772c-0.067-1.563-0.601-2.849-1.601-3.857s-2.273-1.512-3.819-1.512
			c-1.983,0-3.513,0.718-4.588,2.155c-1.076,1.437-1.622,3.617-1.639,6.542v0.983c0,2.958,0.533,5.164,1.601,6.618
			C427.649,131.73,429.191,132.458,431.208,132.458z"/>
		<path fill="#FFFFFF" d="M459.039,137.349c-3.882,0-7.029-1.223-9.44-3.668c-2.412-2.445-3.617-5.701-3.617-9.769v-0.756
			c0-2.723,0.524-5.155,1.575-7.298c1.05-2.143,2.524-3.811,4.424-5.004s4.017-1.79,6.353-1.79c3.714,0,6.584,1.185,8.609,3.555
			c2.024,2.37,3.037,5.722,3.037,10.058v2.471h-17.822c0.185,2.252,0.937,4.033,2.256,5.344s2.979,1.967,4.979,1.967
			c2.806,0,5.092-1.135,6.856-3.403l3.303,3.15c-1.093,1.631-2.551,2.896-4.374,3.794
			C463.354,136.898,461.308,137.349,459.039,137.349z M458.309,113.979c-1.682,0-3.038,0.588-4.071,1.765
			c-1.034,1.176-1.693,2.815-1.979,4.916h11.672v-0.454c-0.135-2.05-0.681-3.601-1.639-4.651
			C461.333,114.505,460.006,113.979,458.309,113.979z"/>
	</g>
</g>
<g id="Layer_5" display="none">
	<path display="inline" fill="#FFFFFF" d="M107.977,169.561L62.623-4.297c-0.253-0.975-0.884-1.807-1.755-2.314
		c-0.869-0.505-1.904-0.644-2.877-0.383L1.297,8.123c-2.008,0.535-3.207,2.591-2.683,4.603l45.354,173.858
		c0.252,0.974,0.885,1.807,1.756,2.313c0.869,0.503,1.905,0.64,2.875,0.377l56.693-15.117
		C107.297,173.621,108.496,171.568,107.977,169.561z M12.9,37.542l49.391-13.168l1.777,6.803L14.681,44.364L12.9,37.542z
		 M65.976,38.51l21.921,84.085l-49.372,13.172l-21.92-84.09L65.976,38.51z M89.821,129.912l3.87,14.832l-49.39,13.168l-3.855-14.826
		L89.821,129.912z M56.267,1.285l4.116,15.779L10.992,30.228L6.88,14.456L56.267,1.285z M50.324,181.001l-4.115-15.778l49.39-13.172
		l4.112,15.771L50.324,181.001z"/>
</g>
<g id="Layer_4" display="none">
	<g display="inline">
		<path fill="#FFFFFF" d="M-24.832,146.628h134.165c0.411,0,0.809-0.059,1.191-0.15c0.031,0,0.056,0.005,0.086,0.005
			c2.864,0,5.191-2.324,5.191-5.19V-5.417c0-2.866-2.327-5.191-5.191-5.191h-1.267H-16.53h-8.295
			c-13.816,0-25.055,11.241-25.055,25.053c0,0.186,0.037,0.361,0.054,0.54c-0.018,12.759-0.176,130.001-0.018,145.415
			c-0.01,0.302-0.047,0.597-0.047,0.899c0,13.282,10.4,24.156,23.481,24.978c0.262,0.04,0.52,0.078,0.792,0.078H110.61
			c2.864,0,5.191-2.324,5.191-5.191v-19.538c0-2.865-2.327-5.19-5.191-5.19s-5.191,2.325-5.191,5.19v14.348H-24.832
			c-7.889,0-14.327-6.263-14.644-14.072c0.008-0.139,0.033-0.271,0.031-0.412c-0.005-0.229-0.013-0.583-0.018-1.055
			C-39.01,152.749-32.63,146.628-24.832,146.628z M-21.293,14.445c0-2.865,2.326-5.191,5.191-5.191c2.866,0,5.191,2.326,5.191,5.191
			v105.439c0,2.864-2.325,5.191-5.191,5.191c-2.865,0-5.191-2.327-5.191-5.191V14.445z"/>
	</g>
</g>
<g id="Layer_3">
	<g>
		<path fill="#FFFFFF" d="M286.52,39.264l9.172,22.907l9.183-22.907h4.795V67.34h-3.7V56.406l0.345-11.8l-9.208,22.734h-2.834
			l-9.202-22.677l0.362,11.743V67.34h-3.698V39.264H286.52z"/>
		<path fill="#FFFFFF" d="M325.667,67.34c-0.186-0.364-0.328-1.015-0.441-1.948c-1.468,1.528-3.222,2.288-5.252,2.288
			c-1.828,0-3.317-0.516-4.481-1.542c-1.165-1.031-1.753-2.336-1.753-3.916c0-1.924,0.731-3.414,2.194-4.477
			c1.461-1.065,3.521-1.597,6.169-1.597h3.066v-1.451c0-1.103-0.328-1.978-0.983-2.634c-0.658-0.651-1.638-0.982-2.92-0.982
			c-1.129,0-2.072,0.287-2.832,0.856c-0.759,0.569-1.144,1.257-1.144,2.062h-3.17c0-0.918,0.325-1.809,0.977-2.669
			c0.653-0.857,1.544-1.536,2.668-2.039c1.112-0.498,2.347-0.749,3.69-0.749c2.124,0,3.79,0.531,4.991,1.592
			c1.211,1.067,1.836,2.531,1.877,4.394v8.495c0,1.698,0.216,3.042,0.657,4.042v0.276H325.667z M320.43,64.935
			c0.986,0,1.924-0.256,2.815-0.77c0.883-0.513,1.524-1.175,1.924-1.995v-3.786h-2.468c-3.867,0-5.807,1.129-5.807,3.391
			c0,0.99,0.339,1.765,0.995,2.324C318.547,64.653,319.393,64.935,320.43,64.935z"/>
		<path fill="#FFFFFF" d="M334.996,65.149h9.632v2.191H332.3V47.018h2.696V65.149z"/>
		<path fill="#FFFFFF" d="M348.485,65.634h7.486v1.706h-9.581V51.533h2.095V65.634z"/>
	</g>
	<path fill-rule="evenodd" clip-rule="evenodd" fill="#FFFFFF" d="M195.286,76.231c0.348-0.359,0.676-0.7,1.007-1.042
		c0.864-0.869,1.72-1.751,2.603-2.608c0.405-0.398,0.906-0.7,1.298-1.111c1.107-1.167,2.809-2.682,3.896-3.864
		c0.071-0.08,0.157-0.145,0.232-0.21c0.905,0.551,1.796,1.107,2.688,1.654c0.685,0.416,1.344,0.895,2.07,1.223
		c0.948,0.426,1.971,0.688,2.929,1.08c1.319,0.551,2.722,0.427,4.093,0.523c1.006,0.079,2.031-0.125,3.046-0.206
		c0.53-0.042,1.072-0.03,1.596-0.125c1.187-0.21,2.376-0.412,3.53-0.727c1.303-0.36,2.603-0.794,3.864-1.292
		c1.153-0.45,1.624-0.7,2.742-1.243c1.905-0.938,3.286-1.88,5.014-3.134c0.692-0.515,1.314-1.019,1.962-1.603
		c0.512-0.477,1.03-0.967,1.508-1.49c0.624-0.698,1.097-1.431,1.688-2.162c0.601-0.745,1.163-1.516,1.776-2.249
		c0.595-0.712,1.141-1.415,1.432-2.336c0.271-0.89,0.786-1.703,1.083-2.59c0.23-0.701,0.341-1.451,0.42-2.185
		c0.107-1.042,0.07-2.083-0.158-3.116c-0.248-1.182-0.646-2.303-1.438-3.216c-0.702-0.792-1.649-1.166-2.68-1.414
		c-1.161-0.278-2.273-0.032-3.356,0.252c-2.317,0.621-3.985,1.294-6.271,2.023c-2.141,0.682-4.251,1.474-6.385,2.2
		c-1.104,0.374-2.239,0.676-3.337,1.065c-1.63,0.57-3.308,0.901-4.997,1.209c-1.424,0.262-2.858,0.454-4.293,0.322
		c-1.233-0.107-2.404-0.462-3.367-1.359c-0.856-0.799-1.387-1.743-1.702-2.854c-0.822-2.927-0.445-5.788,0.399-8.636
		c0.663-2.219,1.701-4.263,3.058-6.112c0.901-1.225,1.937-2.379,3.063-3.397c1.271-1.152,2.668-2.182,4.088-3.154
		c2.337-1.606,4.878-2.839,7.567-3.755c1.955-0.668,3.897-1.367,5.896-1.838c1.706-0.405,3.478-0.498,5.225-0.736
		c0.686-0.094,1.366-0.348,2.034-0.304c2.319,0.149,4.513,0.504,6.817,0.714c0.244,0.021,0.585,0.269,0.926,0.313
		c-0.654,1.506-1.272,3.149-1.893,4.569c-0.851-0.323-1.655-0.712-2.501-0.925c-1.073-0.273-2.186-0.374-3.277-0.608
		c-1.203-0.27-2.335,0.21-3.504,0.272c-2.72,0.148-5.139,1.135-7.657,1.971c-1.413,0.465-2.633,1.06-4.003,1.654
		c-0.65,0.28-1.337,0.495-1.93,0.873c-1.125,0.707-2.229,1.349-3.269,2.178c-0.853,0.682-1.54,1.359-2.279,2.167
		c-0.816,0.907-0.939,1.561-1.658,3.177c-0.088,0.194-0.129,0.411-0.236,0.591c-0.29,1.18-0.552,1.666-0.506,2.534
		c0.03,0.608-0.081,1.332,0.442,1.757c0.6,0.486,1.172,0.93,1.886,1.212c1.088,0.438,2.237,0.362,3.365,0.072
		c0.255-0.07,0.528-0.074,0.785-0.128c2.009-0.388,3.945-1.023,5.85-1.778c1.251-0.495,2.571-0.808,3.865-1.209
		c1.287-0.395,2.574-0.79,3.863-1.201c3.124-0.993,6.294-1.68,9.615-1.507c2.274,0.115,4.232,0.863,5.863,2.388
		c1.541,1.432,2.457,3.277,3.026,5.281c0.337,1.191,0.69,2.376,0.948,3.581c0.179,0.81,0.191,1.652,0.312,2.472
		c0.278,1.9-0.063,3.775-0.237,5.65c-0.093,1.022-0.485,2.017-0.755,3.018c-0.134,0.456-0.281,0.916-0.473,1.35
		c-0.506,1.154-0.972,2.325-1.561,3.431c-0.626,1.199-1.299,2.38-2.074,3.488c-0.641,0.92-1.404,1.757-2.182,2.551
		c-1.192,1.205-2.419,2.359-3.653,3.522c-0.644,0.61-1.287,1.228-1.992,1.766c-0.938,0.712-1.925,1.362-2.903,2.013
		c-0.926,0.612-1.842,1.234-2.811,1.78c-1.067,0.617-2.175,1.145-3.268,1.717c-0.437,0.227-0.859,0.483-1.304,0.7
		c-0.313,0.154-0.663,0.246-0.986,0.391c-0.348,0.156-0.677,0.362-1.041,0.5c-0.68,0.28-1.41,0.453-2.061,0.789
		c-0.628,0.322-1.359,0.355-1.937,0.653c-0.882,0.454-1.863,0.497-2.749,0.89c-0.244,0.103-0.541,0.086-0.817,0.125
		c-0.21,0.028-0.474-0.018-0.616,0.094c-0.473,0.383-1.05,0.215-1.567,0.345c-0.538,0.135-1.102,0.075-1.607,0.185
		c-0.55,0.114-1.084,0.132-1.631,0.161c-0.104,0.004-0.265,0.007-0.292,0.068c-0.283,0.553-0.791,0.356-1.225,0.385
		c-3.621,0.188-7.031-0.729-10.324-2.091c-1.135-0.47-2.149-1.245-3.205-1.899c-1.74-1.093-3.471-2.205-5.205-3.308
		C195.429,76.379,195.382,76.325,195.286,76.231z"/>
</g>
</svg>
