<?xml version="1.0" encoding="utf-8"?>
<!-- Generator: Adobe Illustrator 16.0.0, SVG Export Plug-In . SVG Version: 6.00 Build 0)  -->
<!DOCTYPE svg PUBLIC "-//W3C//DTD SVG 1.1//EN" "http://www.w3.org/Graphics/SVG/1.1/DTD/svg11.dtd">
<svg version="1.1" xmlns="http://www.w3.org/2000/svg" xmlns:xlink="http://www.w3.org/1999/xlink" x="0px" y="0px"
	 width="1842.519px" height="566.929px" viewBox="0 0 1842.519 566.929" enable-background="new 0 0 1842.519 566.929"
	 xml:space="preserve">
<g id="Layer_2">
</g>
<g id="Layer_1">
</g>
<g id="Layer_3">
	<g>
		<path fill-rule="evenodd" clip-rule="evenodd" d="M206.489,367.714c-11.956-4.489-24.235-8.299-35.802-13.618
			c-17.767-8.178-35.16-17.19-52.486-26.284c-9.248-4.861-18.003-10.618-26.979-15.97c-6.86-5.963-13.735-11.924-20.611-17.886
			c-1.611-1.734-3.236-3.455-4.859-5.179c-25.752,22.469-35.359,53.741-26.504,85.504c15.42,55.383,77.383,92.337,133.405,79.566
			c40.925-9.325,66.834-39.17,69.454-78.26c-1.607-0.188-3.217-0.371-4.827-0.542C227.016,372.609,216.753,370.152,206.489,367.714z
			"/>
		<path fill-rule="evenodd" clip-rule="evenodd" d="M192.753,212.002c8.841,14.344,22.509,17.765,37.904,16.275
			c12.6-1.236,25.117-3.472,37.667-5.267c10.821-3.472,21.644-6.961,32.467-10.449c2.658-1.542,5.334-3.065,7.977-4.608
			c9.974-5.792,20.594-10.72,29.791-17.562c33.059-24.643,45.964-61.207,35.599-98.382C357.408,31.851,290.103-8.289,229.252,5.583
			c-51.063,11.635-80.617,52.671-75.011,104.564c1.203,11.161,3.472,22.203,5.233,33.297c5.674,14.344,11.348,28.672,17.021,43.018
			C181.915,194.963,187.453,203.414,192.753,212.002z"/>
		<path opacity="0.2" fill-rule="evenodd" clip-rule="evenodd" fill="#FFFFFF" d="M298.665,136.614
			c2.572,0.512,5.124,1.23,7.724,1.484c3.038,0.297,6.121,0.328,9.176,0.232c21.643-0.673,35.617-18.422,31.522-39.654
			c-1.527-7.923-4.65-14.996-9.53-21.339c-11.479-14.914-26.559-22.643-45.454-21.509c-16.833,1.01-28.861,13.74-29.675,30.591
			C261.391,107.828,275.117,131.12,298.665,136.614z"/>
		<g>
			<path d="M95.979,132.286c21.646,0,42.747,4.284,63.495,11.158c5.674,14.344,11.348,28.672,17.021,43.018
				c5.419,8.502,10.957,16.953,16.258,25.541c7.605,12.339,18.785,16.595,31.56,16.595c2.076,0,4.192-0.112,6.344-0.32
				c12.6-1.236,25.117-3.472,37.667-5.267c10.821-3.472,21.644-6.961,32.467-10.449c25.726,17.477,48.673,37.699,62.273,66.423
				c16.125,34.076,3.167,71.133-30.501,88.288c-16.576,8.436-34.246,11.509-52.391,11.509c-2.804,0-5.619-0.073-8.444-0.212
				c-11.517-0.559-22.967-2.302-34.449-3.523c-10.264-2.437-20.526-4.894-30.791-7.332c-11.956-4.489-24.235-8.299-35.802-13.618
				c-17.767-8.178-35.16-17.19-52.486-26.284c-9.248-4.861-18.003-10.618-26.979-15.97c-6.86-5.963-13.735-11.924-20.611-17.886
				c-8.418-9.061-17.089-17.9-25.202-27.233c-11.973-13.753-21.17-29.215-25.742-47.032c-11.314-44.154,15.479-82.294,60.851-86.663
				C85.702,132.525,90.857,132.286,95.979,132.286 M95.979,125.286c-5.399,0-10.829,0.261-16.137,0.775
				c-24.017,2.313-44.171,13.454-56.747,31.372c-12.57,17.909-16.196,40.636-10.21,63.996c4.554,17.745,13.465,34.063,27.243,49.891
				c5.684,6.538,11.688,12.893,17.496,19.039c2.587,2.737,5.261,5.568,7.857,8.362l0.257,0.276l0.285,0.248l0.728,0.631
				c6.631,5.75,13.261,11.498,19.877,17.249l0.471,0.409l0.536,0.32c2.75,1.639,5.545,3.358,8.248,5.021
				c6.134,3.772,12.477,7.673,19.058,11.133c16.744,8.788,34.61,18.066,52.817,26.446c8.262,3.8,16.864,6.853,25.183,9.804
				c3.653,1.297,7.431,2.637,11.086,4.01l0.413,0.154l0.429,0.103c4.887,1.161,9.773,2.326,14.659,3.491
				c5.378,1.282,10.755,2.564,16.133,3.841l0.433,0.103l0.443,0.048c3.463,0.368,7.005,0.795,10.431,1.207
				c7.952,0.957,16.175,1.947,24.419,2.348c2.979,0.146,5.935,0.22,8.783,0.22c21.166,0,39.342-4.014,55.565-12.271
				c17.928-9.135,31.196-23.959,37.362-41.744c6.186-17.842,4.87-37.65-3.708-55.776c-15.643-33.04-42.776-54.348-64.667-69.219
				l-2.827-1.921l-3.253,1.048l-2.53,0.815c-9.79,3.155-19.579,6.31-29.368,9.451c-3.678,0.53-7.387,1.101-10.98,1.654
				c-8.472,1.304-17.232,2.652-25.792,3.492c-1.965,0.19-3.873,0.287-5.661,0.287c-11.887,0-20.021-4.216-25.601-13.268
				c-3.65-5.913-7.452-11.826-11.129-17.544c-1.612-2.506-3.223-5.012-4.825-7.522c-2.846-7.195-5.691-14.385-8.537-21.575
				l-8.238-20.819l-1.203-3.042l-3.104-1.028C138.293,129.052,116.804,125.286,95.979,125.286L95.979,125.286z"/>
		</g>
		<path opacity="0.3" fill-rule="evenodd" clip-rule="evenodd" d="M241.712,357.581c-1.108-10.274-3.199-20.44-4.82-30.654
			c-5.223-13.205-10.446-26.396-15.669-39.602c-4.988-7.829-10.087-15.607-14.968-23.515c-8.141-13.207-20.724-16.355-34.897-14.985
			c-11.6,1.139-23.123,3.198-34.677,4.851c-9.962,3.196-19.925,6.409-29.89,9.621c-2.447,1.419-4.91,2.82-7.344,4.239
			c-9.183,5.333-18.959,9.87-27.426,16.171c-2.19,1.633-4.272,3.326-6.27,5.07c1.624,1.724,3.249,3.444,4.859,5.179
			c6.876,5.962,13.751,11.923,20.611,17.886c8.976,5.352,17.731,11.108,26.979,15.97c17.326,9.094,34.719,18.106,52.486,26.284
			c11.567,5.319,23.846,9.129,35.802,13.618c10.264,2.438,20.527,4.896,30.791,7.332c1.61,0.171,3.219,0.354,4.827,0.542
			C242.494,369.775,242.381,363.765,241.712,357.581z"/>
		
			<path fill-rule="evenodd" clip-rule="evenodd" fill="none" stroke="#000000" stroke-width="7" stroke-linecap="round" stroke-miterlimit="10" d="
			M187.449,224.378c0,0,10.048,19.063,33.517,18.199"/>
	</g>
	<g>
		<g>
			<g>
				<path d="M439.162,186.11c-1.722,0-3.118-1.396-3.118-3.118V59.283c0-1.722,1.396-3.118,3.118-3.118h34.921
					c11.262,0,21.39,2.541,30.104,7.552c8.759,5.04,15.615,12.302,20.377,21.586c4.71,9.189,7.127,19.84,7.184,31.656v7.916
					c0,12.119-2.389,22.917-7.099,32.097c-4.766,9.293-11.674,16.532-20.532,21.514c-8.777,4.939-19.1,7.504-30.682,7.624
					c-0.011,0-0.021,0-0.032,0H439.162z M472.639,166.534c11.755,0,20.597-3.498,27.03-10.695c6.437-7.2,9.7-17.745,9.7-31.342
					v-7.23c0-13.231-3.082-23.583-9.16-30.767c-6.038-7.133-14.455-10.653-25.73-10.759h-15.886v90.792H472.639z"/>
			</g>
			<g>
				<path d="M588.955,187.808c-13.289,0-24.281-4.455-32.669-13.24c-8.354-8.747-12.59-20.52-12.59-34.993v-2.889
					c0-9.552,1.863-18.229,5.538-25.79c3.72-7.651,9.009-13.733,15.723-18.078c6.747-4.363,14.163-6.575,22.042-6.575
					c12.861,0,23.041,4.347,30.256,12.92c7.082,8.413,10.673,20.466,10.673,35.824v6.542c0,1.722-1.396,3.118-3.118,3.118h-58.964
					c0.683,6.801,3.01,12.424,6.937,16.75c4.493,4.942,10.063,7.345,17.024,7.345c4.963,0,9.177-0.999,12.521-2.967
					c3.492-2.053,6.595-4.819,9.224-8.224c0.507-0.656,1.254-1.083,2.076-1.188c0.131-0.017,0.262-0.025,0.392-0.025
					c0.69,0,1.365,0.229,1.916,0.658l9.601,7.476c1.277,0.995,1.581,2.803,0.697,4.161
					C617.955,181.356,605.412,187.808,588.955,187.808z M605.811,125.495c-0.638-6.227-2.491-11.125-5.522-14.58
					c-3.26-3.715-7.607-5.521-13.29-5.521c-5.489,0-9.97,1.941-13.694,5.934c-3.218,3.455-5.436,8.21-6.613,14.167H605.811z"/>
			</g>
			<g>
				<path d="M699.58,186.11c-1.722,0-3.118-1.396-3.118-3.118v-60.835c-0.05-5.759-1.297-9.996-3.704-12.565
					c-2.349-2.503-6.257-3.773-11.616-3.773c-4.479,0-8.282,1.147-11.626,3.508c-3.216,2.268-5.799,5.258-7.687,8.896v64.77
					c0,1.722-1.396,3.118-3.118,3.118h-15.72c-1.722,0-3.118-1.396-3.118-3.118V91.061c0-1.722,1.396-3.118,3.118-3.118h14.872
					c1.669,0,3.042,1.313,3.115,2.981l0.188,4.243c6.8-5.927,15.09-8.923,24.731-8.923c14.708,0,32.289,6.241,32.517,35.975v60.774
					c0,1.722-1.396,3.118-3.118,3.118H699.58z"/>
			</g>
			<g>
				<path d="M772.817,187.808c-7.783,0-14.796-1.411-20.845-4.192c-6.155-2.83-11.057-6.864-14.566-11.989
					c-3.547-5.18-5.346-10.875-5.346-16.927c0-1.722,1.396-3.118,3.118-3.118h15.718c1.657,0,3.025,1.296,3.113,2.951
					c0.234,4.364,1.916,7.715,5.142,10.246c3.354,2.63,7.951,3.964,13.666,3.964c5.293,0,9.525-1.038,12.58-3.083
					c2.74-1.833,4.016-4.073,4.016-7.051c0-3.269-1.122-5.616-3.531-7.387c-2.826-2.075-8.056-3.938-15.542-5.538
					c-8.195-1.751-14.827-3.9-19.712-6.389c-5.122-2.608-9.002-5.811-11.528-9.518c-2.586-3.798-3.896-8.333-3.896-13.482
					c0-8.479,3.601-15.723,10.701-21.531c6.916-5.654,15.799-8.52,26.402-8.52c11.118,0,20.321,2.957,27.354,8.788
					c7.203,5.98,10.854,13.733,10.854,23.047c0,1.722-1.396,3.118-3.118,3.118h-15.803c-1.722,0-3.118-1.396-3.118-3.118
					c0-3.376-1.435-6.241-4.387-8.756c-3.1-2.644-6.954-3.929-11.783-3.929c-4.991,0-8.866,1.038-11.517,3.086
					c-2.479,1.915-3.633,4.236-3.633,7.305c0,2.722,0.976,4.615,3.07,5.958c1.846,1.184,5.992,3.03,15.268,5.103
					c8.066,1.808,14.723,4.009,19.787,6.542c5.325,2.662,9.366,5.964,12.01,9.815c2.704,3.945,4.074,8.756,4.074,14.3
					c0,9.206-3.734,16.689-11.099,22.242C793.176,185.095,783.941,187.808,772.817,187.808z"/>
			</g>
			<g>
				<path d="M830.083,186.11c-1.722,0-3.118-1.396-3.118-3.118V91.061c0-1.722,1.396-3.118,3.118-3.118h15.719
					c1.722,0,3.118,1.396,3.118,3.118v91.931c0,1.722-1.396,3.118-3.118,3.118H830.083z M838.068,78.714
					c-3.955,0-7.058-1.198-9.221-3.562c-2.094-2.28-3.157-5.133-3.157-8.477c0-3.323,1.052-6.192,3.125-8.527
					c2.165-2.442,5.278-3.682,9.253-3.682c3.962,0,7.085,1.231,9.282,3.66c2.113,2.342,3.184,5.217,3.184,8.549
					c0,3.352-1.082,6.211-3.216,8.499C845.123,77.523,842.011,78.714,838.068,78.714z"/>
			</g>
			<g>
				<path d="M897.797,187.808c-7.952,0-14.101-2.518-18.273-7.483c-4.036-4.805-6.083-11.568-6.083-20.104v-53.892h-13.622
					c-1.722,0-3.118-1.396-3.118-3.118V91.061c0-1.722,1.396-3.118,3.118-3.118h13.622V68.8c0-1.722,1.396-3.118,3.118-3.118h15.716
					c1.722,0,3.118,1.396,3.118,3.118v19.143h14.045c1.722,0,3.118,1.396,3.118,3.118v12.149c0,1.722-1.396,3.118-3.118,3.118
					h-14.045v53.964c0,2.881,0.545,5.061,1.576,6.302c1.121,1.354,3.564,1.637,5.417,1.637c1.586,0,3.881-0.319,6.823-0.949
					c0.217-0.046,0.435-0.069,0.652-0.069c0.707,0,1.4,0.241,1.961,0.694c0.731,0.592,1.157,1.483,1.157,2.424v12.668
					c0,1.407-0.942,2.639-2.299,3.009C906.298,187.203,901.963,187.808,897.797,187.808z"/>
			</g>
			<g>
				<path d="M931.871,223.24c-0.089,0-0.177-0.004-0.266-0.011l-2.974-0.254c-0.104-0.009-0.21-0.023-0.313-0.043l-5.86-1.108
					c-1.473-0.278-2.539-1.565-2.539-3.064v-12.743c0-0.87,0.363-1.701,1.003-2.291c0.578-0.534,1.334-0.827,2.115-0.827
					c0.082,0,0.165,0.003,0.248,0.01l4.117,0.329c4.574-0.016,8.105-0.902,10.498-2.635c2.425-1.757,4.52-5.216,6.225-10.28
					l3.114-8.368l-32.406-89.835c-0.345-0.956-0.203-2.019,0.381-2.85c0.584-0.832,1.536-1.326,2.552-1.326h17.163
					c1.343,0,2.534,0.859,2.958,2.133l19.88,59.712l18.535-59.652c0.405-1.304,1.612-2.193,2.978-2.193h16.826
					c1.01,0,1.957,0.489,2.542,1.312c0.585,0.823,0.734,1.878,0.402,2.832l-36.961,106.121
					C955.865,214.84,945.707,223.24,931.871,223.24z"/>
			</g>
			<g>
				<path d="M1055.66,186.11c-1.722,0-3.118-1.396-3.118-3.118V59.283c0-1.722,1.396-3.118,3.118-3.118h76.64
					c1.722,0,3.118,1.396,3.118,3.118v13.34c0,1.722-1.396,3.118-3.118,3.118h-57.204v36.161h48.795
					c1.722,0,3.118,1.396,3.118,3.118v13.338c0,1.722-1.396,3.118-3.118,3.118h-48.795v51.515c0,1.722-1.396,3.118-3.118,3.118
					H1055.66z"/>
			</g>
			<g>
				<path d="M1177.329,187.808c-10.672,0-18.984-3.22-24.705-9.57c-5.625-6.247-8.511-15.447-8.576-27.345V91.061
					c0-1.722,1.396-3.118,3.118-3.118h15.722c1.722,0,3.118,1.396,3.118,3.118v59.389c0,15.761,7.416,17.782,13.876,17.782
					c10.481,0,17.307-3.596,20.841-10.988V91.061c0-1.722,1.396-3.118,3.118-3.118h15.718c1.722,0,3.118,1.396,3.118,3.118v91.931
					c0,1.722-1.396,3.118-3.118,3.118h-14.954c-1.677,0-3.053-1.326-3.116-3.001l-0.085-2.281
					C1195.148,185.464,1187.082,187.808,1177.329,187.808z"/>
			</g>
			<g>
				<path d="M1300.019,186.11c-1.722,0-3.118-1.396-3.118-3.118v-60.835c-0.049-5.76-1.295-9.996-3.703-12.565
					c-2.347-2.504-6.254-3.773-11.613-3.773c-4.481,0-8.286,1.147-11.63,3.508c-3.217,2.27-5.8,5.26-7.685,8.896v64.771
					c0,1.722-1.396,3.118-3.118,3.118h-15.719c-1.722,0-3.118-1.396-3.118-3.118V91.061c0-1.722,1.396-3.118,3.118-3.118h14.868
					c1.669,0,3.041,1.313,3.115,2.98l0.188,4.245c6.801-5.928,15.091-8.925,24.733-8.925c14.709,0,32.29,6.241,32.518,35.975v60.774
					c0,1.722-1.396,3.118-3.118,3.118H1300.019z"/>
			</g>
			<g>
				<path d="M1376.317,187.808c-13.394,0-24.227-4.57-32.2-13.583c-7.879-8.904-11.873-21.134-11.873-36.349v-2.632
					c0-9.368,1.759-17.848,5.229-25.206c3.531-7.485,8.683-13.386,15.313-17.54c6.618-4.149,14.507-6.253,23.447-6.253
					c11.057,0,20.406,3.387,27.792,10.066c7.433,6.723,11.451,15.542,11.944,26.213c0.039,0.851-0.271,1.681-0.86,2.297
					c-0.588,0.616-1.403,0.965-2.255,0.965h-14.869c-1.63,0-2.985-1.255-3.109-2.881c-0.396-5.192-2.289-9.323-5.787-12.626
					c-3.482-3.287-7.688-4.884-12.855-4.884c-7.023,0-12.285,2.42-16.087,7.398c-3.943,5.166-5.943,12.92-5.943,23.045v2.972
					c0,9.845,1.985,17.442,5.901,22.581c3.773,4.946,9.077,7.352,16.214,7.352c4.916,0,9.082-1.439,12.736-4.4
					c3.54-2.872,5.445-6.339,5.825-10.599c0.143-1.609,1.49-2.842,3.105-2.842h14.869c0.856,0,1.675,0.352,2.264,0.973
					c0.589,0.622,0.896,1.458,0.85,2.313c-0.313,5.834-2.333,11.441-6.004,16.664c-3.62,5.16-8.507,9.324-14.521,12.373
					C1389.447,186.265,1383.012,187.808,1376.317,187.808z"/>
			</g>
			<g>
				<path d="M1457.374,187.808c-7.953,0-14.103-2.518-18.275-7.483c-4.036-4.804-6.082-11.567-6.082-20.104v-53.892h-13.623
					c-1.722,0-3.118-1.396-3.118-3.118V91.061c0-1.722,1.396-3.118,3.118-3.118h13.623V68.8c0-1.722,1.396-3.118,3.118-3.118h15.715
					c1.722,0,3.118,1.396,3.118,3.118v19.143h14.044c1.722,0,3.118,1.396,3.118,3.118v12.149c0,1.722-1.396,3.118-3.118,3.118
					h-14.044v53.964c0,2.923,0.53,5.042,1.576,6.3c1.123,1.356,3.566,1.639,5.418,1.639c1.583,0,3.88-0.319,6.827-0.949
					c0.216-0.046,0.435-0.069,0.651-0.069c0.707,0,1.401,0.241,1.961,0.694c0.732,0.592,1.157,1.483,1.157,2.424v12.668
					c0,1.407-0.942,2.64-2.3,3.009C1465.872,187.203,1461.537,187.808,1457.374,187.808z"/>
			</g>
			<g>
				<path d="M1488.723,186.11c-1.722,0-3.118-1.396-3.118-3.118V91.061c0-1.722,1.396-3.118,3.118-3.118h15.717
					c1.722,0,3.118,1.396,3.118,3.118v91.931c0,1.722-1.396,3.118-3.118,3.118H1488.723z M1496.708,78.714
					c-3.955,0-7.059-1.198-9.223-3.561c-2.091-2.273-3.153-5.127-3.153-8.478c0-3.33,1.051-6.2,3.123-8.529
					c2.164-2.44,5.278-3.68,9.253-3.68c3.965,0,7.088,1.232,9.283,3.662c2.113,2.345,3.184,5.22,3.184,8.547
					c0,3.349-1.082,6.208-3.216,8.497C1503.766,77.523,1500.655,78.714,1496.708,78.714z"/>
			</g>
			<g>
				<path d="M1567.313,187.808c-13.329,0-24.303-4.724-32.614-14.042c-8.22-9.216-12.388-21.492-12.388-36.487v-1.103
					c0-9.45,1.895-18.089,5.632-25.677c3.785-7.692,9.147-13.724,15.938-17.927c6.785-4.2,14.611-6.329,23.263-6.329
					c13.391,0,24.393,4.724,32.701,14.042c8.223,9.217,12.393,21.549,12.393,36.655v1.104c0,9.38-1.835,17.94-5.453,25.443
					c-3.674,7.619-9.009,13.643-15.858,17.903C1584.083,185.648,1576.138,187.808,1567.313,187.808z M1567.144,105.394
					c-6.801,0-12.134,2.632-16.304,8.047c-4.31,5.589-6.494,13.867-6.494,24.604c0,9.448,2.172,17.071,6.454,22.658
					c4.145,5.41,9.546,8.04,16.513,8.04c7.015,0,12.427-2.664,16.543-8.143c4.263-5.677,6.425-13.894,6.425-24.423
					c0-9.333-2.199-16.943-6.538-22.618C1579.542,108.064,1574.112,105.394,1567.144,105.394z"/>
			</g>
			<g>
				<path d="M1685.415,186.11c-1.722,0-3.118-1.396-3.118-3.118v-60.835c-0.048-5.758-1.293-9.994-3.701-12.566
					c-2.346-2.503-6.255-3.772-11.617-3.772c-4.478,0-8.28,1.147-11.626,3.508c-3.215,2.269-5.798,5.26-7.687,8.896v64.77
					c0,1.722-1.396,3.118-3.118,3.118h-15.719c-1.722,0-3.118-1.396-3.118-3.118V91.061c0-1.722,1.396-3.118,3.118-3.118h14.871
					c1.669,0,3.042,1.314,3.115,2.981l0.187,4.243c6.803-5.927,15.093-8.924,24.734-8.924c14.705,0,32.284,6.241,32.519,35.974
					v60.774c0,1.722-1.396,3.118-3.118,3.118H1685.415z"/>
			</g>
			<g>
				<path d="M1753.215,187.808c-9.803,0-18.001-2.85-24.368-8.469c-6.478-5.723-9.761-13.069-9.761-21.836
					c0-10.583,4.105-18.936,12.203-24.825c7.788-5.667,18.739-8.542,32.549-8.542h12.174v-4.103c0-4.67-1.311-8.24-4.007-10.915
					c-2.663-2.642-6.813-3.981-12.332-3.981c-4.959,0-8.962,1.188-12.239,3.63c-2.987,2.23-4.44,4.775-4.44,7.781
					c0,1.722-1.396,3.118-3.118,3.118h-15.801c-1.722,0-3.118-1.396-3.118-3.118c0-5.264,1.857-10.373,5.52-15.185
					c3.562-4.675,8.428-8.413,14.464-11.112c5.961-2.66,12.577-4.008,19.666-4.008c11.325,0,20.396,2.935,26.959,8.723
					c6.656,5.875,10.155,13.998,10.401,24.142l0.001,42.387c0,7.965,1,14.325,2.972,18.904c0.168,0.39,0.255,0.809,0.255,1.233v1.36
					c0,1.722-1.396,3.118-3.118,3.118h-16.481c-1.181,0-2.26-0.667-2.788-1.723c-0.602-1.201-1.123-2.824-1.574-4.904
					C1770.279,185.011,1762.224,187.808,1753.215,187.808z M1766.81,141.503c-25.769,0-25.769,10.379-25.769,13.79
					c0,3.999,1.249,7,3.818,9.174c2.73,2.304,6.215,3.425,10.65,3.425c4.353,0,8.544-1.146,12.46-3.406
					c3.67-2.117,6.308-4.735,8.042-7.987v-14.996H1766.81z"/>
			</g>
			<g>
				<path d="M1820.852,186.11c-1.722,0-3.118-1.396-3.118-3.118V52.485c0-1.722,1.396-3.118,3.118-3.118h15.715
					c1.722,0,3.118,1.396,3.118,3.118v130.506c0,1.722-1.396,3.118-3.118,3.118H1820.852z"/>
			</g>
			<g>
				<path d="M468.645,394.916c-1.722,0-3.118-1.396-3.118-3.118V284.55h-36.561c-1.722,0-3.118-1.396-3.118-3.118v-13.34
					c0-1.722,1.396-3.118,3.118-3.118h95.671c1.722,0,3.118,1.396,3.118,3.118v13.34c0,1.722-1.396,3.118-3.118,3.118h-36.646
					v107.248c0,1.722-1.396,3.118-3.118,3.118H468.645z"/>
			</g>
			<g>
				<path d="M597.111,394.916c-1.722,0-3.118-1.396-3.118-3.118v-60.833c-0.046-5.757-1.291-9.993-3.702-12.565
					c-2.346-2.503-6.255-3.772-11.62-3.772c-4.48,0-8.28,1.146-11.618,3.506c-3.211,2.263-5.795,5.254-7.693,8.9v64.765
					c0,1.722-1.396,3.118-3.118,3.118h-15.718c-1.722,0-3.118-1.396-3.118-3.118v-130.5c0-1.722,1.396-3.118,3.118-3.118h15.718
					c1.722,0,3.118,1.396,3.118,3.118v42.105c6.671-5.549,14.738-8.354,24.074-8.354c14.706,0,32.284,6.241,32.517,35.976v60.772
					c0,1.722-1.396,3.118-3.118,3.118H597.111z"/>
			</g>
			<g>
				<path d="M674.514,396.616c-13.29,0-24.282-4.455-32.672-13.242c-8.352-8.743-12.587-20.518-12.587-34.995v-2.884
					c0-9.554,1.862-18.231,5.534-25.791c3.719-7.649,9.009-13.731,15.726-18.078c6.747-4.363,14.163-6.576,22.042-6.576
					c12.855,0,23.035,4.347,30.257,12.92c7.081,8.416,10.671,20.469,10.671,35.825v6.542c0,1.722-1.396,3.118-3.118,3.118h-58.962
					c0.68,6.798,3.006,12.422,6.937,16.749c4.489,4.943,10.059,7.347,17.023,7.347c4.96,0,9.173-0.998,12.522-2.968
					c3.485-2.048,6.589-4.816,9.226-8.226c0.507-0.656,1.254-1.083,2.077-1.187c0.13-0.017,0.26-0.024,0.39-0.024
					c0.69,0,1.365,0.229,1.916,0.658l9.598,7.476c1.277,0.995,1.581,2.803,0.697,4.16
					C703.514,390.164,690.972,396.616,674.514,396.616z M691.369,334.305c-0.638-6.23-2.491-11.127-5.52-14.576
					c-3.26-3.718-7.607-5.523-13.292-5.523c-5.494,0-9.973,1.938-13.692,5.928c-3.22,3.456-5.438,8.213-6.615,14.172H691.369z"/>
			</g>
			<g>
				<path d="M766.274,396.616c-13.33,0-24.303-4.724-32.615-14.04c-8.223-9.222-12.392-21.497-12.392-36.487v-1.104
					c0-9.451,1.896-18.091,5.635-25.679c3.784-7.694,9.148-13.728,15.941-17.93c6.792-4.198,14.618-6.326,23.262-6.326
					c13.384,0,24.387,4.724,32.703,14.039c8.222,9.219,12.39,21.553,12.39,36.661v1.104c0,9.375-1.835,17.934-5.453,25.44
					c-3.675,7.623-9.011,13.646-15.859,17.903C783.042,394.456,775.097,396.616,766.274,396.616z M766.105,314.205
					c-6.802,0-12.137,2.631-16.309,8.042c-4.306,5.592-6.489,13.871-6.489,24.606c0,9.446,2.171,17.069,6.453,22.658
					c4.144,5.41,9.545,8.039,16.514,8.039c7.013,0,12.422-2.663,16.538-8.143c4.266-5.677,6.428-13.894,6.428-24.424
					c0-9.334-2.2-16.944-6.539-22.62C778.499,316.874,773.071,314.205,766.105,314.205z"/>
			</g>
			<g>
				<path d="M827.789,394.916c-1.722,0-3.118-1.396-3.118-3.118v-91.929c0-1.722,1.396-3.118,3.118-3.118h15.295
					c1.693,0,3.077,1.352,3.117,3.044l0.054,2.278c5.112-4.667,11.475-7.023,19.003-7.023c3.585,0,6.321,0.498,8.362,1.522
					c1.055,0.529,1.72,1.607,1.72,2.787v14.613c0,0.917-0.403,1.787-1.103,2.379c-0.567,0.48-1.283,0.739-2.016,0.739
					c-0.171,0-0.342-0.014-0.513-0.043c-2.217-0.369-4.645-0.557-7.218-0.557c-8.783,0-14.634,3.503-17.865,10.703v64.604
					c0,1.722-1.396,3.118-3.118,3.118H827.789z"/>
			</g>
			<g>
				<path d="M892.277,432.044c-0.089,0-0.177-0.004-0.266-0.012l-2.973-0.254c-0.104-0.009-0.208-0.022-0.311-0.042l-5.865-1.104
					c-1.475-0.277-2.542-1.564-2.542-3.064v-12.743c0-0.87,0.363-1.7,1.003-2.291c0.578-0.533,1.334-0.827,2.115-0.827
					c0.082,0,0.165,0.003,0.248,0.01l4.123,0.329c4.572-0.016,8.104-0.902,10.497-2.638c2.421-1.75,4.514-5.207,6.226-10.277
					l3.114-8.369l-32.409-89.834c-0.345-0.956-0.203-2.02,0.381-2.851s1.536-1.326,2.552-1.326h17.166
					c1.343,0,2.534,0.859,2.959,2.134l19.877,59.712l18.539-59.653c0.405-1.304,1.612-2.192,2.978-2.192h16.819
					c1.01,0,1.957,0.489,2.542,1.312c0.585,0.823,0.734,1.879,0.402,2.832l-36.959,106.12
					C916.275,423.646,906.117,432.044,892.277,432.044z"/>
			</g>
		</g>
	</g>
</g>
</svg>
