<?xml version="1.0" encoding="utf-8"?>
<!-- Generator: Adobe Illustrator 16.0.0, SVG Export Plug-In . SVG Version: 6.00 Build 0)  -->
<!DOCTYPE svg PUBLIC "-//W3C//DTD SVG 1.1//EN" "http://www.w3.org/Graphics/SVG/1.1/DTD/svg11.dtd">
<svg version="1.1"
	 id="svg2" xmlns:dc="http://purl.org/dc/elements/1.1/" xmlns:cc="http://web.resource.org/cc/" xmlns:rdf="http://www.w3.org/1999/02/22-rdf-syntax-ns#" xmlns:svg="http://www.w3.org/2000/svg" xmlns:sodipodi="http://inkscape.sourceforge.net/DTD/sodipodi-0.dtd" xmlns:inkscape="http://www.inkscape.org/namespaces/inkscape" sodipodi:docbase="/home/sdeibel" sodipodi:docname="logo-python-generic.svg" inkscape:version="0.43" sodipodi:version="0.32"
	 xmlns="http://www.w3.org/2000/svg" xmlns:xlink="http://www.w3.org/1999/xlink" x="0px" y="0px" width="1842.52px"
	 height="566.929px" viewBox="-675.8 -194.113 1842.52 566.929" enable-background="new -675.8 -194.113 1842.52 566.929"
	 xml:space="preserve">
<sodipodi:namedview  inkscape:cy="71.887497" inkscape:cx="243.02499" borderopacity="1.0" pagecolor="#ffffff" bordercolor="#666666" inkscape:zoom="1.4340089" id="base" inkscape:current-layer="svg2" inkscape:window-y="0" inkscape:window-x="0" inkscape:window-width="791" inkscape:window-height="543" inkscape:pageopacity="0.0" inkscape:pageshadow="2">
	</sodipodi:namedview>
<path id="path46" d="M16.798,64.529c0-56.421-16.085-85.388-48.263-86.974c-12.805-0.603-25.303,1.435-37.468,6.157
	c-9.706,3.472-16.236,6.913-19.672,10.389v134.675c20.584,12.918,38.855,18.923,54.797,17.976
	C-0.086,144.521,16.798,117.14,16.798,64.529z M56.491,66.872c0,28.661-6.72,52.459-20.244,71.377
	c-15.067,21.414-35.955,32.443-62.653,33.044c-20.13,0.646-40.865-5.659-62.203-18.881v122.404l-34.52-12.316V-9.189
	c5.665-6.947,12.956-12.915,21.792-17.974c20.546-11.974,45.508-18.13,74.894-18.433l0.489,0.493
	C0.899-45.444,21.589-34.417,36.13-12.06C49.691,8.449,56.491,34.735,56.491,66.872z"/>
<path id="path48" d="M267.455,147.207c0,38.443-3.853,65.067-11.556,79.872c-7.738,14.803-22.473,26.623-44.222,35.428
	c-17.641,6.947-36.715,10.729-57.182,11.367l-5.702-21.753c20.808-2.827,35.462-5.665,43.957-8.495
	c16.732-5.669,28.212-14.349,34.52-25.979c5.066-9.484,7.552-27.573,7.552-54.349v-8.986
	c-23.604,10.728-48.339,16.052-74.208,16.052c-16.998,0-31.989-5.324-44.907-16.052c-14.503-11.673-21.753-26.473-21.753-44.415
	v-143.67l34.52-11.824V99.012c0,15.441,4.984,27.342,14.955,35.688c9.97,8.343,22.888,12.354,38.712,12.044
	c15.824-0.34,32.78-6.454,50.791-18.428V-40.388h34.521v187.595H267.455z"/>
<path id="path50" d="M402.205,169.41c-4.12,0.34-7.894,0.488-11.37,0.488c-19.524,0-34.747-4.644-45.617-13.967
	c-10.842-9.33-16.278-22.207-16.278-38.642V-18.669h-23.646v-21.714h23.646v-57.671l34.478-12.275v69.946h38.788v21.714h-38.788
	v135.015c0,12.955,3.475,22.135,10.42,27.5c5.968,4.417,15.45,6.947,28.364,7.591v17.974H402.205z"/>
<path id="path52" d="M611.206,166.579h-34.52V33.335c0-13.558-3.168-25.227-9.475-34.968c-7.292-11.032-17.41-16.545-30.407-16.545
	c-15.824,0-35.61,8.346-59.364,25.038v159.72h-34.517v-318.488l34.517-10.875v145.06c22.053-16.053,46.146-24.098,72.32-24.098
	c18.282,0,33.082,6.156,44.419,18.431c11.366,12.273,17.03,27.569,17.03,45.85v144.12H611.206z"/>
<path id="path54" d="M794.673,59.094c0-21.678-4.116-39.579-12.312-53.74c-9.744-17.258-24.89-26.364-45.357-27.306
	c-37.842,2.189-56.728,29.304-56.728,81.274c0,23.831,3.928,43.734,11.859,59.709c10.12,20.356,25.307,30.403,45.545,30.063
	C775.679,148.787,794.673,118.805,794.673,59.094z M832.482,59.318c0,30.858-7.895,56.538-23.645,77.044
	c-17.338,22.968-41.277,34.482-71.833,34.482c-30.285,0-53.894-11.522-70.929-34.482c-15.445-20.506-23.148-46.186-23.148-77.044
	c0-29.001,8.342-53.401,25.037-73.267c17.64-21.074,40.824-31.648,69.49-31.648c28.667,0,52.005,10.574,69.985,31.648
	C824.134,5.917,832.482,30.317,832.482,59.318z"/>
<path id="path56" d="M1030.373,166.579h-34.512V25.784c0-15.445-4.647-27.495-13.939-36.183
	c-9.291-8.647-21.679-12.836-37.129-12.501c-16.383,0.3-31.987,5.668-46.787,16.051v173.428h-34.52V-11.113
	c19.866-14.462,38.145-23.909,54.835-28.324c15.75-4.119,29.646-6.159,41.62-6.159c8.195,0,15.903,0.791,23.153,2.38
	c13.557,3.135,24.586,8.95,33.078,17.485c9.481,9.442,14.2,20.77,14.2,34.028V166.579L1030.373,166.579z"/>
<path id="path1948" d="M-464.06-150.633c-17.762,0.081-34.721,1.597-49.648,4.24c-43.96,7.768-51.941,24.021-51.941,54.005v39.594
	h103.89v13.198h-103.89h-38.988c-30.191,0-56.629,18.149-64.9,52.671c-9.54,39.571-9.959,64.266,0,105.585
	c7.386,30.756,25.022,52.672,55.213,52.672h35.72v-47.465c0-34.289,29.669-64.537,64.901-64.537h103.768
	c28.885,0,51.944-23.781,51.944-52.792v-98.931c0-28.153-23.751-49.305-51.944-54.005
	C-427.781-149.366-446.299-150.719-464.06-150.633z M-520.242-118.791c10.73,0,19.494,8.907,19.494,19.857
	c0,10.911-8.768,19.737-19.494,19.737c-10.769,0-19.495-8.823-19.495-19.737C-539.738-109.883-531.011-118.791-520.242-118.791z"/>
<path id="path1950" opacity="0.7" enable-background="new    " d="M-345.036-39.601V6.53c0,35.767-30.323,65.869-64.9,65.869
	h-103.768c-28.424,0-51.941,24.323-51.941,52.793v98.925c0,28.155,24.478,44.717,51.941,52.793
	c32.885,9.669,64.423,11.419,103.768,0c26.154-7.572,51.944-22.817,51.944-52.793v-39.595H-461.76v-13.194h103.768h51.945
	c30.195,0,41.44-21.064,51.94-52.675c10.853-32.537,10.391-63.837,0-105.582c-7.462-30.056-21.711-52.672-51.94-52.672H-345.036z
	 M-403.398,210.919c10.765,0,19.49,8.824,19.49,19.736c0,10.95-8.725,19.857-19.49,19.857c-10.735,0-19.494-8.907-19.494-19.857
	C-422.892,219.743-414.129,210.919-403.398,210.919z"/>
<path id="text3004" d="M1097.597-71.16h6.055v-37.958h14.337v-4.525h-34.728v4.525h14.336V-71.16 M1123.351-71.16h5.168v-34.667
	l11.224,34.664h5.755l11.695-34.547v34.55h5.641v-42.479h-7.461l-12.785,36.395l-10.896-36.395h-8.345v42.479"/>
</svg>
