<?xml version="1.0" encoding="utf-8"?>
<!-- Generator: Adobe Illustrator 16.0.0, SVG Export Plug-In . SVG Version: 6.00 Build 0)  -->
<!DOCTYPE svg PUBLIC "-//W3C//DTD SVG 1.1//EN" "http://www.w3.org/Graphics/SVG/1.1/DTD/svg11.dtd">
<svg version="1.1" id="Layer_1" xmlns="http://www.w3.org/2000/svg" xmlns:xlink="http://www.w3.org/1999/xlink" x="0px" y="0px"
	 width="1842.52px" height="566.929px" viewBox="-53.671 -29.868 1842.52 566.929"
	 enable-background="new -53.671 -29.868 1842.52 566.929" xml:space="preserve">
<g>
	<path d="M390.408,24.024H145.399V-6.602c0-8.46-6.853-15.313-15.313-15.313H-38.358c-8.46,0-15.313,6.853-15.313,15.313v398.139
		c0,8.461,6.853,15.313,15.313,15.313h168.443c8.46,0,15.313-6.853,15.313-15.313v-15.313h199.069
		c8.458,0,15.313-6.856,15.313-15.313c0-8.458-6.855-15.313-15.313-15.313h-48.699l-9.186-45.938h103.825
		c25.33,0,45.938-20.609,45.938-45.94V69.963C436.347,44.633,415.739,24.024,390.408,24.024z M390.408,54.65
		c8.442,0,15.312,6.87,15.312,15.313v137.818H145.399V54.65H390.408z M-23.045,85.277h137.818v45.939H-23.045V85.277z
		 M114.773,8.711V54.65H-23.045V8.711H114.773z M114.773,376.225H-23.045V161.842h137.818V376.225z M145.399,299.66h42.572
		l-9.187,45.938h-33.385V299.66z M264.536,345.599h-54.52l9.188-45.938h36.146L264.536,345.599z M390.408,269.033
		c-4.216,0-240.768,0-245.009,0v-30.626H405.72v15.313C405.72,262.163,398.851,269.033,390.408,269.033z"/>
	<path d="M45.865,284.347c-12.663,0-22.97,10.307-22.97,22.969c0,12.663,10.308,22.97,22.97,22.97
		c12.661,0,22.969-10.307,22.969-22.97C68.834,294.653,58.526,284.347,45.865,284.347z"/>
	<path d="M68.834,192.468H22.894c-8.456,0-15.313,6.857-15.313,15.313c0,8.456,6.856,15.313,15.313,15.313h45.939
		c8.456,0,15.313-6.856,15.313-15.313C84.147,199.325,77.29,192.468,68.834,192.468z"/>
</g>
<g>
	<g>
		<g>
			<path d="M591.203,291.271c-1.602,0-3.02-1.034-3.509-2.56l-25.873-80.669l-25.176,80.643c-0.48,1.538-1.905,2.586-3.518,2.586
				h-16.786c-1.64,0-3.082-1.083-3.539-2.657l-35.136-121.076c-0.323-1.113-0.104-2.313,0.593-3.24
				c0.695-0.927,1.787-1.472,2.946-1.472h20.59c1.674,0,3.138,1.129,3.563,2.748l20.568,78.215l24.382-78.373
				c0.479-1.541,1.905-2.59,3.519-2.59h16.674c1.614,0,3.04,1.05,3.519,2.591l24.865,80.013l20.074-79.818
				c0.412-1.638,1.885-2.786,3.574-2.786h20.701c1.159,0,2.252,0.546,2.947,1.473c0.696,0.928,0.915,2.128,0.591,3.242
				l-35.248,121.075c-0.458,1.573-1.899,2.654-3.538,2.654H591.203z"/>
		</g>
		<g>
			<path d="M713.956,293.509c-17.432,0-31.778-6.175-42.643-18.353c-10.755-12.058-16.208-28.13-16.208-47.773v-1.455
				c0-12.376,2.479-23.691,7.371-33.63c4.95-10.061,11.961-17.947,20.838-23.439c8.869-5.489,19.104-8.272,30.418-8.272
				c17.504,0,31.888,6.174,42.754,18.352c10.755,12.058,16.208,28.206,16.208,47.997v1.455c0,12.29-2.4,23.501-7.135,33.323
				c-4.803,9.962-11.778,17.837-20.731,23.405C735.882,290.687,725.495,293.509,713.956,293.509z M713.733,184.966
				c-9.097,0-16.231,3.52-21.811,10.761c-5.729,7.435-8.634,18.424-8.634,32.664c0,12.537,2.889,22.664,8.584,30.099
				c5.541,7.235,12.765,10.753,22.084,10.753c9.377,0,16.612-3.563,22.119-10.894c5.672-7.552,8.549-18.459,8.549-32.42
				c0-12.386-2.927-22.495-8.698-30.045C730.306,188.538,723.046,184.966,713.733,184.966z"/>
		</g>
		<g>
			<path d="M794.97,291.271c-2.035,0-3.685-1.649-3.685-3.685V166.511c0-2.035,1.649-3.685,3.685-3.685h20.144
				c2.001,0,3.636,1.597,3.684,3.597l0.095,3.95c6.771-6.501,15.285-9.785,25.427-9.785c4.65,0,8.19,0.64,10.823,1.956
				c1.248,0.624,2.036,1.9,2.036,3.296v19.246c0,1.083-0.476,2.111-1.302,2.812c-0.671,0.568-1.517,0.874-2.383,0.874
				c-0.201,0-0.403-0.017-0.604-0.05c-2.924-0.486-6.146-0.733-9.577-0.733c-11.79,0-19.633,4.719-23.955,14.42v85.178
				c0,2.035-1.649,3.685-3.685,3.685H794.97z"/>
		</g>
		<g>
			<path d="M948.495,291.271c-1.158,0-2.248-0.544-2.944-1.469l-39.58-52.599l-8.956,9.342v41.041c0,2.035-1.649,3.685-3.685,3.685
				h-20.701c-2.035,0-3.685-1.649-3.685-3.685V115.708c0-2.035,1.649-3.685,3.685-3.685h20.701c2.035,0,3.685,1.65,3.685,3.685
				v93.763l4.561-5.482c0.051-0.061,0.103-0.119,0.157-0.176l37.71-39.835c0.695-0.735,1.663-1.152,2.676-1.152h25.176
				c1.467,0,2.794,0.87,3.379,2.215c0.585,1.345,0.317,2.909-0.683,3.982l-45.013,48.328l50.754,68.033
				c0.833,1.117,0.965,2.609,0.34,3.855s-1.899,2.032-3.294,2.032H948.495z"/>
		</g>
		<g>
			<path d="M1033.204,293.509c-10.185,0-19.362-1.845-27.277-5.485c-8.04-3.696-14.437-8.961-19.013-15.646
				c-4.622-6.748-6.966-14.168-6.966-22.054c0-2.035,1.649-3.685,3.685-3.685h20.701c1.958,0,3.574,1.532,3.68,3.487
				c0.316,5.88,2.583,10.395,6.931,13.802c4.494,3.527,10.637,5.315,18.26,5.315c7.056,0,12.71-1.391,16.805-4.133
				c3.733-2.498,5.472-5.561,5.472-9.639c0-4.451-1.532-7.65-4.82-10.067c-3.773-2.77-10.715-5.248-20.632-7.366
				c-10.745-2.294-19.444-5.113-25.855-8.377c-6.686-3.403-11.741-7.575-15.025-12.4c-3.357-4.923-5.06-10.817-5.06-17.516
				c0-11.032,4.689-20.462,13.94-28.03c9.031-7.384,20.641-11.127,34.506-11.127c14.542,0,26.571,3.862,35.754,11.479
				c9.385,7.789,14.143,17.892,14.143,30.027c0,2.035-1.649,3.685-3.685,3.685h-20.813c-2.035,0-3.685-1.65-3.685-3.685
				c0-4.578-1.938-8.456-5.925-11.855c-4.162-3.547-9.327-5.272-15.79-5.272c-6.666,0-11.857,1.398-15.43,4.155
				c-3.328,2.57-4.946,5.826-4.946,9.952c0,3.742,1.347,6.348,4.236,8.2c3.573,2.292,10.385,4.573,20.244,6.779
				c10.571,2.367,19.307,5.253,25.964,8.58c6.951,3.478,12.22,7.782,15.658,12.793c3.511,5.122,5.29,11.375,5.29,18.59
				c0,11.984-4.859,21.727-14.444,28.958C1059.837,289.965,1047.758,293.509,1033.204,293.509z"/>
		</g>
		<g>
			<path d="M1142.195,293.509c-10.348,0-18.337-3.266-23.747-9.707c-5.251-6.253-7.913-15.069-7.913-26.205v-71.399h-18.359
				c-2.035,0-3.685-1.65-3.685-3.685v-16.001c0-2.035,1.649-3.685,3.685-3.685h18.359v-25.632c0-2.035,1.649-3.685,3.685-3.685
				h20.702c2.035,0,3.685,1.65,3.685,3.685v25.632h18.919c2.035,0,3.685,1.65,3.685,3.685v16.001c0,2.035-1.649,3.685-3.685,3.685
				h-18.919v71.493c0,3.952,0.73,6.835,2.171,8.568c1.272,1.534,3.782,2.312,7.46,2.312c2.117,0,5.17-0.425,9.075-1.262
				c0.257-0.055,0.516-0.082,0.772-0.082c0.836,0,1.655,0.285,2.316,0.82c0.866,0.699,1.368,1.752,1.368,2.865v16.688
				c0,1.663-1.113,3.12-2.718,3.556C1153.308,292.718,1147.637,293.509,1142.195,293.509z"/>
		</g>
		<g>
			<path d="M1219.068,293.509c-12.807,0-23.509-3.718-31.812-11.051c-8.437-7.446-12.715-17.017-12.715-28.442
				c0-13.793,5.348-24.679,15.896-32.354c10.183-7.411,24.521-11.168,42.618-11.168h16.458v-5.827c0-6.269-1.767-11.068-5.4-14.671
				c-3.593-3.56-9.158-5.366-16.541-5.366c-6.631,0-11.986,1.591-16.371,4.863c-4.048,3.021-6.017,6.484-6.017,10.587
				c0,2.035-1.649,3.685-3.685,3.685h-20.813c-2.035,0-3.685-1.65-3.685-3.685c0-6.838,2.418-13.481,7.188-19.745
				c4.646-6.101,10.999-10.981,18.885-14.504c7.791-3.479,16.447-5.244,25.729-5.244c14.808,0,26.658,3.83,35.224,11.384
				c8.672,7.65,13.232,18.244,13.555,31.487l0.001,55.816c0,10.56,1.329,18.99,3.95,25.059c0.199,0.461,0.302,0.958,0.302,1.461
				v1.791c0,2.035-1.649,3.685-3.685,3.685h-21.707c-1.395,0-2.67-0.787-3.295-2.034c-0.842-1.681-1.564-4.005-2.182-7.03
				C1241.758,289.712,1231.057,293.509,1219.068,293.509z M1236.972,232.523c-34.36,0-34.36,13.987-34.36,18.583
				c0,5.401,1.695,9.459,5.183,12.403c3.673,3.104,8.349,4.613,14.296,4.613c5.804,0,11.396-1.529,16.621-4.544
				c4.941-2.849,8.482-6.381,10.802-10.778v-20.277H1236.972z"/>
		</g>
		<g>
			<path d="M1341.709,293.509c-10.346,0-18.336-3.266-23.747-9.707c-5.251-6.252-7.912-15.068-7.912-26.205v-71.399h-18.359
				c-2.035,0-3.685-1.65-3.685-3.685v-16.001c0-2.035,1.649-3.685,3.685-3.685h18.359v-25.632c0-2.035,1.649-3.685,3.685-3.685
				h20.701c2.035,0,3.685,1.65,3.685,3.685v25.632h18.919c2.035,0,3.685,1.65,3.685,3.685v16.001c0,2.035-1.649,3.685-3.685,3.685
				h-18.919v71.493c0,3.951,0.73,6.835,2.171,8.57c1.272,1.532,3.783,2.31,7.461,2.31c2.117,0,5.171-0.425,9.075-1.262
				c0.257-0.055,0.516-0.082,0.772-0.082c0.836,0,1.655,0.285,2.316,0.819c0.865,0.7,1.368,1.753,1.368,2.866v16.688
				c0,1.663-1.113,3.12-2.718,3.556C1352.823,292.718,1347.151,293.509,1341.709,293.509z"/>
		</g>
		<g>
			<path d="M1383,291.271c-2.035,0-3.685-1.649-3.685-3.685V166.511c0-2.035,1.649-3.685,3.685-3.685h20.7
				c2.035,0,3.685,1.65,3.685,3.685v121.075c0,2.035-1.649,3.685-3.685,3.685H1383z M1393.518,149.83
				c-5.087,0-9.068-1.532-11.836-4.552c-2.685-2.927-4.046-6.588-4.046-10.882c0-4.271,1.348-7.955,4.008-10.951
				c2.769-3.123,6.765-4.708,11.874-4.708c5.096,0,9.103,1.576,11.91,4.684c2.711,3.003,4.084,6.695,4.084,10.975
				c0,4.302-1.387,7.972-4.123,10.906C1402.583,148.307,1398.59,149.83,1393.518,149.83z"/>
		</g>
		<g>
			<path d="M1486.506,293.509c-17.432,0-31.778-6.175-42.642-18.353c-10.756-12.057-16.209-28.13-16.209-47.773v-1.455
				c0-12.375,2.48-23.689,7.372-33.63c4.95-10.06,11.961-17.946,20.839-23.439c8.868-5.489,19.102-8.272,30.416-8.272
				c17.505,0,31.889,6.174,42.754,18.352c10.757,12.056,16.21,28.205,16.21,47.997v1.455c0,12.288-2.4,23.5-7.136,33.323
				c-4.803,9.961-11.777,17.836-20.731,23.405C1508.433,290.687,1498.046,293.509,1486.506,293.509z M1486.282,184.966
				c-9.095,0-16.229,3.52-21.811,10.761c-5.729,7.434-8.634,18.423-8.634,32.663c0,12.537,2.889,22.664,8.584,30.099
				c5.541,7.235,12.765,10.753,22.084,10.753c9.378,0,16.613-3.563,22.12-10.894c5.672-7.552,8.549-18.459,8.549-32.42
				c0-12.386-2.927-22.495-8.699-30.044C1502.857,188.538,1495.597,184.966,1486.282,184.966z"/>
		</g>
		<g>
			<path d="M1642.046,291.271c-2.035,0-3.685-1.649-3.685-3.685v-80.12c-0.067-7.701-1.746-13.376-4.99-16.839
				c-3.175-3.385-8.426-5.102-15.607-5.102c-5.989,0-11.077,1.536-15.554,4.697c-4.319,3.049-7.782,7.07-10.303,11.96v85.403
				c0,2.035-1.649,3.685-3.685,3.685h-20.702c-2.035,0-3.685-1.649-3.685-3.685V166.511c0-2.035,1.649-3.685,3.685-3.685h19.583
				c1.972,0,3.595,1.552,3.682,3.522l0.286,6.476c9.004-8.127,20.054-12.237,32.959-12.237c19.177,0,42.1,8.147,42.401,46.962
				v80.037c0,2.035-1.649,3.685-3.685,3.685H1642.046z"/>
		</g>
		<g>
			<path d="M1738.503,293.509c-10.186,0-19.363-1.845-27.277-5.485c-8.041-3.697-14.438-8.962-19.013-15.646
				c-4.622-6.748-6.966-14.168-6.966-22.054c0-2.035,1.649-3.685,3.685-3.685h20.701c1.958,0,3.574,1.531,3.68,3.487
				c0.317,5.881,2.584,10.396,6.931,13.802c4.495,3.527,10.638,5.315,18.26,5.315c7.056,0,12.71-1.391,16.804-4.133
				c3.733-2.497,5.472-5.56,5.472-9.639c0-4.452-1.532-7.65-4.82-10.067c-3.772-2.77-10.714-5.248-20.631-7.366
				c-10.746-2.294-19.445-5.113-25.855-8.377c-6.688-3.404-11.742-7.576-15.025-12.4c-3.356-4.923-5.06-10.817-5.06-17.515
				c0-11.032,4.689-20.462,13.94-28.03c9.03-7.384,20.64-11.127,34.504-11.127c14.542,0,26.572,3.862,35.755,11.479
				c9.386,7.79,14.145,17.892,14.145,30.027c0,2.035-1.649,3.685-3.685,3.685h-20.814c-2.035,0-3.685-1.65-3.685-3.685
				c0-4.578-1.938-8.456-5.924-11.855c-4.163-3.547-9.329-5.272-15.792-5.272c-6.665,0-11.855,1.398-15.43,4.156
				c-3.326,2.57-4.944,5.825-4.944,9.951c0,3.742,1.346,6.348,4.235,8.2c3.575,2.293,10.386,4.574,20.245,6.779
				c10.572,2.367,19.307,5.254,25.963,8.58c6.951,3.477,12.219,7.781,15.658,12.793c3.511,5.122,5.29,11.375,5.29,18.59
				c0,11.985-4.859,21.728-14.445,28.958C1765.137,289.965,1753.058,293.509,1738.503,293.509z"/>
		</g>
	</g>
</g>
</svg>
